<mxfile host="Electron" modified="2023-11-30T23:06:40.757Z" agent="Mozilla/5.0 (Windows NT 10.0; Win64; x64) AppleWebKit/537.36 (KHTML, like Gecko) draw.io/22.1.2 Chrome/114.0.5735.289 Electron/25.9.4 Safari/537.36" etag="vanCJxSpbv5RGe5l828-" version="22.1.2" type="device">
  <diagram name="PÃ¡gina-1" id="rTGGGkonrSeWcutw31yd">
    <mxGraphModel dx="1219" dy="713" grid="1" gridSize="10" guides="1" tooltips="1" connect="1" arrows="1" fold="1" page="1" pageScale="1" pageWidth="827" pageHeight="1169" math="0" shadow="0">
      <root>
        <mxCell id="0" />
        <mxCell id="1" parent="0" />
        <mxCell id="kuWWXls2R7wnPtdpiCpN-1" value=":Doctor" style="shape=umlLifeline;perimeter=lifelinePerimeter;whiteSpace=wrap;html=1;container=0;dropTarget=0;collapsible=0;recursiveResize=0;outlineConnect=0;portConstraint=eastwest;newEdgeStyle={&quot;edgeStyle&quot;:&quot;elbowEdgeStyle&quot;,&quot;elbow&quot;:&quot;vertical&quot;,&quot;curved&quot;:0,&quot;rounded&quot;:0};" parent="1" vertex="1">
          <mxGeometry x="109" y="40" width="100" height="600" as="geometry" />
        </mxCell>
        <mxCell id="kuWWXls2R7wnPtdpiCpN-2" value="" style="html=1;points=[];perimeter=orthogonalPerimeter;outlineConnect=0;targetShapes=umlLifeline;portConstraint=eastwest;newEdgeStyle={&quot;edgeStyle&quot;:&quot;elbowEdgeStyle&quot;,&quot;elbow&quot;:&quot;vertical&quot;,&quot;curved&quot;:0,&quot;rounded&quot;:0};" parent="kuWWXls2R7wnPtdpiCpN-1" vertex="1">
          <mxGeometry x="45" y="70" width="10" height="520" as="geometry" />
        </mxCell>
        <mxCell id="kuWWXls2R7wnPtdpiCpN-3" value="1. atender(Mascota)" style="html=1;verticalAlign=bottom;startArrow=oval;endArrow=block;startSize=8;edgeStyle=elbowEdgeStyle;elbow=vertical;curved=0;rounded=0;" parent="kuWWXls2R7wnPtdpiCpN-1" target="kuWWXls2R7wnPtdpiCpN-2" edge="1">
          <mxGeometry x="-0.1111" relative="1" as="geometry">
            <mxPoint x="-90" y="70" as="sourcePoint" />
            <mxPoint as="offset" />
          </mxGeometry>
        </mxCell>
        <mxCell id="4p_RL6rn4wcfspSufACi-1" value="" style="html=1;points=[[0,0,0,0,5],[0,1,0,0,-5],[1,0,0,0,5],[1,1,0,0,-5]];perimeter=orthogonalPerimeter;outlineConnect=0;targetShapes=umlLifeline;portConstraint=eastwest;newEdgeStyle={&quot;curved&quot;:0,&quot;rounded&quot;:0};" parent="kuWWXls2R7wnPtdpiCpN-1" vertex="1">
          <mxGeometry x="52" y="80" width="10" height="120" as="geometry" />
        </mxCell>
        <mxCell id="4p_RL6rn4wcfspSufACi-2" value="2. verificarTipo(Mascota)" style="html=1;align=left;spacingLeft=2;endArrow=block;rounded=0;edgeStyle=orthogonalEdgeStyle;curved=0;rounded=0;" parent="kuWWXls2R7wnPtdpiCpN-1" edge="1">
          <mxGeometry relative="1" as="geometry">
            <mxPoint x="57" y="85" as="sourcePoint" />
            <Array as="points">
              <mxPoint x="87" y="115" />
            </Array>
            <mxPoint x="62" y="115" as="targetPoint" />
          </mxGeometry>
        </mxCell>
        <mxCell id="kuWWXls2R7wnPtdpiCpN-6" value=":Mascota" style="shape=umlLifeline;perimeter=lifelinePerimeter;whiteSpace=wrap;html=1;container=0;dropTarget=0;collapsible=0;recursiveResize=0;outlineConnect=0;portConstraint=eastwest;newEdgeStyle={&quot;edgeStyle&quot;:&quot;elbowEdgeStyle&quot;,&quot;elbow&quot;:&quot;vertical&quot;,&quot;curved&quot;:0,&quot;rounded&quot;:0};" parent="1" vertex="1">
          <mxGeometry x="289" y="40" width="120" height="600" as="geometry" />
        </mxCell>
        <mxCell id="EMLHVGw_hGrWyqv-pDTG-1" value="" style="html=1;points=[[0,0,0,0,5],[0,1,0,0,-5],[1,0,0,0,5],[1,1,0,0,-5]];perimeter=orthogonalPerimeter;outlineConnect=0;targetShapes=umlLifeline;portConstraint=eastwest;newEdgeStyle={&quot;curved&quot;:0,&quot;rounded&quot;:0};" parent="kuWWXls2R7wnPtdpiCpN-6" vertex="1">
          <mxGeometry x="60" y="545" width="10" height="40" as="geometry" />
        </mxCell>
        <mxCell id="EMLHVGw_hGrWyqv-pDTG-2" value="10. setEstado(EstadoFeliz)" style="html=1;align=left;spacingLeft=2;endArrow=block;rounded=0;edgeStyle=orthogonalEdgeStyle;curved=0;rounded=0;" parent="kuWWXls2R7wnPtdpiCpN-6" target="EMLHVGw_hGrWyqv-pDTG-1" edge="1">
          <mxGeometry relative="1" as="geometry">
            <mxPoint x="65" y="525" as="sourcePoint" />
            <Array as="points">
              <mxPoint x="95" y="555" />
            </Array>
          </mxGeometry>
        </mxCell>
        <mxCell id="kuWWXls2R7wnPtdpiCpN-14" value=":CriterioMasajear" style="shape=umlLifeline;perimeter=lifelinePerimeter;whiteSpace=wrap;html=1;container=0;dropTarget=0;collapsible=0;recursiveResize=0;outlineConnect=0;portConstraint=eastwest;newEdgeStyle={&quot;edgeStyle&quot;:&quot;elbowEdgeStyle&quot;,&quot;elbow&quot;:&quot;vertical&quot;,&quot;curved&quot;:0,&quot;rounded&quot;:0};" parent="1" vertex="1">
          <mxGeometry x="434" y="40" width="120" height="600" as="geometry" />
        </mxCell>
        <mxCell id="kuWWXls2R7wnPtdpiCpN-15" value="" style="html=1;points=[];perimeter=orthogonalPerimeter;outlineConnect=0;targetShapes=umlLifeline;portConstraint=eastwest;newEdgeStyle={&quot;edgeStyle&quot;:&quot;elbowEdgeStyle&quot;,&quot;elbow&quot;:&quot;vertical&quot;,&quot;curved&quot;:0,&quot;rounded&quot;:0};" parent="kuWWXls2R7wnPtdpiCpN-14" vertex="1">
          <mxGeometry x="54" y="372" width="10" height="41" as="geometry" />
        </mxCell>
        <mxCell id="kuWWXls2R7wnPtdpiCpN-7" value="" style="html=1;points=[];perimeter=orthogonalPerimeter;outlineConnect=0;targetShapes=umlLifeline;portConstraint=eastwest;newEdgeStyle={&quot;edgeStyle&quot;:&quot;elbowEdgeStyle&quot;,&quot;elbow&quot;:&quot;vertical&quot;,&quot;curved&quot;:0,&quot;rounded&quot;:0};" parent="1" vertex="1">
          <mxGeometry x="344" y="258" width="10" height="70" as="geometry" />
        </mxCell>
        <mxCell id="kuWWXls2R7wnPtdpiCpN-12" value="4. getEstado()" style="html=1;verticalAlign=bottom;endArrow=block;edgeStyle=elbowEdgeStyle;elbow=vertical;curved=0;rounded=0;" parent="1" edge="1">
          <mxGeometry relative="1" as="geometry">
            <mxPoint x="164" y="265" as="sourcePoint" />
            <Array as="points">
              <mxPoint x="249" y="265" />
            </Array>
            <mxPoint x="348.5" y="265" as="targetPoint" />
          </mxGeometry>
        </mxCell>
        <mxCell id="kuWWXls2R7wnPtdpiCpN-21" value="" style="html=1;points=[];perimeter=orthogonalPerimeter;outlineConnect=0;targetShapes=umlLifeline;portConstraint=eastwest;newEdgeStyle={&quot;edgeStyle&quot;:&quot;elbowEdgeStyle&quot;,&quot;elbow&quot;:&quot;vertical&quot;,&quot;curved&quot;:0,&quot;rounded&quot;:0};" parent="1" vertex="1">
          <mxGeometry x="344" y="452" width="10" height="178" as="geometry" />
        </mxCell>
        <mxCell id="kuWWXls2R7wnPtdpiCpN-10" value="EstadoEnfermo" style="html=1;verticalAlign=bottom;endArrow=open;dashed=1;endSize=8;edgeStyle=elbowEdgeStyle;elbow=vertical;curved=0;rounded=0;" parent="1" edge="1">
          <mxGeometry x="0.2324" relative="1" as="geometry">
            <mxPoint x="169" y="313.5" as="targetPoint" />
            <Array as="points">
              <mxPoint x="264" y="313.5" />
            </Array>
            <mxPoint x="349" y="314" as="sourcePoint" />
            <mxPoint as="offset" />
          </mxGeometry>
        </mxCell>
        <mxCell id="kuWWXls2R7wnPtdpiCpN-11" value="" style="html=1;points=[];perimeter=orthogonalPerimeter;outlineConnect=0;targetShapes=umlLifeline;portConstraint=eastwest;newEdgeStyle={&quot;edgeStyle&quot;:&quot;elbowEdgeStyle&quot;,&quot;elbow&quot;:&quot;vertical&quot;,&quot;curved&quot;:0,&quot;rounded&quot;:0};" parent="1" vertex="1">
          <mxGeometry x="159" y="260" width="10" height="70" as="geometry" />
        </mxCell>
        <mxCell id="kuWWXls2R7wnPtdpiCpN-19" value="" style="html=1;points=[[0,0,0,0,5],[0,1,0,0,-5],[1,0,0,0,5],[1,1,0,0,-5]];perimeter=orthogonalPerimeter;outlineConnect=0;targetShapes=umlLifeline;portConstraint=eastwest;newEdgeStyle={&quot;curved&quot;:0,&quot;rounded&quot;:0};" parent="1" vertex="1">
          <mxGeometry x="159" y="372" width="10" height="40" as="geometry" />
        </mxCell>
        <mxCell id="kuWWXls2R7wnPtdpiCpN-20" value="5. setCriterio(CriterioMasajear)" style="html=1;align=left;spacingLeft=2;endArrow=block;rounded=0;edgeStyle=orthogonalEdgeStyle;curved=0;rounded=0;" parent="1" target="kuWWXls2R7wnPtdpiCpN-19" edge="1">
          <mxGeometry x="0.0118" relative="1" as="geometry">
            <mxPoint x="164" y="352" as="sourcePoint" />
            <Array as="points">
              <mxPoint x="194" y="382" />
            </Array>
            <mxPoint as="offset" />
          </mxGeometry>
        </mxCell>
        <mxCell id="kuWWXls2R7wnPtdpiCpN-16" value="6. aplicarCriterio(Mascota)" style="html=1;verticalAlign=bottom;endArrow=block;edgeStyle=elbowEdgeStyle;elbow=vertical;curved=0;rounded=0;" parent="1" target="kuWWXls2R7wnPtdpiCpN-15" edge="1">
          <mxGeometry x="-0.4846" relative="1" as="geometry">
            <mxPoint x="164" y="432" as="sourcePoint" />
            <Array as="points" />
            <mxPoint x="480" y="433" as="targetPoint" />
            <mxPoint as="offset" />
          </mxGeometry>
        </mxCell>
        <mxCell id="kuWWXls2R7wnPtdpiCpN-22" value="7. recibirMedicina()" style="html=1;verticalAlign=bottom;endArrow=block;edgeStyle=elbowEdgeStyle;elbow=vertical;curved=0;rounded=0;" parent="1" edge="1">
          <mxGeometry relative="1" as="geometry">
            <mxPoint x="167" y="462" as="sourcePoint" />
            <Array as="points">
              <mxPoint x="252" y="462" />
            </Array>
            <mxPoint x="337" y="462" as="targetPoint" />
            <mxPoint as="offset" />
          </mxGeometry>
        </mxCell>
        <mxCell id="4p_RL6rn4wcfspSufACi-4" value="Conejo" style="html=1;verticalAlign=bottom;endArrow=open;dashed=1;endSize=8;edgeStyle=elbowEdgeStyle;elbow=vertical;curved=0;rounded=0;" parent="1" edge="1">
          <mxGeometry x="0.2324" relative="1" as="geometry">
            <mxPoint x="170" y="220" as="targetPoint" />
            <Array as="points">
              <mxPoint x="259" y="220" />
            </Array>
            <mxPoint x="344" y="220.5" as="sourcePoint" />
            <mxPoint as="offset" />
          </mxGeometry>
        </mxCell>
        <mxCell id="4p_RL6rn4wcfspSufACi-6" value="" style="html=1;verticalAlign=bottom;endArrow=block;edgeStyle=elbowEdgeStyle;elbow=vertical;curved=0;rounded=0;" parent="1" target="4p_RL6rn4wcfspSufACi-5" edge="1">
          <mxGeometry relative="1" as="geometry">
            <mxPoint x="172" y="190" as="sourcePoint" />
            <Array as="points" />
            <mxPoint x="336" y="190" as="targetPoint" />
          </mxGeometry>
        </mxCell>
        <mxCell id="4p_RL6rn4wcfspSufACi-5" value="" style="html=1;points=[];perimeter=orthogonalPerimeter;outlineConnect=0;targetShapes=umlLifeline;portConstraint=eastwest;newEdgeStyle={&quot;edgeStyle&quot;:&quot;elbowEdgeStyle&quot;,&quot;elbow&quot;:&quot;vertical&quot;,&quot;curved&quot;:0,&quot;rounded&quot;:0};" parent="1" vertex="1">
          <mxGeometry x="344" y="180" width="10" height="50" as="geometry" />
        </mxCell>
        <mxCell id="4p_RL6rn4wcfspSufACi-7" value="3. getTipo()" style="text;html=1;align=center;verticalAlign=middle;resizable=0;points=[];autosize=1;strokeColor=none;fillColor=none;" parent="1" vertex="1">
          <mxGeometry x="212" y="162" width="80" height="30" as="geometry" />
        </mxCell>
        <mxCell id="EMLHVGw_hGrWyqv-pDTG-3" value=":EstadoEnfermo" style="shape=umlLifeline;perimeter=lifelinePerimeter;whiteSpace=wrap;html=1;container=0;dropTarget=0;collapsible=0;recursiveResize=0;outlineConnect=0;portConstraint=eastwest;newEdgeStyle={&quot;edgeStyle&quot;:&quot;elbowEdgeStyle&quot;,&quot;elbow&quot;:&quot;vertical&quot;,&quot;curved&quot;:0,&quot;rounded&quot;:0};" parent="1" vertex="1">
          <mxGeometry x="594" y="40" width="120" height="600" as="geometry" />
        </mxCell>
        <mxCell id="EMLHVGw_hGrWyqv-pDTG-5" value="" style="html=1;points=[];perimeter=orthogonalPerimeter;outlineConnect=0;targetShapes=umlLifeline;portConstraint=eastwest;newEdgeStyle={&quot;edgeStyle&quot;:&quot;elbowEdgeStyle&quot;,&quot;elbow&quot;:&quot;vertical&quot;,&quot;curved&quot;:0,&quot;rounded&quot;:0};" parent="EMLHVGw_hGrWyqv-pDTG-3" vertex="1">
          <mxGeometry x="55" y="433" width="10" height="87" as="geometry" />
        </mxCell>
        <mxCell id="EMLHVGw_hGrWyqv-pDTG-4" value="8. recibirMedicina()" style="html=1;verticalAlign=bottom;endArrow=block;edgeStyle=elbowEdgeStyle;elbow=vertical;curved=0;rounded=0;" parent="1" edge="1">
          <mxGeometry relative="1" as="geometry">
            <mxPoint x="354" y="483" as="sourcePoint" />
            <Array as="points">
              <mxPoint x="439" y="483" />
            </Array>
            <mxPoint x="653.5" y="483" as="targetPoint" />
            <mxPoint as="offset" />
          </mxGeometry>
        </mxCell>
        <mxCell id="EMLHVGw_hGrWyqv-pDTG-6" value="EstadoFeliz" style="html=1;verticalAlign=bottom;endArrow=open;dashed=1;endSize=8;edgeStyle=elbowEdgeStyle;elbow=vertical;curved=0;rounded=0;" parent="1" edge="1">
          <mxGeometry relative="1" as="geometry">
            <mxPoint x="354" y="550" as="targetPoint" />
            <Array as="points">
              <mxPoint x="695.5" y="550" />
            </Array>
            <mxPoint x="650" y="552" as="sourcePoint" />
          </mxGeometry>
        </mxCell>
        <mxCell id="Z3zrrVupwUU3piFdFZXO-2" value=":EstadoFeliz" style="shape=umlLifeline;perimeter=lifelinePerimeter;whiteSpace=wrap;html=1;container=0;dropTarget=0;collapsible=0;recursiveResize=0;outlineConnect=0;portConstraint=eastwest;newEdgeStyle={&quot;edgeStyle&quot;:&quot;elbowEdgeStyle&quot;,&quot;elbow&quot;:&quot;vertical&quot;,&quot;curved&quot;:0,&quot;rounded&quot;:0};" parent="1" vertex="1">
          <mxGeometry x="740" y="40" width="120" height="600" as="geometry" />
        </mxCell>
        <mxCell id="Z3zrrVupwUU3piFdFZXO-3" value="" style="html=1;points=[];perimeter=orthogonalPerimeter;outlineConnect=0;targetShapes=umlLifeline;portConstraint=eastwest;newEdgeStyle={&quot;edgeStyle&quot;:&quot;elbowEdgeStyle&quot;,&quot;elbow&quot;:&quot;vertical&quot;,&quot;curved&quot;:0,&quot;rounded&quot;:0};" parent="Z3zrrVupwUU3piFdFZXO-2" vertex="1">
          <mxGeometry x="55" y="445" width="10" height="50" as="geometry" />
        </mxCell>
        <mxCell id="Z3zrrVupwUU3piFdFZXO-4" value="9. new EstadoFeliz()" style="html=1;verticalAlign=bottom;endArrow=block;edgeStyle=elbowEdgeStyle;elbow=vertical;curved=0;rounded=0;" parent="1" edge="1">
          <mxGeometry relative="1" as="geometry">
            <mxPoint x="657" y="500" as="sourcePoint" />
            <Array as="points">
              <mxPoint x="742" y="500" />
            </Array>
            <mxPoint x="800" y="500" as="targetPoint" />
            <mxPoint as="offset" />
          </mxGeometry>
        </mxCell>
        <mxCell id="Z3zrrVupwUU3piFdFZXO-5" value="EstadoFeliz" style="html=1;verticalAlign=bottom;endArrow=open;dashed=1;endSize=8;edgeStyle=elbowEdgeStyle;elbow=vertical;curved=0;rounded=0;" parent="1" target="EMLHVGw_hGrWyqv-pDTG-5" edge="1">
          <mxGeometry relative="1" as="geometry">
            <mxPoint x="670" y="530" as="targetPoint" />
            <Array as="points">
              <mxPoint x="841.5" y="530" />
            </Array>
            <mxPoint x="796" y="532" as="sourcePoint" />
          </mxGeometry>
        </mxCell>
        <mxCell id="V80rP1cqk3uy5P26r7mL-1" value="" style="shape=image;verticalLabelPosition=bottom;labelBackgroundColor=default;verticalAlign=top;aspect=fixed;imageAspect=0;image=data:image/png,iVBORw0KGgoAAAANSUhEUgAABLAAAAITCAYAAAAXeeW1AAAAAXNSR0IArs4c6QAAIABJREFUeF7snQdU1uf1x7/sPRTZIKiAKAgKiIooKuKMmtU0SdO0zWyTNDtNs/dOmtXMJmnazCZpdlygCIoKCgLiYougyBDZG/7n3kT/xppEVJCX9/uc4xFffs/6PD80+Zx772MCoBdsJEACJEACJEACJEACJEACJEACJEACJEACJDBICZhQYA3Sk+GySIAESIAESIAESIAESIAESIAESIAESIAElAAFFl8EEiABEiABEiABEiABEiABEiABEiABEiCBQU2AAmtQHw8XRwIkQAIkQAIkQAIkQAIkQAIkQAIkQAIkQIHFd4AESIAESIAESIAESIAESIAESIAESIAESGBQE6DAGtTHw8WRAAmQAAmQAAmQAAmQAAmQAAmQAAmQAAlQYPEdIAESIAESIAESIAESIAESIAESIAESIAESGNQEKLAG9fFwcSRAAiRAAiRAAiRAAiRAAiRAAiRAAiRAAhRYfAdIgARIgARIgARIgARIgARIgARIgARIgAQGNQEKrEF9PFwcCZAACZAACZAACZAACZAACZAACZAACZAABRbfARIgARIgARIgARIgARIgARIgARIgARIggUFNgAJrUB8PF0cCJEACJEACJEACJEACJEACJEACJEACJECBxXeABEiABEiABEiABEiABEiABEiABEiABEhgUBOgwBrUx8PFkQAJkAAJkAAJkAAJkAAJkAAJkAAJkAAJUGDxHSABEiABEiCBASCwbNkyeHp6DsBMnIIETp1AY2MjPvnkE3R2dp76IOxJAiRAAiRAAiRAAv1AgAKrH6BySBIgARIgARI4nsBny5djk6kpwZDAoCXgZmuLi3x9ERoaiubm5kG7Ti6MBEiABEiABEjAOAlQYBnnuXPXJEACJEACA0zgzf/+F9dkZw/wrJyOBE6eQJCLC1YtW0aBdfLI+CQJkAAJkAAJkMAAEqDAGkDYnIoESIAESMB4CVBgGe/ZG8rOKbAM5aS4ThIgARIgARIwTgIUWMZ57tw1CZAACZDAABOgwBpg4JyuzwQosPqMjB1IgARIgARIgAQGkAAF1gDC5lQkQAIkQALGS4ACy3jP3lB2ToFlKCfFdZIACZAACZCAcRKgwDLOc+euSYAESIAEBpgABdYAA+d0fSZAgdVnZOxAAiRAAiRAAiQwgAQosAYQNqciARIgARIwXgIUWMZ79oaycwosQzkprpMESIAESIAEjJMABZZxnjt3TQIkQAIkMMAEjF1gOVlbw9vBAR3d3Siuq0NPby/kP0IcrK0x0tERTR0dKG9oQFdPT7+cjKmJCdzs7CC/H2xqQndvb7/MY8iDUmAZ8ulx7SRAAiRAAiQw9AlQYA39M+YOSYAESIAEBgEBYxdYCwMDcd+sWWhsb8eVX36pssrSzAy/mzgRt8TEYG1xMe5fuxaHWlv75bTsLS1x07RpKrCe37hRhRnbjwlQYPGNIAESIAESIAESGMwEKLAG8+lwbSRAAiRAAkOGgLELrHPGjsUd06fD3soKT61fj8927ICDlRXeWLIEIW5u2FBWhnvXrIG/szOWBQfD2sJCZdOK/HyklpZiXkAAZvj762etnZ34bs8eVDY34+LQULja2Wlk15aKCiSXlGBRUBAme3ujt7cXZfX1+HLXLkR7e6sok7amuBhf7doFXycnxIwcCRMTExxqacFH27dj7+HDGh1mjI0CyxhPnXsmARIgARIgAcMhQIFlOGfFlZIACZAACRgwAQqssbh28mTUt7WhqqkJT23YgLEjRuCx+Hg0dnSoOBKB5efkBP9hw1B06BCui46GlZkZ7kxMxAsLFyKvqgrL8/PR2d2N1q4uXBgSgjh/f7y0eTMqGho0emuKj49GdX2+c6eOe1l4ODLKy7GqsBD3xcXhcHs7XsvIwL76ehVnthYW6OzpwbVRUdhZXY2Hk5PR3t1twG/aqS+dAuvU2bEnCZAACZAACZBA/xOgwOp/xpyBBEiABEiABECBNRa/CQtTASURUm9lZmpUlUgTEU3NHR0qsCT6SWpimZqaaiSWRFI9mpKC30+apBFb72RmIr+2Fo5WVrhr5kxk7d+Pt7KyVIyZm5riyYQE/d51334LiaO6aepUTPXxUQkmAqu6uRmPpqaipbMT7nZ28HBw0Kiu66Oj4WRlhd989pnKMWNsFFjGeOrcMwmQAAmQAAkYDgEKLMM5K66UBEiABEjAgAlQYI3FrydMwD+zsvDHyZOxv6FBU/gSi4owydNTxdWzaWlYOnYsYvz8UFhTg1APD9hbWODG5cs1bXBhUBBC3dxUUEnNrISAAP39/ZwcrWklda6enT9f0wmlj7Q/RUdjfkAAbl25EvfOnHlUYEmk19VRURhmY6NrkVRCieC65JNPKLBCQ9Hc3GzAP21cOgmQAAmQAAmQwFAkQIE1FE+VeyIBEiABEhh0BCiwvhdYL2zciNmjRuHSsDDsb2zEfUlJuDIqCuYmJvjntm3464wZWsvqH5mZuDUmBpFeXrg7MRH17e0qmnycnPD6kiXIqKiAlbm5pgA+mZqKA01Nmloowmqmnx8eTE5GW1eXjiE3Dj67YQMemjNHRdjD69Zh1qhRGnUlqYy7q6vxSHw8bCwsKLCWLUMoBdag+/uDCyIBEiABEiABEoDeYG2clUp5+iRAAiRAAiQwgAQosL4XWE+lpmKErS0ejY/H8oICvJ2VhXvi4mBhaopH1q3DLdOm4cLQUDSJsPpBSv1t40b8ecoUjBk+XP+jRepX3bJiBVxtbfHUvHkYbmOjgktqW327Zw/uiI3Fr0NDIZWsimtrcc+aNdhdU4MbpkzBH6OitLD7h7m5uCg0VOttSfSWpBbK74zAosAawL8WOBUJkAAJkAAJkEAfCFBg9QEWHyUBEiABEiCBUyVg7AJLbh+UGlM1LS0wMzHRmwMb29tVPImIkpsAq5qb4WJjAxf5M4Dmzk5NLZTUPqlXJTcTordXRZMUbZeaV16OjrAxN9fnqltaUNvSooLMzd5ej0pqax1obNRC7cOsrXVeuZ1Q1iE1tewsLbWvRGbJ7+UNDfp9Y2ysgWWMp849kwAJkAAJkIDhEKDAMpyz4kpJgARIgAQMmICxCywDPjqjWToFltEcNTdKAiRAAiRAAgZJgALLII+NiyYBEiABEjA0AhRYhnZixrdeCizjO3PumARIgARIgAQMiQAFliGdFtdKAiRAAiRgsAT+8fnnuD4312DXz4UPbQKSPik1xlYuXcoi7kP7qLk7EiABEiABEjBYAhRYBnt0XDgJkAAJkIAhEfh69WpUubgY0pK5ViMisLWiArmVlfggIYECy4jOnVslARIgARIgAUMiQIFlSKfFtZIACZAACRgsAaYQGuzRGc3CmUJoNEfNjZIACZAACZCAQRKgwDLIY+OiSYAESIAEDI0ABZahnZjxrZcCy/jOnDsmARIgARIgAUMiQIFlSKfFtZIACZAACRgsAQosgz06o1k4BZbRHDU3SgIkQAIkQAIGSYACyyCPjYsmARIgARIwNAIUWIZ2Ysa3Xgos4ztz7pgESIAESIAEDIkABZYhnRbXSgIkQAIkYLAEBovAsjY3h5eDAxrb21Hd0jIoeDpYWsLTwQE1LS043NYGuRGPbeAJUGANPHPOSAIkQAIkQAIkcPIEKLBOnhWfJAESIAESIIFTJjAYBJaJiQkChg3Dg3PmYG1JCd7OzDzl/Zyoo8ixuFGjMGbYMP12W1cXtlRUoLKxEZO8vJC1f79KquPbDD8/3DVzJt7LzsaXu3ejtbPzjK6Lg50cAQqsk+PEp0iABEiABEiABM4OAQqss8Ods5IACZAACRgZgb4ILDMTE5ibmcEUgKmJCSQeqbOnB53d3RAJZWVmBnlGmnze0d2tfz62Tw+A7p4emJmaQp7s7u1FV0+PCqwnEhKQXFKCd7KyfjS2hakpTOWXDGxiouNKX0szM51Lxjj2M4mUkj9LMzc1xfyAAFwdFYXSujrsra9XEZVeXg4HKyvcHhODJ9avx7YDB3Qc2deReTzt7TF95EjkVFZiT22tzilN9qR77+7WfUqTtchc0mR++SXfZ8zW6f9AUWCdPkOOQAIkQAIkQAIk0H8EKLD6jy1HJgESIAESIIGjBPoisCK9vHBVRAQ8HBwQ4OKC5o4OlU3v5+TAztIST82bh8ne3jq2RFG9mpGBCe7uP+pT3tCArRUVmObrC1c7O6wvLcVzaWkqgJ6aP1/H8bC3V/nzj8xMHeeSsDBM8vTEaGdn2Fpa4onUVAyzscHt06drv7S9e/FoaipcbGxwa0wMSg8fxtMbNqjEsjI3x83TpiHcwwOPrFuHXdXVur6xLi54cfFixPj6Yl99PVJKS5FdWYnxbm5H5/lq926MGT4ca4qLda+XhYXpeKHu7prqKHuX6CyRd/fNmoVzgoJQ19qKfY2NyD5wAP/atg2HWlv5tp0mAQqs0wTI7iRAAiRAAiRAAv1KgAKrX/FycBIgARIgARL4nkBfBNZMPz+VPsnFxfh3Tg5+P3GiyqwH1q7Fb8PD4ePoqJ97Ozri/HHjVGxVNzfjhUWLsK60FB/n5uLmmBh4OzjgqQ0b4GxtjcsnTsRbmZnYXlmpY9e2tKj4mjN6NCZ6eKiIkq8vGD9ehdCakhJNBbwiIgKrCgtRVl+PG6KjsbKwEO9u24YrIyJQ1tCAr3bt0sguiYqSKKo/T5mC0vp6fLN7Nwpqa1HX1oZLJ0zAH6OjVYhJlNWvQkJwYUgI/pWdjaSiIrjb2eGmadPwxa5dKqzuiYvTCLGPt2/H7yZNwnhXV9zw3XeI9vbGr0ND8ebWrbA0N8d10dEqwx5PSdH9s50eAQqs0+PH3iRAAiRAAiRAAv1LgAKrf/lydBIgARIgARL4H4El//g6WVsjwtMT9paWqG1t1dS6lh9qP4nAenzuXLy4eTM+3bFDhY+InL+lpeGvM2ZonajXMjI0ze/NpUtR1dyMVQUFeGzuXLy8eTO+KyjAfXFxcLe3x71r1mia3UuLFqksWldSgifmzdOvRWBJxJQ8m7J3L5ysrBDm7o47ExNxoLERN0yZgvPHj1dhJVFWvwkLw8HmZtyxcqX+Lml7vccUXJcIqcleXiqrQlxdsam8HK9s3oxgNzdNIbxlxQrsqK7GzVOnIsrLS+cprquDRJzdGxd3VGDdOHUqnt+4Ed/s2aMpiddHR+PupCQsDAxUWXbPmjW61jumT4ckMD61fj0F1hn4OaPAOgMQOQQJkAAJkAAJkEC/EaDA6je0HJgESIAESIAE/p/AsRFYInpELi0dOxbDbWwg6X7f7tmjN/BJE4ElMkoE1mc7duDC8ePx+4gI/H3zZtwRG4tP8vLwxtat+uzrS5agvr0d3+3Zo31e2rwZywsKVAipwEpKUtGkAqu4GOuKi7UGVmJREV7bsgUhbm54YPZsbNq3D3YWFpqKeOfq1SqoRCSJtFpdWKiSraenB7trajTVr6mj4yePV+pbiRh7Yu5cjaTaWVPzPwJLpJUIrJITCKw/HyewJPJLRNyioCCVfPetWQNHKyvcOn261suS6DFGYJ3+TxsF1ukz5AgkQAIkQAIkQAL9R4ACq//YcmQSIAESIAESOEqgrymExwus30VE4MG1azWlz0LqWK1fDz9nZ9wWE6OSq+jQoZMWWC8tXoyKhgaVQkuCg7EkKAjPbtyodapEPInAkpTBhUFBuGnqVI32EvnV3tWlheGlnLqsQ8YQESafSQphmIcHapqbNSIsaMQIPBYfr9+XKKv7Z83SVL/E4mKN7Ir09OyTwPrjN98gyttb61/dlZioReDvnz1bx36MKYRn5CeNAuuMYOQgJEACJEACJEAC/USAAqufwHJYEiABEiABEjiWQF8ElkQnieT5MDdXBdDcMWOwLDgYL2zaBEtTU1wRGQkvBwdYW1ggs6JCa1v5Ojkd7bOhrAxXR0bCxdYWf09P1zQ/ST3cXF6OLRUVGlkl0VZSqF1S8VL37tUxpP5V8IgROs/+xka9PfDc4GDMCwjQWwBbOjogBdeltpWILal1JWmIUgheiq5fHh6uReNFcElqZG5lpaYf2lpY4M4ZM/SzjPJyNHd2InD4cJ2norER41xdcU1UFNZKEffOTlwyYYLW9ZKC77ImqXv1YHKy1tOSQvG+jo6aOujn5KS3HDIC68z8rFFgnRmOHIUESIAESIAESKB/CFBg9Q9XjkoCJEACJEACPyLQF4FFdL9MQG4tlDTJyqYmvV2xpqXllzvxiZ8lQIHFF4QESIAESIAESGAwE6DAGsynw7WRAAmQAAkMGQIUWKd/lGNHjEDCmDFwsLSE37BhCBg+XIu9S02utq6u05/AyEegwDLyF4DbJwESIAESIIFBToACa5AfEJdHAiRAAiQwNAhQYJ3+OUrNr2k+Ppr6KGmR+xoasHHfPk1tZDt9AhRYp8+QI5AACZAACZAACfQfAQqs/mPLkUmABEiABEjgKAEKLL4Mg50ABdZgPyGujwRIgARIgASMmwAFlnGfP3dPAiRAAiQwQASMVWBJcXcfR0c0tLejtqUFPb29StzExASutrZwtrbWSKrWzs4BOglO81MEKLD4bpAACZAACZAACQxmAhRYg/l0uDYSIAESIIEhQ8AQBJbcWjjDzw/ejo4qmLp7erCnpgYby8pOucaUFFt/ZM4crC0pwcfbt6Pph3Q/C1NTXBUZiXOCg/GXVauwo6pqyJy1oW6EAstQT47rJgESIAESIAHjIECBZRznzF2SAAmQAAmcZQJ9EVhmJiawMDOD/CNtamqq9Z46urvR1dOjYsnKzAxmx31ubmoKS+ljYgL09qL9h+clAspcPgPQ/cPn8rWMIbFQHV1d+ru0MHd3PDZ3Llq7upBeXq4RUlIoPam4GP/Jy0NdayuOnUfWJfOI6DoyXmd3t4RX6Z8l2srf2RlPzZuHdSUl+CgvD83t7ejo6dH5rps8GeeOH48bv/tOBZb0MTUx+X5dP6z/LB+bUU1PgWVUx83NkgAJkAAJkIDBEaDAMrgj44JJgARIgAQMkUBfBFaUtzeuioiAh709AkeMwKGWFjyRmorlBQVwtbPD0/PmYbK3N1o6O/HIunX6+cLAQNwzcyYcra318+fS0vDFzp24b9YsLBk7VsVWSmmpPi8S6v7Zs9HQ1oZn0tJQ3dx8VGDJ52uLi/FWZqbKpD9EROCKSZPw18REJJeUYJHMExcHBysrVDU34/61a5FRXo67Z85U8fRsWhocraxwX1wcdlVXa58HZ8+Gj5MTrM3NVca9tmUL/rlt248Elqz5oTlzVKLVt7Xhbxs34otduwzxqA12zRRYBnt0XDgJkAAJkAAJGAUBCiyjOGZukgRIgARI4GwT6IvAmunnhxcXL0ZycTH+lZ2Ny8LCEODigvvWrsXFoaFaU+q9nBzMDwzUCKf3c3Jw4fjxqG5pwad5eTjU1obDra0qmy6aMAGvZ2RoVNRvw8OxYe9efLV7N84ZOxaH29o0rU8iu6SJPDpWYEkUVOzIkXhh0SKdb/O+fbhr5kyklJQg68ABndPawkJl083Tpqmc+svq1VrX6tVzztFnPt2xA8/Mm4e6tjb8MysLklK4IDBQ+0z08NAILJFqsX5+CHNzw1tZWfq5/PlOSS2srj7bR2c081NgGc1Rc6MkQAIkQAIkYJAEKLAM8ti4aBIgARIgAUMjcKzAkn98naytEeHpCXsrK42wEtkjUUjSRGA9PncuXty8WQXQ3DFjcGtMDN7OzMSNU6ei4NAhLM/PxxQfH8waNUrlkqT7hbu745s9e7C9qgoV9fUqm0RO3bNmjUZT3TR1Ksa5umo0VUVDg851pKj6TwmscA8PlVErCwtR29ysNavuWLUKBbW1Ov+dM2bglfR0nDtu3E8KLKmBlVhUhH/n5MDOwgKvLVmC1YWFsLWw0PHe3LoVvwoJUaGWVFSkNbh+N3Ei/vzddxrBxTYwBCiwBoYzZyEBEiABEiABEjg1AhRYp8aNvUiABEiABEigTwR+JLBMTOBub48lQUEYbmuL8vp6fJefrwLniMCSWlQisD7bsQOzR43CHbGxGi31p8mTNdJKCqtLk9v9RPIcaGzEgoAAhLi7I8bXF+9u24aYkSNVit23Zo0+e8OUKYj08lIBVVZf/z/rP1EE1qKgIDyRkIA3tmzRNESJ6rpt1SoU1tZikqenpge+mpGBpcHBRwWWm50d3li6FJv27dPaWQ/PmYPVRUV4LzsbNhYWeH3JEqSWlmrNrkVjx+KtrVtxyYQJOv6WigotGN/c2Ymvd+3C3hOss0/g+fBJE6DAOmlUfJAESIAESIAESOAsEKDAOgvQOSUJkAAJkIDxEehrCuHflyzBV7t24ZkNGzTqSupi3b9mDa6dPFkLvEtNLImikrQ9O0tLjB4+HKV1dZq+JxFOUu+qqb1dBdHdiYmaQvjX2FjkHjyI93NzEefnh/r2dp3j2CLukkIocumdrCwEjxiBu+LitFaWzCf1tx6Jj9dUwPV79+LqqCiMGTYMj6em4rcTJ2KCuztuXbFC63a9uHAhPsrNxYfbt+PZBQs0IkzqYwW7uuLaqCg8v2kTxrq4aArhEykpmBcYCC8HB9y7Zo0KPVmTRI/J/tgGhgAF1sBw5iwkQAIkQAIkQAKnRoAC69S4sRcJkAAJkAAJ9IlAXwXWYwkJaGxvR2VTE+wtLbUguxQ1l5pXV0REwNPREe1dXSg6dEiLrkuk1EgnJxU/khb40ubNqGpqwlWRkSqiJLpJIrekHpZEbd00bZoWS38lI0N/lxbo4qK1rCSFr7alRYuu76uvx7vZ2RpxJeJMCsIvDgrS8azNzDR9UdL+Jnl5aYqi3EIotbOkyPua4mL9nqzX18lJbysU2ZZWVqYRYhLNNXv0aK2HJYXlr46M1H5yW6LIOHmm/IdUxz7B5sOnRIAC65SwsRMJkAAJkAAJkMAAEaDAGiDQnIYESIAESMC4CfRZYB2TQmjc5Lj7gSJAgTVQpDkPCZAACZAACZDAqRCgwDoVauxDAiRAAiRAAn0kQIHVR2B8fMAJUGANOHJOSAIkQAIkQAIk0AcCFFh9gMVHSYAESIAESOBUCfRFYHnY2yPCyws7q6pQevjwqU7JfiTQJwIUWH3CxYdJgARIgARIgAQGmAAF1gAD53QkQAIkQALGSaAvAss4CXHXZ5sABdbZPgHOTwIkQAIkQAIk8HMEKLD4fpAACZAACZDAABCgwBoAyJzitAhQYJ0WPnYmARIgARIgARLoZwIUWP0MmMOTAAmQAAmQgBCgwPr598DUxATjXV3h5+yM9PJy1LS08MUZYAIUWAMMnNORAAmQAAmQAAn0iQAFVp9w8WESIAESIAESODUCQ1FgOVtb44+TJ0N+7+7tRW9vL1JKS7G2pATdPT19AmVuaoorIyKwMDAQDyQnI6eysk/9+fDpE6DAOn2GHIEESIAESIAESKD/CFBg9R9bjkwCJEACJEACRwkMRYHl6+iIf55/Pj7buRObysrw24kTEerqiodTUrCxrKxPp0+B1Sdc/fIwBVa/YOWgJEACJEACJEACZ4gABdYZAslhSIAESIAESODnCJyswPJxdMStMTHYU1uLj7dvh5mJCR6Jj0d+TQ0kpmmKtzdE9piYmOClzZuRfeAAon18cE1UFDq7u3G4rQ0bysowydMTda2teGPrVpgCuCM2FodaW7GioADXT5kCSzMzWJiawt3eHlsrKvB4aqp+/YdJkzSNz9bCAuUNDXh9yxaI2Dh//Hj8Kzsb60pKjm5TBNaby5bhlfR0rCosxK9CQ3FlZCRe2rRJ0wBvmz4dI52cNDKrob1dx8o9eBDLgoP1WVmvnaUlVuTnqwS7KCREI7AeTUmBvZUVroqIgJmpqa7l85078cWuXZjs7a2iTFIOHSwtsTw/H9/m5yNhzBgsCQ5GXUuLPi97eS4tDSsLC/liniQBCqyTBMXHSIAESIAESIAEzgoBCqyzgp2TkgAJkAAJGBuBkxVYjlZWuGXaNEzy8sLdiYmwNjfHw3Pm4KX0dOw9fFilj8inv86cqVLoX9u2qfCqam7GYykpqGtrg4zxzLx5+rWIKZE98ufqlhZ8kpeHx+bORVl9Pe5dswYXhoRgcWAg7luzBiV1dfB2ckJFQ4PWo7pv1ix8kJODLRUVmDVqlMovWcORJgLr/QsvxPq9e5Fz8CBm+/ujvacHb23dqmPG+PnhoeRkNHZ04PkFC1RevbhpE95YuhSZ+/er0FoQFIRfh4aq9Bo9bJgKrNe2bsWF48ahs7cXr6anq5yaHxiIh9etQ9nhwxhmY4MDjY24KjISc8eMwe2rVmHOqFG4PDwc13/7LcobG/HWsmVI27cPT6SkoL2729het1PaLwXWKWFjJxIgARIgARIggQEiQIE1QKA5DQmQAAmQgHETOFZgSfSUl4ODihtXOzuU1tXh0x07NEJKWpy/Px6aMwfvZGVpNNSY4cNVTnnY22NeQIAKqigvLxTX1WlU0nXR0XhjyxYdQ5rUpHpm/nyNxjqRwLpn5kwkFhXhtS1bcM7Ysbg6MhLPb9yIvKoqHT/UzU3niBk5UseVKK4TNRFY//n1r7GnpkYjxHydnFSqrS4q0jElgkvEWFtXFx6YPRuBLi4qsB6cPRvPb9qEpKIi5fDy4sUaSSWRZSKw/pOXhz9FR6OtsxO7a2rg6eCAsSNG4N6kJOysqdFILVlfsBR9d3LCNV9/jdiRIzF79GjcunIl6tva8NDs2Rqx9nBysso9tl8mQIH1y4z4BAmQAAmQAAmQwNkjQIF19thzZhIgARIgASMicHwEloOVlUY5SQqdiKZdVVVo7epSIpJ297cFC1Df3g6RRJIGl1tZiZtjYjQ9sOjQIZwXHIzOnh58lJurEVj/zsnBB7m5mq7nZG2NZ+fPV5EjAsvK3ByvnHMOCmprNQLrRAJLZJasZ/rIkZrOJ0XYr508GZ9s345/ZGZqFNeHBLDiAAAgAElEQVSRQu1Hju3YFMLvCgq0/1MJCSrHwj090djejrsSE3Vfj8XHw8PBAU+vX4/nFizAKxkZmjoo0uvFRYvw5a5dGm0mAuvD7dtxRUSESjGRYS2dnSrBenp78ceoKP36mz17MM3XV6OzbvjuOwqsM/CzRIF1BiByCBIgARIgARIggX4jQIHVb2g5MAmQAAmQAAn8P4GTTSGUHhKJ9PtJkzQlTsTRLStXYoStLe6cMQPvZWer2JIb+6qbmzWS6bfh4RhuY4N3t21DTWsrDre2ai2qcA8PvJ2ZCX9nZxVCIpYkSutEAkvS+aSWVri7O976IfJL5v93djayDhzQSC2RX9sPHjy6KRFY755/Pr7as0eLtk/z8cHCoCCN7HK2ssLS4GCtXdXS1YVro6J0flnjEwkJaO3o0H4z/Pw0uurlzZsx0cNDBZakS84eNUrlltQBO9jUhKaODthbWmpk1a6aGiSXlGDp2LGY4uODP37zDQXWGfhho8A6AxA5BAmQAAmQAAmQQL8RoMDqN7QcmARIgARIgAROTWBJr+ARI/DnqVM1Je/BtWsxws4Ot8XEaBFz+Wx/YyMKa2vxdlYWhllb4/7ZszFq2DDUtLTgza1bsb+hQfuLHJLn82trsbOqCimlpSrHMioq8MXOnRpxJaLpP9u3awTUTdOmwdvRUceRSK+0sjKNfDonKAgf5+Vp2t+R5mZnp9FTEjEmraO7Gx9t367zS5PC8peGhWmxeKmTJUXnZd2SonhLTIzuUepjyeerCgq0CLsIKZFuEnUlhecjPT1hamqK7MpKvJqRoXW2pAA8entRcOiQzvn39HSEubsjwstLRZjILqmPJdFo72zbpsXs2X6ZAAXWLzPiEyRAAiRAAiRAAmePAAXW2WPPmUmABEiABIyIQF8isASL1MmSSCyRMF09PZB/sI/cPijf75Vfvb2a6ocfnpVnpMnz0uQGQxlHn+/t1ZpQIqPkc+3b26sRXvJn+VqazHGkaZ8fPheJJHMd+bOuUZ43M9PfjzQZR9ck85ua6tjSpJ98LrPo3o5Zm6z3yLrke0f6/2i/wuGHtcuajzAQkSWfy2fy6bFzyzNH5jSiV+2Ut0qBdcro2JEESIAESIAESGAACFBgDQBkTkECJEACJEACfRVYJEYCA02AAmugiXM+EiABEiABEiCBvhCgwOoLLT5LAiRAAiRAAqdIgALrFMGx24ARoMAaMNSciARIgARIgARI4BQIUGCdAjR2IQESIAESIIG+Evj3V1/hpQMH+tqNz5PAgBCQOmG2Fhb4evFihIaGorm5eUDm5SQkQAIkQAIkQAIkcLIEKLBOlhSfIwESIAESIIHTIPDFypXYaW19GiOwKwn0H4G8qioU19Xh43nzKLD6DzNHJgESIAESIAESOA0CFFinAY9dSYAESIAESOBkCTCF8GRJ8bmzRYAphGeLPOclARIgARIgARI4GQIUWCdDic+QAAmQAAmQwGkSoMA6TYDs3u8EKLD6HTEnIAESIAESIAESOA0CFFinAY9dSYAESIAESOBkCVBgnSwpPne2CFBgnS3ynJcESIAESIAESOBkCFBgnQwlPkMCJEACJEACp0lgqAssUxMTeDs66q8DjY3wdXTE3vp6lDc0oLe39zTpsftAEKDAGgjKnIMESIAESIAESOBUCVBgnSo59iMBEiABEiCBPhAY6gLLxsICd82YgeE2NngrKws3TJmCivp6PLF+Pdq6uvpAio+eLQIUWGeLPOclARIgARIgARI4GQIUWCdDic+QAAmQAAmQwGkSOBWB5WxtjSsjIxHu4YHXMzKwcd8+XYWbnR1+P2kSIjw98cKmTcioqEBPP0U5hbi54dehoXhz61aNpjpRk+irKC8vPDVvHt7KzMR/8vJwaVgYzhs3Do+mpCBz//7TpMfuA0GAAmsgKHMOEiABEiABEiCBUyVAgXWq5NiPBEiABEiABPpA4KcElq2FBVxsbVHd3Pw/kUoiqh6eMwdzAwLwdmYmXklPR2NHB2aPGoWHZs+Gh4MDblq+HGuLi+Hp4AARXtJaOjtRevgwLM3M4OvkBGszM0gSX21LC/Y3NsLBykpT/MxNTdHV04N99fVo7uxEwPDhsDY3R3dvrz7X3tWF88ePxzVRUXhq/XpsO3AA9e3tGOnkBAtTU5VmFY2NqGttxWXh4bh4wgT8ZdUqbK+qwlgXFzw6dy5WFxaq/GIb/AQosAb/GXGFJEACJEACJGDMBCiwjPn0uXcSIAESIIEBI/BTAivSywtXRUbi5c2bsbO6+kfrEYF1/6xZmO7nh6JDh/DX1atVGF0XHa3RTU5WVrgzMRHbDx7EHbGxGgUlAkqk1M0rVsDH0RG3xsSgu6cH7d3dWFVQgHe3bcPFYWG4IiICDe3tONTSglczMtDR3Y0nEhJgCsDawgJf7tqFDWVl2n+ary/yDh7E5zt3IruyEnfPnKkSzNHaGu9nZ2t/md/f2Rl//OYb1Le16T7+sWwZqpqbcU9S0oBx5kSnToAC69TZsScJkAAJkAAJkED/E6DA6n/GnIEESIAESIAEcKzAMjExgYedHZaNG4cwd3dEensjfd8+7KyqwoqCAi1+Lk0FVlwcXO3tNdrpvZwcZB84gEfi4+FkbQ0/Jyc8kJyMdSUl8LC3R11bG0YPG4aXFi3CN3v2qMySNMM7Vq/WiCwpph7t44O/xMbiq9278V52tkZmjXd1xYuLFmFlQYHWr5rt76/i6vHUVBVV10dH49qvv8aumhqVZhLpJVFe540fj0WBgXhqwwZcMH68znfn6tUqxqQ9npAAewsL3Lh8Od8AAyBAgWUAh8QlkgAJkAAJkIARE6DAMuLD59ZJgARIgAQGjsCPBBaA4ba2iB05EuGenpjl74/EoiIVWOnl5ahsavqRwKppbVWBJSmDa4qKsDQ4GIW1tTgnOBgPJydjS0UFFgcFIczDA3aWlojz98c/s7JUhol8sjI3x57aWny3Z48KrXPHjcNjKSlaO0uaSKin58/HXYmJ+HbPHk07/Od55+HTHTs0PfDPU6fiyi+/1DlD3d1VVg2zsdE0RBc7Ozy4di0WBQXp3JJCeERgSU0sG3NzCqyBe81OayYKrNPCx84kQAIkQAIkQAL9TIACq58Bc3gSIAESIAESEAKnnEIYF4fS+noU19XhxqlTsffwYU0nlEise2bNwnNpaRqNdcG4cXhtyxZNFbw3Lk5l1d82bYKLiCYnJ1wdFaURWFkHDqiwkuLva4qL9XBmjRqFFxYs0EgqkVYiwl5cuFBrV3X09Oi813z1FZo6OrQmV3VLC5bn52txeRnryfXrtS7X2BEjcO0332haorSXFi/WOaVOF9vgJ0CBNfjPiCskARIgARIgAWMmQIFlzKfPvZMACZAACQwYgZ8SWONcXbEsOBif5OWppDq2HUkhFIElYumFhQsx0dPz+zS9tjY8FB+PZzds0GgoiYp6fcsWlVUSdSUphCmlpVr0XWpgXRgSokXb/5WdjRuio9HQ0YF/bdumheObOzpwe2wsrMzM8NmOHRrBNcnTE3cnJcHb0VELxr+dlaURYlKvS1IcN5aV6ZwBLi64b80aLdp+SVgYbl25Um8dtLe0xKvnnKNph0+kpg4YZ0506gQosE6dHXuSAAmQAAmQAAn0PwEKrP5nzBlIgARIgARI4CcjsExNTGBhZobO7m5NEzy2iQSaFxCgaXxSUF2inaRQ+n937lRBtDAwEKuLitDU3o6LQkO1NpXcJnigqUlvHJR/5EVEibiSMVYVFqpQkmLv8wMDYWFigkNtbSrPpIj7JRMmaN0tKQK/rrQUm/btw3AbG/w6JATONjZaZF7mmurrq5FV0lfkV3JJCewsLDTi6q3MTHy0fTsWBARo1JdINamtxTb4CVBgDf4z4gpJgARIgARIwJgJUGAZ8+lz7yRAAiRAAgNG4KcisAZsAf08ka2FhRaXFyH3YW4ufjdxokZ+PbF+/dGaXv28BA5/mgQosE4TILuTAAmQAAmQAAn0KwEKrH7Fy8FJgARIgARI4HsCQ11gyX9QSCqjjYWFRmk5WlmhtasLta2tGq3FNvgJUGAN/jPiCkmABEiABEjAmAlQYBnz6XPvJEACJEACA0ZgqAusAQPJifqNAAVWv6HlwCRAAiRAAiRAAmeAAAXWGYDIIUiABEiABEjglwhQYAHeDg4IcXNDzsGDcLS0hJ2lJfKqqrTmFtvZJ0CBdfbPgCsgARIgARIgARL4aQIUWHw7SIAESIAESGAACAxVgSUSavaoUVoEPrm4GJ0/I6NumjoV540fj6u++gqRnp56i+HjqanYXlWl9bLORpNbFucHBGBrRQVyDx48G0sYNHOejMCys7PDpEmTUFNTg927dw+atXMhJEACJEACJEACQ58ABdbQP2PukARIgARIYBAQGCiB5W5vj1tiYvDZjh3YduAA5o4ejT9FR8PG3FxvOZS6VK+kp2NdSQm6j6tNNXrYMCwbNw5f7dqF4rq6k6LmameHO6ZPR0tnJ57asAGtnZ0n7Dd2xAjcFxeHrAMH8Pf0dAQMH46n5s3Tdby2ZYv2P1H764wZugeJ0pL1Sv8nUlNP+LyItKARI/D5zp2obm4+qfXLLY0Px8fjX1lZ+GznzpPqM1Qf+jmBZWpqCm9vb1x22WVwcHDAO++8g8LCwqGKgvsiARIgARIgARIYhAQosAbhoXBJJEACJEACQ4/ATwksub1vhK0tqpqb0dbV9T8btzQzQ6CLC6zMzdHS0QEph36wqQn17e3wdXTEcFtbyD/mNS0tqG9rw7yAANwTF4c3t25FUlERZvj744boaLy0eTNyKitVAu1vaNBxfBwdYW5qqnLoUEsLpvj64g+TJuG9nBxsqahAbUsLJELJ2txcI6RkjfsbG2FlZoaRzs5aqN3OwgIXT5ig3xOBJeONdHLSPjKuPC8yaVlwMH4dGqq3Eu6oqoLs+/5Zs+Dr5ITbVq6Ehamp7nHv4cNo7+4+yuHVc87BCDs7PJeWhvauLjR2dGBffT087O31c9m7fN7V24urIiLgKXIlKwu5lZU6ngg2ExMTfUbGbu7ogLO1te5L2Po5O+PqqCi8k5mJz3ft0v5uP/QRqSZ9fkrKDbW39EQCS9gNGzYM0dHRuOCCC7Bt2zYsX74cFRUV6PwJ6TjUuHA/JEACJEACJEACg4MABdbgOAeuggRIgARIYIgT+CmBFenlhasiI/Hy5s3YWV39IwoiWKb7+eGJuXP1Jr+mzk44WVnh0ZQUFUx/W7BA5ZbIJen7fk4O/jR5MhYGBaGgthbf7NmDQ62t+FVICO5YtQppZWU6voinKyMjcXl4uAqhhvZ2rCoo0FTAWaNGoejQIawpLkZScTFunDIFLnZ2cLC0RMrevbg3KQkSTfXInDlwsbVVkSYSa3VhIZ5JS8PioCDcPG2aRnuJQPp2zx78beNGXBsVpfWvfvf557oGEVYijkRqPZaSgoSAAN3LTcuXqzQ60v6+eDEk+ufWFStU8Ml/uIh8enjOHEj0lKz/QGMjdldX47KJE1WcSeSZSKxgV1csCgw8uud7kpJ0TyLphLmIqbbubuXxzIYNWL93r0q1qT4+aOro0HnvS0rC2pKSIf52fr+94wWW7N/f3x/nnXceAgIC8MEHHyAjIwMdHR1GwYObJAESIAESIAESGFwEKLAG13lwNSRAAiRAAkOUwLECS6JaJILo3HHjMMHdHVFeXkgvL9fIpBUFBUcFjnzv5cWLsSI/X4XMhSEhuC46Go+lpmpk0eLAQNyfnIyenh48O38+3s3O1qinu2fOxO2rVmFtcTEuCg3ViKzU0lKU1ddrVJWIrL/Exqq4eig5WT8T4TQ/MBA3Tp2qkiq7slKLrEt0WGVTk859RUSERkLF+fvr53cnJWkE1YOzZyNz/378IzMTT86dqzWtRMjJcyKzXty8GRGenrrnP37zjZ6wmakplo4dq+mOdyUmakqgCLFN+/ZplNSR9ubSpZjo6alc2jo7sXX/fhxua8Oj8fH4evdu/Cs7W6OrhtvY6D5F+j25fj0qGhu1aHxzZyc6u7uVo+zjvzt24JH4eKTu3YtX09OxJDgYUpvrpfR0mJqYaKTYUz9EiUmKo0iuR1JSlNFQb8cKLDMzM8TFxWH27NkabfXf//4XZWVl+q6xkQAJkAAJkAAJkMDZIECBdTaoc04SIAESIAGjI/AjgQVo6t/0kSMR7uGhUU9JhYXYUV2tIktSBKVJ9NDT8+fjr4mJWJ6fr5FBjyck4MPcXBVfs/z9sbm8XMWLRCN9vH27phLeNn06blmxQgXWJWFhkDpSUheqoKZGpdWm8nJM9vbGJRMmqPwRKfTutm2Y6e+vAuvuxES9KXCsi4sWXZe6Wn5OTpAaWa9v2aJpilLw/IG1azXlToSZSCWJwrp9+nS8nZmJr/fswahhw/DCokUa3SXCS5790w8CS1INRRbdMm0a7kxMPBoddvyL8cbSpVovS/YsEVi7ampQWFuL306cqIJM9ivzZu3frzJMBJbUyBLhJMXZJYVSPov28UHewYPKRPb49IYN+HL3bkgEnMgwEVsSAeZkbY0Hk5M17fH3kyYhfswYPJmaqlFdQ72JwFp97rkacbVo0SLY29sjKSkJW7duRX19/VDfPvdHAiRAAiRAAiQwyAlQYA3yA+LySIAESIAEhgaBU0khFLH1woIFWltKCozP9vfHQ/HxWt9KpE6YRGht3qzRRpJiWN3SolJH0utuXblSa2CJwJK0wmNTCEV42VhYaNSSpANeExmJ3Koq5B44gOumTNEILEkjlMgqJxsbnU9uDbw0LAxvZWZizujRmrYnYk3qaEnandS6+mj79u9l0M6dKpzGubriufnz8XFengoskXV/+OILjRITgXVpeDj+GBWF21euxLbKSv1Moq8kGuxIOz6FUD63MDPTGloS0SWph/PGjNGi9RLlJSmET6elaX0wiTKTKC2JJvvz1KlaQ2xVYaEKvje3bMEHubmYNnKkpkPK1zKeSBwRWOUNDbg5JgbjJV0yJUVTMod6k71vveIKrFy5Ugu0f/vttxp11d7ejoaGBv39SLO0tISzszPMzc2PftbW1qaiq/uYGma2trZwdHTUdMwjrampScc70iQiUQrDyw2H8rU0ifRqaWnRdEUZl40ESIAESIAESIAEKLD4DpAACZAACZDAABD4KYElkmdpcDA+yctDyXE3/0nk0wOzZ2uNqf9s345YPz9NO5TUPYlGujM2VsVWZkWFFj4X6TTV1xcvLlqEd7OyNMJI+kgR91cyMrSwuRRxb2pv14gtuWlQhIHUp9pdU6NRRnfOmKHiS1IOL584UaOX/p2TgwvGjdMIrXvXrIGXo6NGT0nUloiwqyMj9XlJw5MbCUVWSZ+5o0YhxN1dhZAIN4n4ejw1VaOltK7VtGmYPXq0yrVpvr76zHMbNx6NQJNjkSLubvb2eGHjRt2jCC4HKyuN5hKJFurmpqmPEkElUWmyL5FsIumkztdXu3ejoa1NBZbUCXstI0O/lhpcEk02xcdHI60k7VBSLEVuyf63V1bi7rg4Td+UFMhjpdoAvC5nZQoRWNv/9CccOHBA3wuRV1Kovbi4GK+88ooWcD/Sxo0bhzvuuENrZB1p6enpePHFF1FZWakfyRknJCTgqquugouLy9HnPv30U7z22mtH/ywy7PLLL8f5558Pa2tr/fzw4cNIS0vTNXz22WcqaNlIgARIgARIgASMmwAFlnGfP3dPAiRAAiQwQAR+SmCJaJGIIqnTdLwkEYkgN+KJSJLi7cNsbDTlTSSQpOVJKp/UhxIZI0XHP92xQ1P55FZALwcHTZmTqCxJNTQzMVF5JRIobe9eBLi46G2B0uRWPxFO9paWWoRdRJLIrcrGRhViUq/qcGur1qlKKS1FbWsrzg0O1vpXItJau7qQV1WF5OJijciSIvISzdTR1YX1ZWVYX1qqhdcfmztXUw9f3LRJ611JdFbJ4cN4NSND0yPlVsFP8/K08PyRJtJL9ihjSfUlkXQi2iTqStL9ZG2SdplYWKgpgCIDO3p6sHnfPgSPGKG3DEqapESICRspTi+pkBK5ZWdurkXgJSJMPpdC8CLpRKZJNJjsU1IvhY8xNBFYab/5DV566SV4eHggJycHycnJKrRaW1t/FFklckpk07GRVV1dXRqldaxskggtKyuro5FVwlGiqo4vBC8Sy8LC4uhzMsb06dOxYMEC3HbbbRRYxvACco8kQAIkQAIk8AsEKLD4ipAACZAACZDAABD4KYH1c1OLwLIyM1OZIpFQEikkRdml6HmyAd6Md0dsrKY4SsSVpC5KUfhH1q1TISUSie3sEjhSxH3q1KkYO3YsZsyYoWmCklIotw9K6t9ARkLFx8dj6dKluPnmmwd03rN7CpydBEiABEiABEjgpwhQYPHdIAESIAESIIEBIHAqAktqVN0WE6OF1CVKy9LUFK9t3YrXMzI0msjQmqO1NYZbW6OquVmFnNxyKGmAxpCeZwhndewthFJ/SupShYaG4uqrr0ZzczMeffTRo+mBA7EfCqyBoMw5SIAESIAESMBwCFBgGc5ZcaUkQAIkQAIGTOBUBJakx0k9KUdJwQI0BVBu16s/Lk3LgLFw6YOIwLECS4SVNEnr8/Pz02iskJAQ5OXlITU1Ffv27dP6WP3ZJIVQamg99NBDjMDqT9AcmwRIgARIgAQMhAAFloEcFJdJAiRAAiRg2ARORWAZ9o65ekMjcCKBdWQPZmZmKrAuuOACvSHwww8/REFBQb9u0d3dHd7e3sjKyurXeTg4CZAACZAACZCAYRCgwDKMc+IqSYAESIAEDJyAMQosKTovRdVL6+q0+PtgaOEeHpjk5YVvdu/WaDa2/yfwcwLryFO2trYqsmpqalBigHXYeN4kQAIkQAIkQAKGS4ACy3DPjisnARIgARIwIAL9JbDkH3JJNeyVFMOeHk01lHpZUgD+SJOImc4TFEmXJ6RAvKQm9qUOld5+6OGBpzds+NkTOGfsWNwQHY0XNm/WWwJlnceuSwq3y5qPb0f2JGvqy7riR49GlJcX3svJ0VsHT9TkFscnEhLwYW4uPsjJOSGXU3mtfhUSghhfX9yXnIym9vajQ3g7OODa6Gisys9H2r59pzL0gPU5GYE1YIvhRCRAAiRAAiRAAiRwHAEKLL4SRkkgODgY9vb2Rrl3brr/CUjx4927d2uaDRsJHCHQXwJLopx+ExaGmpYWfLx9OzwdHPD8ggWwsrBATXOzyqlNZWX4T14e2rq6fnQgI52dcd3kyVhdVIS1xcUnfVi/nTgRcX5+uOqrr362z5MJCbC1sMDdSUmY5OmJ66KjYWpigsaODrR2duKLXbuQWlr6PzcQejk46A2FKwoKkLl//0mv69IJE5AwZgweSUlBcV3dCfvZW1ri6XnzID+d9yUloe4MFcO/NCwMM/z8cOfq1Wg4RmCNGT5c5/vXtm34Zs8eFY2DtVFgDdaT4bpIgARIgARIgASEAAUW3wOjI2BqaorEtYlw8nMyur1zwwNDoL2qHQmzEyAii40ETkVgOVhaInDECIhskX+oq1taUFJXBycrK4gQkaip+rY27K6pUTF0x/TpqGhsxPs5OWjq6MBby5bh3exsvLFly9EDkDGlr5O1tRbEbunsRICLC26aNg3f7dmD7/LzUd7QoAJs2A/PyG2BxYcPo6OrC6OGDYOvo6MKmKk+Pgh2dcWVX34JK3NzjB42DK62tjqX9Ck5fBhWZmZ4cdEibCwrwz8yMyHRWFdHRuL5TZuwfu/eo5FX0j/UzU33Kk1uV/R1csIt06ap8BGxtqumRp+RYvay9oPNzSg8dEijswKHD4e7vb1+Ps3XF+Pd3PDIunXY19BwtI88t6++Xn9JBNjvJk7U1MaH163T9MYxLi76PbkRUZoUzvd2dNTviYxytrFRdvJMW2cnxrm56f7au7v1GVmPu50dXO3ssKu6Wtc5dsQIvWlR+v5h0iS8k5lJgdXHvw6sra0hKYuHDh3qY08+TgIkQAIkQAIkMBQJUGANxVPlnn6WgAis9754Dy9se4GkSKBfCNw+5Xb84YI/UGD1C13DHfRkI7BE6Jw3bhwuCw9XGXKotRX5NTX69VWRkSpSRDSNdHLC+7m5KrVumDJF5YpIKIlYemHhwh8JLEkpvGD8eEiU0M7qahxubdWILRFFInPSysqQWFSE3IMHMT8gAPYWFnD/QWQ9m5amYz88Z47Kr4LaWkz09ERjezsu+fRTzBszBldFRanIEaETMHw4XsvIQHNnJ+6IjcW7WVn4Nj//hAJLRNyy4GBcNnEi9lRXa2TW3sOH4eXoqLJLorPWFBdjeX6+ijYbc3P4OTurIJKoLoniem7BApVMwkQEVkVDAx5PTcV4V1dIpJiw87C3V3Eln++sqkL8mDH485QpeH3LFjR0dOCBWbPwt40bdR5pcf7+uC8uThl+umMHzgkKwo1Tp0JYiJiaM3q0cpaIJbkR8uHkZMwdM0YZX/v117gsLAzzAgOxed8+BLq4wN/ZGY+lpFBg9fHHNyIiAjExMXjllVd4C2Ef2fFxEiABEiABEhiKBCiwhuKpck+/KLD+/fm/8VzmcyRFAv1C4M6YO3HFBVdQYPULXcMd9HiBJfLGztISZiYmmkInkVMSKSSy6bfh4SqwRKps2LtXZdCcUaNwb1wc3s7KQm5lJa6bMkXl1UubN+PmadM0qunFTZsgaYFfXHwxDrW1Ia+qStMGk4qKEOburnLq/rVrNXKruaNDazY9NneujiGiRtL9PBwcVAxJxJVInM937VJZJWmKsp4tFRV4aM4cjca64ssv8cicOXCwtsb9a9ago7sbz8yfr1FY8pwIM1mTFHCXCKy7Z87U2lTyq6qpCR9t3w6pHSURXS+lp6sUkvpRIe7ueG7+fBVOySUlykSEnYwvNa7uiYvD8xs36oH8wq8AACAASURBVMsgUu+viYka9SXrlUgwEVN/mTFDBZJEfImoe+Wcc/BRbi7eyszUyKx7Z83C5zt3YnVhocquHdXVqGtt1TElkkr2ZWlujsdTUvD7SZP0M3n2mqgofLZzJ/6dnY1FgYH63J2JiRoFJnu5Y9UqPDB7tkrB17ZsUaklgvHJ1FQKrD7++MbHx2Pp0qW4+eabKbD6yI6PkwAJkAAJkMBQJECBNRRPlXuiwOI7cFYJUGCdVfyDdvJjBZZEA0mk0l9iY1Wu5B08qNE9lU1Nun6JdJLi53GjRqG9qwt/T09XgSPiRtLVRD45W1trnScRRMcLrE8uuggrCgvxaV6e1sCqbm7WVMRLwsI0mkhEzZtbt+pcIqNEYImUkTVdGxWFMA8PTX+TWlQyvtTZGufqiptWrNC6WiKNRH7dvmqVpgkW1dXhb2lpKuD+OmOGphR+uXu3Ch2JxlpbUqIC6/roaK3FJaJKxJpETbnY2ODKiAjdq6zroeRkmJia4tl581RgifzycXRUVrIGW0tL+Dg44JkNG+Boba2ficCS9D8RTbEjR6poEoElz3yQm6vpiW+fey5yDh5UkSSF3IWl1AyTX8c3kYsi7K6MjFTJJvJQorOk4LzM8WhqqqY2Bo8YgX9fcIGylL3/OjRUWYrkejMzU1MzJ7i747H4eBVnrIHVtx9PCqy+8eLTJEACJEACJDDUCVBgDfUT5v7+h4CkEDICiy9GfxKgwOpPuoY79vERWFLMXOooyd9JIkYk/U7qOMlNfRIJJZ+JyLo6KgqTPDyQUVGBBYGBGnm0rqREb8+TZ6RmlaTRpe/bh+c2btTaTR//6lc/SiGUuWRMaSJa7oyNxWQfH3yxc6cKGRFkX+3erVJHUuTuW7MG1hJ9NHeuShcRZhJJ9OT69RpZdeQ5SZd7PCEBpgAeTE7WSDIp3C71taSfpN19kpenEulENbBE5EltLqmrJWt8Yu5cjUqTCKpH4+N1PyK7JHJLRNfj69djpKMjHktIUFEkvCRa7faVK1HW0KC1wPyHDVOhdH9cnBaBfzk9HW52dnjnvPM0muz1jAyVXJremJ2NFfn5ylAEmKxbmqxLorKE65HC93clJuo4EgX37rZtKuLkNkYp0H5PUhJcbG2PRmCJFFxVWIh3srKwKCgIt02fjuc2bKDA6uOPLwVWH4HxcRIgARIgARIY4gQosIb4AXN7/0uAAotvRX8ToMDqb8KGOf7J1sBysLLSKCkRMdIkykdS7r7evVtrY0kk1rbKShUrkkpYevgwbp8+XZ+TlDgRXa8tWaLRWZvLy/U2TPla0g2laLvUbJro4aEpfCJ47poxA5XNzUgsLISPkxNm+ftrPxFGUutKUuVExjw8e7am8klaotSakjTDiz/9FAsDAzXdseDQIXR2dyPc3R1vbN2K7MpKPDNvHvbU1OCx1FQVWBJFJdFmsh7pL3Iq1N1dpZukSYpYEkEmYu2R+HiVdCLrJIJKbheUdXk7OGCqr69GV23dv19TDQ80NWFvfT1m+vnpvkR0yR5lzoKaGq2pJXWzJKIrp7JSI6sSRo/WdMphtrYqyF7atEn3eaRJvS2puyX1rER8PbVhA6zNzFQoSgSXnEGIq6tGuEn6pNTFujAkBNd8+SV+HxGhNxJKWqfUyZKC94+uW0eB1ccf3aioKMyYMQMvvPACUwj7yI6PkwAJkAAJkMBQJECBNRRPlXv6WQLGILBMTUxhaW6Jru4udPV0nbE3wgQmMDMzg6WZREz0or2zHT29chk927EEKLD4PpyIwMkKLEndC/fw0NsFJZVN6j6JxJE0PUmdE1EiUUoiTnZUVWF7ZaXWq4r28VEJtKmsDNHe3hj+w62AEnFVfOiQRheFuLlphJfU29q0b5+m8IlokcLotS0tWqBd5hbZI2MdamlR2STzTPHx0TVJdJIUgJdbECVVT0SPRHNJKp/8R4XcDihjS9TWXTNnqtCSVEPZS8zIkZr6KE32JQJLhJ3IN/m+rFFqXknKo0giWa+kVW47cEDFmuxbbikU+SU1qwpra1VaBY0YoXM3dXbiYFMTMsrLdfz40aN1bxKpJmPILxFWEjVV29yMe9eu1dsDp48cqcJN9nmkSUSYpFTKOqS4/ZHvSaSVyLThNja6XpFqUiheItekwL4Uw5ei8bNGjYKdhYVybGhr07lFNg7mJrJt1bJlCA0NRXNz81lfqqOjI5ydnVFWVnbW18IFkAAJkAAJkAAJnH0CFFhn/wy4ggEmMNQFlsirMW5jcEXcFViRswKpe1LPGGFrC2vMCp6F38X+DnUtdXjy2ydRVsv/sTgeMAXWGXvlhtRAJyuwhtKmRV7JjYgf5+VpWp+kCp7ttmzcONw/a5YWZ5e0SUl7ZPuewGATWDwXEiABEiABEiABEjiWAAUW3wejI2AMAmus51icG3kuVuasxLaybSc8Y5FcF0y+AB9v/vikJZSfix/uXnI3tpZsxbc536KmsQad3d/XjGH7fwIUWHwbTkTAGAWWpBxK3SiJxpLIqcHQJB1Roqck4kyio9j+nwAFFt8GEiABEiABEiCBwUyAAmswnw7X1i8EjEFgBboHwtrSGkVVRfAZ5gMzUzOMcBgBic4qPFgICzML/Cr6V4jwj8AHmz7ApoJNmnIY5BGkz+w/vB8FBwswxnUM7KzsYG9tj+6eboR4h2BZxDJ8ve1rfL7186N9pJByY1sjmtqbUFpdqnOH+4ZDIrbqW+uxo3yHjhHsGQxzM3Psr9uPPZV7dMyh2CiwhuKpnv6ejFFgnT41jjCQBCiwBpI25yIBEiABEiABEugrAQqsvhLj8wZPYKgJLA8nDxVRIo7GuI9BYWWhRl+JpPok4xNN93N3ckd+ZT5c7FxQ1VCFjYUbcfn0y1UmSSRVdUM14sfH65+lbpaNpQ2eX/U8ro+/XtMRt5Zu1XHjguNUcn225TMUVxdjXug8FVwH6w+q3Npevh1fZn6JxRMXY7TraGSXZePA4QPYuX8nLp16qY4vcsvO0k4l2JG+ro6uSC9KR21TrcG/X7IBCqwhcYxnfBOGKrCkZtb548bp7YVSNF1qcK0tLsbeQV7P6YwfoBEMONgElouLC9zc3LBr1y4joM8tkgAJkAAJkAAJ/BIBCqxfIsTvDzkCQ0lgjXYbjStnXonWzlaYm5ij4nCF1ry6ZtY12HNgj6b6XTHzCuQfzMeq3FWYP2E+XOxd8En6J7g05lIUHSzCexvfw/lR5yMmIAZvpbyFOSFz4O3sjQ82fqB1tERAvbrmVTS0NuDPCX+Gv4s/HvjyASwOX4yEkAQ89s1jcLJxwp/i/4S0/DSNqooNjMVbqW+pwJIorCWTliBiZAQ+2vwREkITNBpMBJZ8nVmSicmjJiOtMA2rtq8aEjdNUWANub82zsiGDFVgSVH3vy1YgE937MCK/HzcOWMGDjY349WMDC22frrN2twcl4aFYbyrK/62caPeuHhs+/OUKTjU2or/5OWxXtXpwv6F/oNNYE2fPh0JCQl46KGHhsS/Df18fByeBEiABEiABIY8AQqsIX/E3ODxBIaKwLIyt1IxNHXMVFTWV2pk1MuJL+t2r597PVbkrkBjayPOizwPbyS/gZqmGlw7+1rUNdep2JK+Ei21t3avfi4RVJLW19TWhORdyZpKePHUi/Ft9rdI2pGk6YK3L7wdLR0t+DTjUxVjPT09eGH1C5jkNwmXTL1E55kfOl+ffWbFM+jo6oCrgyvuOucueDp7avpiW2cbPtz8ofb9TcxvNL1RfrV2tOLtlLd1nYbeKLAM/QT7Z/2GKLDkZsDLJ07E0uBg3J2YiPzaWvwmLAwXhoTg/rVr9Wa9020isH43cSJC3d3x5Pr1qGho+NGQIs9EmD2/caPeLMjWfwQGm8CKj4/H0qVLcfPNN1Ng9d+xc2QSIAESIAESMBgCFFgGc1Rc6JkiMFQElvAI9QnFVXFXIXtvNiaPnqwpgzYWNiqtXk56WT8b5zkOz618DpZmlrh1wa1Yt3ud/o/A9KDpeHHVi4r16rirUd9Wj9fXvg65JszC3ALnRpyLEJ8Q/D3p7yg/VK6CTNIOU/akaHSXzCuphyKjLou5TJ999KtHcVH0RbC1tMXTy59WWeXm6Ia/LPqL1tR6d/27MDEx0RRCSUecFjBN5dtw++H4IvMLFWtDoVFgDYVTPPN7+CmB5WBpCU8HBxU3JyoqbmVuDomCsrWw0AikkkOH0NbVhTEuLvpZZ3c3SuvqUNHYCA97e7jb28PSzEy/J+M1trfD3c5Of/Yqm5pQXFenm/NzcoK3o6N+Xl5fj8JDh7S4uZeDw9H+7T09+NX48Wjv7saLmzahpqUF00eOxBMJCXhj61asLCjAKGdn7KuvV8kkTfbj5+ysz1Y1N0PWHzh8OBra29He1YUAFxdIWqKMWVRbq8XUZf/O1tYoOnRIxwhxc4O9lRXaOjtxZWSkro0C68y/k8ePSIHV/4w5AwmQAAmQAAmQwKkToMA6dXbsaaAEhpLAsrWy1Qis5vZmFVSHWw6rSIoeFY1nlj+jEVQONg54efXLCHAPwO9jf493097FcNvhWidL6k5llGRowXVJB9y2dxtgAuSU5ei4UkfrSCTVvAnzsCB0Ad5OfRvldeW4POZyhI8M1/pWEr0lkV0yZ9jIMFw27TL9XNIPpX6W1MNaOnGppjJ293ZrPa32rnbt4+bkhvwD+Vpwvqd3aFxnT4FloH859POyf0pgRXp54Q8REXg1PR07q6t/tApHKyuNeFoYFIS8gwdR29qKjPJyTPP1RZy/v0ZABbq46OcSvTTTzw/XRkWhqK4OTe3tmODhgdrmZuRVVWGCu7sKsNtWrYKnvT1umz4dTR0dMDMxUaH0zIYNKpL+OmOGpuxtqahQ4TXL3x9pZWX4MDdXn5dUvxcWLcLqwkIkFRfjwVmzVGatKCjQtYsEuWfmTBVlL6enqyR7et48fJufD28HB0z19cW6khKMc3VFWX09nkpNxaXh4ZgzahRuX7UKEz09cfPUqcg8cEAlnMi7L3btosDq5/fzyNmtWrYMoaGhaD4D6aGnu2RGYJ0uQfYnARIgARIggaFFgAJraJ0nd3MSBIaSwDrRdke5joKTrZNGScktghJtJeJICqX7DvfVYu4iu4K9glVQ5ZVLXZkulVAixDq7OvUZZ1tnLei++8Bu9KIXv435LcZ6jsUT3z6B5rZm+Lr4YqzHWF2CiDOJtpJ5zE3NEeEXAXsbe00hlBsIpX6W1LmS8aVGlowpUV1DRVgdfw7GLLDMJPLH1hZtbW3o7Ow8iZ9IQPrMnj0bI0eOxPvvv4+Ojo6T6mdoDx0rsCTqycfREZeFh2OCm5umz+VUVmJnVZXWmpKII2mTvb3x8uLFeC87G29nZWnkla+TE55fuBCppaV4fcsWlVn3z5qlX9tYWOC34eF4Ji1N5dCDs2eryLp15UrEjx6N66KjVRIljBmDBYGBeDg5GeZmZrgjNlaF1daKCtw+fTr+np6Oz3fu1EgoEVrf5efrn1s6O1VISVpfdmUlXti4UcVYyeHDR+thiXS6IiICS8aOxZ2rV6uAkpTD7woKMH/MGJVRH+XmYklwMG6YMgWPrFuHSZ6eKuRkbTdPm6Z7l5TFoBEj8MCsWVhfVkaBNQAv/GCLwAoJCUFERIT+vSD/lrGRAAmQAAmQAAkYNwEKLOM+f6Pc/VAXWGf6UOXmQBFfUhhe6mVpmiHbzxIwZoEVGBiIG2+8ER9//DE2bdqktc5+qZmbm+Oaa65BeHi41rppbW39pS4G+f3jI7Ck9pPIIJE3Ing+yMnRCKwDjY0qiqSJBJJ0vb+sXo3l+fkwNTFBzMiRuGP6dI16ks9GDRumQiuxqEjTBc8bNw73rVmj6YP3xsXpeI+lpmKqjw/+EhuLe5KSNOLr/PHjNWWvu6cHjtbWmg6YXl6OP06erPJIBNV4NzfcGRuLNcXF+GzHDl2Xv7MzXly0CBkVFXgsJeWEZxHr54en5s3DJ3l5CHF1VfG2p6YGCQEBKs1E1kV4eeHxuXPx31274GhpidiRI/Hsxo24Pjoam/btwwubNqmQe3b+fJVxTCHs/9d+sAksCwsLWFlZoampqf83zxlIgARIgARIgAQGPQEKrEF/RFzgmSZAgdU3oiKvpN6VlYWVyqvSmtK+DWCETw81gSWCydvbG+7u7t/XUaqsxN69e+Hg4AA/Pz/Y2dlpdISkHE2cOFEl1HvvvYfVq1fj4MGD2vfIM9XV1SgvL0d3dzd8fX3h5uamEVhz5syBv78/brrpJsjP6KhRo7SPCLCKigrs37/f4N+kn0shvCoyEi9v3vw/KYQSXSURWHLj33s5OVrvSiKwRCBJyt4/s7JUgIkIemfbNliYmp6UwJoXEIAZfn64OykJBbW1ylbSCyWN78Zp044KLBEaIsEkBfHNrVtxuK1NUxZl/pTSUr01UCLJpN6VyLMjTVIRn5k/HyLphllba19Jc5SIq39nZ+Pr3bs1AuzWmBg8vWGDpiVKBNZtK1fi9thYNHd04N6kJJVzj8THqyyjwOr/H4HBJrD6f8ecgQRIgARIgARIwJAIUGAZ0mlxrWeEAAVW3zDKbYRS1N0EJpoSOFTT/vpG5eefHmoCKyoqSqVUV1eXyiZJDXzppZcwYcIEnHfeeSguLkZDQ4OKraCgIFx88cVYu3YtVq5cid27d+OCCy6ApaUlXF1dITLs6aefRktLCx599FEVVCK5xo8fD5FbEr21ePFiXHTRRSgpKYGjo6OKseeee07nMeT2UwJLBFC0j4/WmTp4XKSJyJ/fR0RoHSqpCVXd3Iy0vXsxPyAAk318sP3gQQSPGIHWzk48sX69Flg/mQgsKawukVYSUSXpilLbasPevVrY/YapU48KLCmsftO0aVqUXaK6pND8TH9/PDxnjgo3kV/3xcXhrawsrCosPHo8cnvh+ePGaZ2tkro63LJyJbq6u3Ht5Mma8ijpj1Kfq6a5WaO4LgkL0xTHW1f8H3vnAZXVtbThV+m9SBNRURFFVBS7oCjYC4lpppuYXjXR5KYX05ObZnKjaaaaHnvDjtg7KoKKDRBBEEF603+9k+CPJjbq9/HNyXKpcM7es599JPI4M3uxlE2y1HFDSooIsJ7NmmFOQoIKrDp4+VVg1QFknUIJKAEloASUgBKoMgEVWFVGpw8aKwEVWDW/c5RcluaW0t+KfbPYM8uUr8sJLGYxsTSG8oZSyNAuxmZtbS1hUVY98sgjGDFiBF566SWJ+5lnnsH27dtRXFwMyq0XX3wRiYmJUvo3ZMgQvPrqq3j55ZcRFRUFGxsbycCi4PLz88Mrr7yCL7/8Uj5+33334bnnnsPevXtFanFsSi3Os3//fkybNk2k15tvvolFixbhm2++kTmN9bqYwLrceuwtLaWU0NnGBgUlJZL5xJI8iiAvBweRV+xdxSypdm5ukrXERu+lZ86gu7e3lBJuT02V0wm7eHlJmWBOcbFkPVGcUTYx44kf57jsx7UpOVmyqnhdGxAgfaleWrlSxmF/K2ZL8fcUXxRMLDesyOTiM3zHPezspCwwo6BAhBUvNnGPaNMGdpaWspZ1yck4kp2NADc3yeSixOOzQ9q0gZudnayNc7DUkWWHZ7QP0uVel2p93tAEFv9/zR+G+HWyWqD1YSWgBJSAElACSqBKBFRgVQmbPmTMBFRg1fzutWzSEmN7jUX88XisiFuBgpK/vvE11etyAos9XZhhxLK4FStWGBQmZkhFRkbi2Wefhb29PWbOnCm9qSimsrOz5ZtJZlP98ccfmDJlCh5++GHJuEpKSpJnKJwqCywfHx+88cYb6N27t/Sy4fXCCy+gXbt2aN++vfS+ysnJwUMPPSQZXTNmzJBxKbTIxtnZGf/973+RmZmJt956S2Iw1quqAqu+19vG1VXKGBMyM6VPF3tysV8Wm8rnFBXVd3g6fw0SMDSBxYMdWE68Zs0abeJeg/usQykBJaAElIASMFYCKrCMdec07ioTMFWB1atNL4wLGYf84nzkFechMy8TC3YsQHJW8nllgW0926Jfu35YFLsIaTlpV8S5k08njAsdh4WxC7HuwDopNTTl62ICi0KoR48eCAsLk7K4P//80+DK4pj9wjjd3NxEVlEuUVINGDAA77zzDg4ePCjfSLKpMk8a5ImDLi4uIqCYQbVz507JrKLEWr9+PZ544gn5BpRZV+xpxeyt6dOnS/+ssWPHYvLkyYiPjxdpxTnfe+89yd5iA3hmXHFsyiyOxedYemisl7EKLGZoudvZSbP308XFcLO1lX5XuSUsKTbtbEtjfRcvFrehCaz+/ftj+PDhkqmppxA2tLdN16MElIASUAJK4OoJqMC6emb6hJETMFWBNSZ4DIZ1HoZPln2Cval7YdbYDF5OXqCw4kmDhSWFSM9Nx+AOgxHsGywCa33ievl45+adYWVuhYzcDCnvSTieADtLOwR4B8DSwhLezt7o4N0Bn634DIWlhfJrGwsb5JfkIzYpFrlFuUb+1lxd+BcKLL5zlDPMYmKz8tWrV+O3334TAWQM18CBA/HYY49Jqd/u3bulVPDAgQOSmUXBlJubC97DXlbbtm0TSbV27VrJoOrTpw8CAwOxatUqafhOeceMqn379omYiouLkz5Z1113nfTAovCi2KIwi4mJkYyuNm3aiDxj2aIxX8YqsIyZucZ+dQQMTWBFRERIRih78KnAurq91LuVgBJQAkpACTREAiqwGuKu6pouScBUBdZjgx9Da/fWeG/xe0g9lQoXOxfcF3YfXO1dRTIxMyszNxN3hN4BCzMLRMdHI+5YHPq37w9fN18czz4OlgqyPPCL1V9gaKehIr/iU+PB7K70nHS8v+R9XBN8DTo264h9afvQx68P/tzyJ+Zsn2NSb+WFAotyZ9y4cSKA2MuJwsaYerqwZJDlfSwDZIkhs6+2bNki8oofZ2N3foySihKKko59r5KTk6W0kFlnzNRi1tnJkyeFAxuyh4SEoGPHjiJF+dypU6ek+TvvHTRokIzBb1o3btyIrVu3Gv07pALL6LewwS9ABVaD32JdoBJQAkpACSgBoyagAsuot0+DrwoBUxRYFATv3PQOgloEIflkMjLzM7EybqVkZLGE8LuY73Cq4BRcbF3w+ODHpbxwxpoZGNJpCJi5xV+nnEqRz7GscPuR7bi+x/X4es3XSExPlI+XnSnDpoObMKzTMMzbMQ8bEjfgqRFPycffXvB2VbbKaJ+hwLr3xnulETr7Q7Vt21ayrqKjo5GVlWW069LAq0fAGAVWK2dn3Nm1K+JOnIClmRn8XF3xxdatSLvgtMTqkLEwM5PHeUph5YLExo0aSYN5li6Wa6lidRBf8bOGJrAow0ePHo0nn3xSM7CueBf1RiWgBJSAElACDZeACqyGu7e6sosQMDWBRXnVyr2VSKa9x/ZiVfwqOS0wKz8LzVya4c6QO1FaXoqZG2ZKdtX9A+5HzL4YLN2zFJOGT4KHowfeW/SelAne1e8urD+wHk2dmqK5W3O8v/h9yZ55cOCDUpZIAcb7mOVVVFqEycMmi8B6d9G7JvU+vjTwJXzy+icYNmyYnL43b948yboqKTHt3mAm9RL8y2KrIrAocHiaHwVOeg1KoyvZC7PGjTEmIAC3dOqEN/5uov3igAGYEx+Pn3btQtmZM1cyzCXvsbWwwEsDB6KwpASfbdmCjPz8c/e3d3fHIz17Yl5CApYdPFjtuXSAyxMwNIHF/nn+/v5YunSpCqzLb5/eoQSUgBJQAkqgwRNQgdXgt1gXeCEBUxNY7HXFrKhRXUaJpFq7f60gsbe2R15RHto1bYeHwh+STCqWAw7vPBw/b/wZ245sw7OjnkXjRo2lt9UNPW5Aj9Y9JBsr1D8UjjaOmLZyGvr595NMrp82/AQ/Dz+0cGshwouSa8KQCYjaE4VZW2eZ1Iv41Z1foTijGHv27BF5ZcyNx01q42p5sQ88/zzGrl59VbO42thgQp8+OFVYiI82bLiqZ6t7s4uNDaaEh6OwtBSvRUfDxtwcz/bvDzsLC7ywYgVOVJJNVZ3LxsICk/r2RWFZGb7dvh0nCwvPDdW1aVNMiYjAd9u344+9e6s6hT53FQQMTWBdReh6qxJQAkpACSgBJWACBFRgmcAm6xLPJ2BqAosN2pllNbjjYOxO3o2TeSdFVLV0awk7Kzs0sW+CFq4t8PuW33Hi9Ak8GP4gDmccxuxtsxERECE9sCi3mIlVXFaMN+e/iYgOERjScQjij8fDx8VHemZ9Gf0likuL8cDAB2QOawtrad5O4XWlpxk2lHf1yzu/ROPcxjhz5gyWL18uWVh6KYF+Y8Zg+Lx5/wDh7eCAbt7e2JiScl4GEm+8ITAQT4WG4nRREebv24c/4uLkRMChfn4ikvJKSjA3IQHJOTno6eODZo6OaOrgAAdLSxw4eRIl5eVgJhNPC1x9+DA2JCcjwN0dQ/z84GxlheLyciw/eBB7MzLg16QJOnp4iKhysrbG1mPH8ECPHohKTMS3O3bAztISdwQFYVS7dpi0ZIlkhvXy8cGchAQknjwJs0aNEOjhgQ4eHliblISUnBx08vRE3+bNsfrIEYk7pEULMOsqLTcXi/bvR2puLga1aQMrc3OsOnwYzRwcZG2cnxlgfZo3x/TNm1Vg1dEfHxVYdQRap1ECSkAJKAEloASqREAFVpWw6UPGTMDUBBZL/Py9/EVSUWaxKXbyqWQ5VdDT0VO2MrsgG7HJsWADmuCWwbCysJKSQIvGFvBv6i9lgidzT0qp4e6U3SKzeAIhJRWlF69DGYeQU5Ajz3PcsrNlSEhNQGp2qpQsmtI1ZdAUfDv1W3Tp0kVO7GNz8507d8qpg3qSlim9Ceev9cISQpYH2ltaItjbW8TQl9u2Ye+JE8gvKUHp3+V5g9u0wdtDhmB/RgZ+2bMHx/Py8FivXiKuNiQlYUyHDkjIyMDUX6VN2AAAIABJREFUTZtwf/fuGMlyq8RE6VF1a+fO2H/ypIio8FatkJ6fjzeio+Hl4CAiifMMaNVKek/9d9069GjWTMaOSUoS0UUpNrFPH3y3cycW7NsnQmmgry/+068fnlm2DG1cXXFPcDCeiorCrvR0sGdVkJeXZG39vHu3/GB2VZivL77fuRM3d+qEY6dPIzY9XSQV18o1T+zdGw5WVpi+ZQvGd+smEotr6NK0KUJbtsSUVavwe1yc6b44dbhyFVh1CFunUgJKQAkoASWgBK6agAqsq0amDxg7AVMTWMa+X8YYP5u43z/2flhZWYEnEA4ePBixsbGYP38+UlNTUVpaaozL0pirSaCywKIUZkP0p0JCEOjpieaOjkjKyZFm6Z9u2oTd6ekyGzOqpo0ejbVHj+KD9etxY2AgHu3dGy+uWIE1R46IFOLHPtu8WbKVmPHEz2UXFWHGmDH4My4OM3ftkj5WI/z98XZMjAgvNzs7kan82C2dO+PZpUvRtkkT3NSxo/S72picjN4+Pniyb19M27LlXA8qlvW9Gh4u98Slp4MljpRlzPTixbLD1yMipPH6m2vW4LWICBFn+zMzRai9sHw5th8/jtuDgiS77OWVK3Frp04isJjpNTk0FN9s344fYmMxwNcXLw0YgI83bMBvKrCq+fZd2eOGJrB46qmFhYX8Q4BeSkAJKAEloASUgBJQgaXvgMkRUIFlclte5wumwBp//XjpfWVmZobmzZvjjjvuQMuWLTFr1ixs2bIFmZmZl83GsrS0lAbGvBITEyWDSy/jJXBhBhYzlngCH8sH7+7aFdM2b5ZSPsoglvxdKLA+3LBBsqxuCgzEhEWLJOupf8uWmBQSIiV2PDGQZYAvrVghPaU+j4zET7Gx+DM+Xp65jqJr0yaRTvd26yanCjaxtZXSvwfnzxehFtm+PV5lxmBaGlo4OUn21w87d2LxgQMSD0sG3xo0CM+uWIFNycn/2AyOOa5rV0S2a4f5CQkY2a4dft2zBz6OjrLO55cvR2JWloizR3v1kuyq6zt0EIG1LilJPkbxtWD/flCWUYB9vW2blE7qVfsEDE1gtW/fHp07d8bvv/9+2a+XtU9HZ1ACSkAJKAEloATqm4AKrPreAZ2/zgmowKpz5CY3YWWBxcUz28bW1hZdu3ZFv379YG9vj+joaGzcuPGi/bGcnJxEet10003IycmRY+QP/C0RTA5oA1nwxU4hpNihUPpk40YRWJUvZmBNj4xEbFoa3omJEWH1QliYlPyx99XjvXtLOSA/Ryl0OYFFqcRyxTVHj+LLrVtxW1AQxgYG4oklS/4hsDj31BEjZB6WALLkkSWNzMr6z7JlyCkqQhcvL6w8dAinKsnV4KZN8XS/fnC0tERKbq6ULfI+PsfMrejDh/F4nz6S4cUMrHFduojAYi+t/4SGYkliIj5avx4RrVvj1YgIvBcToxlYdfRnwNAEVnh4OEaNGoVJkyapwKqjd0CnUQJKQAkoASVgyARUYBny7mhstUKAAuvHOT/is12f1cr4OqjpEmCvLza6f7rP0+cysC6k4eXlhb59+yIgIEAavG/atOlfgTk4OGDYsGEIDg4GsxCeeeYZ7Nu3z3ThNoCVX0xgsbk5G6uzbJCnDVa+WJJHSUVxFX3kCOYlJGC4v780S089fVp6TrE/1czdu/FA9+5o7eIiwqiorAwfjxiB33gSZkICxgQEIDIgAD/GxmJ0u3bS6D0pO1t+drO1lbJDPsuxKcOY3cXsrLcGD0ZGXh7eiokRgfVQz54I8vQUgTWwVSvc160bJi5ejC3Hjp0Lm83eH+zeHeODgzF140bM2LFD5mB/LWZ18fTC1q6u0pR+bnw8JvzdA4tlkNcGBEjPrPiMDDhbWyPAwwPvrV2LOfHxDeANMPwlGJrAioiIQGRkJCZOnKgCy/BfH41QCSgBJaAElECtE1CBVeuIdQJDI0CBtTp6Nfw6+hlaaBqPkRPYcXQHPl76McZ3Gn9RgcUlMiOLgqqsrEzKDC91jR07FrfddhueeuopFVhG/n5cTGBdall8V3jaIEUWT7XMYFlqo0ZwtbUVocReUycLCuQ0QUcrK/kY+1+xvxUFFBu155eWygmCPP0vt7gY1ubmkvHEEsaSsjKcASSbis/aWFjIr1nGyPse6dkTfVu0kFMHWdb47tCh2J6aivfXr5cG9ByH8xde0NeNpyA62dggu7BQYmBBpL2FBZxtbKQZPMfPKiyU+fkx/mXkdHExrMzM5PeMpezMGZmT8RRo37g6eftVYNUJZp1ECSgBJaAElIASqCIBFVhVBKePGS8BCqyf5v2EmQdmGu8iNHKDJFBcWoys/CxM7j35kgLraoJXgXU1tAz73qoIrPpcEf+C0NnLS5qvxxw9KnKJ2VFssF4546o+Y9S5a5aAoQmskJAQDBo0CFOmTNEMrJrdah1NCSgBJaAElIBRElCBZZTbpkFXh4D2wKoOPX32Sghc2APrSp652D0qsKpDz7CeNTaBVUGPWWD4u6k8GjVSkWBYr1WNRmNoAsvDwwPe3t7YuXNnja5TB1MCSkAJKAEloASMk4AKLOPcN426GgRUYFUDnj56RQRUYF0RJpO7yVgFlsltlAkv2NAElglvhS5dCSgBJaAElIAS+BcCKrD0tTA5AhRYy1Yug11zO5Nbuy64dgkkpCbgh3U/4L6g+2qshPCGG27ALbfcIk3c9RTC2t2/2h69PgQWe0mx11Vpebn0nmI2VVl5ufSkqrj4eemndfas9NSqzYsxsIdX6Zkz8nNFbJXj4fz8ywljYry8lz29rvZys7PDU337YtWRI+CJiq42Npi+ZYv0Aaupy8LMTGJlT6/KF9fFtZIn+3gZy6UCy1h2SuNUAkpACSgBJWCaBFRgmea+m/SqKbB+mfcL/jjyh0lz0MXXPIGCkgKkn07HpF6TakxgOTk5wcXFBcePH0dxDX7jXfOr1xEvR6A+BNadXbqgX8uWeH75clzXoYOcNPjfdevkJMCKq7+vL24PCpLTDBft3y/N0ysuSiSeVOhua4uknBxp2F6hY1o6O0uj+COnTklD9iu5GMNIf3+8umqV9NPi3GwQzwbulS8Xa2s82KOHSKePN25EyunTVzL8uXvYRH5sp04Y4OsrDeeb2Njgmf798eH69Vi4f/9VjXWpm18MCxMGPJWxuKzs3K08VfLOoCDpF7Y3I6PG5qvtgVRg1TZhHV8JKAEloASUgBKoDgEVWNWhp88aJQEtITTKbTOqoGuyhNCoFq7BXpJAfQisGzp0QK/mzfHeunV4sHt3dHB3x6SoKByrJIT4+es7dMDygwex8tCh8wQW5czkkBCMDw7GyytX4utt2yQjiqcPfjR8OCLbt8ejCxbg1z17rmj37+nWTWTZ/XPnIsjTU2KjzMorKTnveSdra9wRFASKrK+2b8fx3NwrGr/iJh9HR3xxzTVYcuAApm7cCAqtGWPGYOfx4/jv+vXnyaarGviCmyf26SOS7fXo6POysIK9vfFk3774aP16bE1Nrc4UdfqsoQksGxsb2Nra4uTJk3XKQSdTAkpACSgBJaAEDJOACizD3BeNqhYJqMCqRbg6tBBQgaUvwr8RuJjA8nZwQDdvb2xMSUFGpcwojuFoZSUZS5ZmZvCwtxeRQykzun17tHJ2Fmkyf98+7E5PB6XP6HbtJMuK1/bUVMls8nVxkXse7tlTMpI2HzsmAic5Jwfz9u3763TBVq0Qn5GB/JISUL5Q+LjZ2mLPiRPo0awZrg0IkJMHX1yxQuTXMD8/PBcWBk97e7y4fDn+2LsXnT09MdzfH9bm5jianY058fEoKiuTLKvePj6SuUUh1snTUwQW4+3o4YFfd++GvaUlhrRtCwoUZoAlZGRIVhfv35SSgr7Nm4s0c7ezg0Xjxjhw8iT+3LtXPnZN+/agsOL4e0+cwJLERAS6u+PTUaMwZfVqzEtIkJie7dcPzZ2cRDaRCTmtOHQIh0+dEl4hLVqgg4cHZu/dK3P38vFB16ZNsXDfPrAccVjbtrIPzF5jthrXONTPT2LiGvyaNMEIf3/ZM2autW3SBO/GxKjAqsaXg+DgYPAkwk8//bRKZaTVmFofVQJKQAkoASWgBAyQgAosA9wUDal2CajAql2+OroKLH0H/p3AhQKLkoPihvKKWUlfbtsmAoYSiVlOvNi76YvISNhaWIiEolBq16QJBrRqhXVJSejerBlyiorwv02b0NPHBzcGBmLZwYM4lpuLw1lZIp9GtmuH++bMwb3du0sZ4Xc7dkhvJmZPzdixA/szM/FMv34is1gi+Fz//jiYlYXFBw6IpBni5wd/Nzcpw2M2EwXa82FhMnYLJye8tno1dhw/LkKLvZ8SMjNFWDGj60BWFh7p2RNHsrNlHgofFxsb3D17Nvq3bInrAwMxfvZsEW+MZ+nBg0jPy5M4Qlu2FAnEvlWUT5RHnLuFs7PM/VRUlJQ1Uq7lFRdLqWN4q1Z4fsUK4cbyvkcWLMD65GR5loyHtm2L/65di/bu7ujbogXeiI5GSk6OsL6lUye8EBYmJY3RR4/itYgINHd0xPc7d+KGwECRWiyXpJCjYPtwwwY8FRKCAA8PPL5woQhCciK37t7e6OzlhccWLFCBVY0vCBEREYiMjMTEiRNVYFWDoz6qBJSAElACSqChEFCB1VB2UtdxxQRUYF0xqn+90ayxGRxtHFFQXIDispprhly9qAzrac3AMqz9MJRoKgssNif3c3UVARLo4YHmzs5Iys5G3IkTIqN2paefE1jTR4/GzrQ0vLVmDazMzfHDddchLiMDM7Zvl6wglv/9HhcnIuxYTo70jKrocXVPcLBIIhFY3bqhS9OmmLh4MQpLS/Fs//4i0Gbt3SufqxBYE/r0wZvR0Yg+ckRk0+O9e4tA83JwQOLJkyLSXgsPF8lFkUaBxYyu//Trh2lbtkh2FOf1dnSU/k+dPDzw3PLlsrb/hIZimL8/7po165zAouRhfyqKuNeio+VnZlaxBK9CYPE5SrK3Y2IQ5OWFD4YNw/82b5Z1N7W3F1atXFxEvrGckcLqvm7dcO/cudiWmioZUZRntwYF4dONG0UEck3MeKtoss6MrKkjRmBtUpKIstcHDZKSSl5c53PLlomIY28tMn86Kgq3de4sAuuDdeswKSREWP68ezfCW7eW+PmMlhBW/U+gCqyqs9MnlYASUAJKQAk0RAIqsBriruqaLknAGAVW40aN4WrvClc7V5SWlyKvKA+ZeZn/+i/S/MbYxdYFTZ2bgrLpLM6ipLQERzKP/EM4WZhZoIl9E2QXZKOotOiybw7Hbu3eGo8OehS/bPoFmw5uuuwzpniDCixT3PXLr/nCDKzGAHiKHcXTXcHBmLZ5s0geltBVSBVmEk0bPRprjx6V5uvt3Nzw4w03wN7CAqm5ueDXs8z8fMm6GtymjUinb3fsONcUvbLAYv+pih5Y7DnFnljM2vp51y7c0rnzOYHFTCKKF0ozlvBRYFGc8ZmQ5s2llLCtmxvWHDmCh3r0EIFlZ2mJV8PDkVlQIKf88S8XlFdnzpxBU0dHPLl4scgfNmZnphPFUkUGFj/3Sng4NiQn49NNmyQ77EKB9XRoqGScvbd2rUi4T0aMwNfbt2NXWppkgzFOSisve3u8u3atrP+Jvn3x8Pz5UoJIzsyi4g9mYHGuCy+WNN7XvTu6enlJhhUzwFiCyKwuZlMxM4vN5JmBxeyuZ5cvx5j27UVgfbV1Kx7u1UsyutYnJUmGGIUW41WBdfk/Gxe7QwVW1dnpk0pACSgBJaAEGiIBFVgNcVd1TQ1OYDHj6fa+t8PO0g55JXkwa2SGnzb8hKz8rH+slVJqdNfRuKH7DdiZvBPZ+dkiqKJ2RyGn8K9SGV68L7BZIMLah2HOtjk4evLoZd8cawtr9G/XHwMDBuKbNd9gf3rNneZ12cmN6AYVWEa0WXUY6sV6YFFgMQPqk40b/3FiXWWBRTFDscOMLGYOUWixrI29n5gp9dzfZXbMYmJ/K16VBRblDKXRA/Pno6C0FG8NHizlejx58NFevS4rsKIPH8ZDPXtKeR77SlFQUeRQYDGOlwcOFHk2Oz5eMrIo4cZ27IhxXbrgjTVrpN/Um4MGSTbTuEoZWJRMlE3MBnt22TLJHrsSgcXsKzZ57+jpiZdWrpRyP8bAk//I56WBA0XEMWOMcuvu4GCRUe/ExIiMYz+sNUePorS8/K+viY0bS38uCjE2Zt9+/LisjX29uAZmpXHN5MgSyclRURjftasILIorSrbNKSmSGcZeWI/17o1JixerwKrGn7Hu3bsjNDQUH3/8sZYQVoOjPqoElIASUAJKoKEQUIHVUHZS13HFBC6VgeXt7I0erXtg/YH1yMg9/+hzZh85WjsivEM4WjRpgbLyMmw5vAWZuZkI9Q+Fi52LZDGtO7AORzOPIiIwQjKgmjo1ldj2Hd8nWVHMpEpMT0R0QjQKSwvRu01vBLcMBsffcXQH9qXtE0lEwURhRbFkbmaOzj6dMXfHXPi4+mBw4GB8v/Z7+XjXll2xMHYhTpw+IfNQMt3T/x60cm+Ftxe+LfHx6tu2L3q26okzZ8+I0KLMGtZ5GJysnRC9Lxrzd86Hv6c/Ovp0RElZCXKLcnE44zC2HdmGzs07o49fHzATzMrCSsb7Yd0PaObSDH39+koc6afTsWT3EpzKOyVZX6Z8qcAy5d2/+NovJrDYBDzA3V0asZ8qLDxvAPZ1+nDYMGxIScHHGzZIKRwFEE/oYxkgy+2O5uRIU3H2dWL2VFpurvSQWn7okEga9pZijyZmPrH5O+cxa9RISu7eX79esqYm9+2LRQcOiIiiTOPJgLyPIueBHj0kA2tmbKyUzFHoUAydPXtWyuwo1pgddWeXLtJsnU3Ri8rLJfMp9fRpicnZ2hqJWVlo6+oKGwsLPLpwodx7TUAAHpw3Txqm39W1q8grxsO5WWLZxtVVSiUn9O4tTe7Zg4uS6d0hQ6RUj9lqnJdj25ibS3+sn3btkswsCjo2kv9s82YpF+Tv2VSeAouZWKEtWoig2lfphDs2r2c2GD/3wooVUkLIRvXMXmPvMWZ2UeAt2L8fP8XGYnJoqHx8wqJFuLlzZ4xs2xbxmZnwsLOTJvjPLFsmpY/GchnaKYSOjo5wZnltUpKxINQ4lYASUAJKQAkogVokoAKrFuHq0IZJ4FICixlJt/a5FTPWzMDBEwfPW4CDtQNu7HmjCKefN/6Mval7Rejc1uc2eDp5SkbS2N5jRUT9uflPPBj+IJxtnfHbpt8Q0i4ELV1bYkHsAjRCI8l8+nbtt1K+xzEps2wsbdC1RVf8tvk3TBgyASXlJZgRPQMH0g9g4tCJiNkXg8W7F4tM4jPzt89Hp+adMKD9ALw06yW5j5ePiw8mjZiEjNMZ+CjqIxSUFMjHX7zmReQX5+OnjT+hvLxcYps0fBJik2Ixe9tsBPsG486QOzFn+xzQP90Zeqesk1Jt8vDJWBW/SqTdbX1vkxg3JG7A44MfFzEXnxqPa7tdi5V7V2LxrsXn5jTMN6D2o1KBVfuMjXGGiwmsS63FrHFjkUjMaKI84cVG6fyYraWl/J6fo/hixhM/zhP3KJd4f/nZsyJvKLRY5kd5xEwjjlFcXo6sggL5muVkZYWCv7OmmAlFMcYTDnkfs6H4lwVmLfF5jkfRVREH72VGF+dlKR/lGBU2788tKYGDhYWMgUaNUPL3HIyXUoxjUVjxGUoujs/29Wxkz/JDczMzGYcn+1UwYDYVM874cZYbcs0Ue1wrs6kYC8dmDyovOzspA2R54CcjR+K7nTvxzfbtsl4rCwtkFxXJuBUX18l7GQeZkQEvxsl5uGY22Of6+RxjZnkiyzj5DOPinlGslZWXy/gVYxjDO2toAssYmGmMSkAJKAEloASUQN0RUIFVd6x1JgMh8G8Ci1lFFFHMPvLz8JPSuOTMZCzbuwx7j+2VyP08/fDMyGcky2jejnnSi4oZS/cPuB9Re6KwIm6FSB9mRPGem3rehLX710pmE0UPs5q+iflGBFj7pu3x+5bfcXPvmyUDalXCKvRs3VP6VCWdTMJ9Yffh182/YuHOhVLiN6bbGHy6/FPsSdmDbq26YUzwGOlBxfttLGyklJDx8OIanhr+FMrOliElKwWpp1Lxx5Y/cFfoXZIl9uP6H+U5ZoO9GPkiZm2bJXE+OexJyRj7YMkHCGoehIcjHhaBxUwuL2cvfLLsE5nr+cjn8efWP2FpZilreWfROzBvbC5ZX6fyT+GH9T9IhpcpXyqwTHn3L772qggsJVk1AhRNvs7O50ojvR0c0Kd5c8nGis84P7u2ajM0zKdUYDXMfdVVKQEloASUgBJoKARUYDWUndR1XDGBi2VgMQtBMrB6/52BlXHwvJ4bgzoMwn0D78P7i9/H5kObpWxueKfhIpgopuKOxYnMauPRBpsObZLyvC9XfylleBRfLDdkdhLFUHFpMVbHr8YTQ59Ao8aNpEzwQNoBkV2hbUMxtudYEUMJxxMkK4qZVu8seEfK9MZ0HyPlhJ+t/Axp2Wn/WDdLHNkv64tVX0j5X9mZMllHu6btcEvvWyRD66s1X4EZZbyPWVosfWQ2FjPBmI01MmiklCl+Ff2VPMM4uMZ+7frhjpA78F3Md5KxxWyyqcumwsPRQwQW10FZdrrw9BXvR0O8UQVWQ9zV6q9JBVb1GV7tCPy6jrN/lzQzM6zi11c7kIncrwLLRDZal6kElIASUAJKwEgJqMAy0o3TsKtO4FIlhOxPxawqlsRVbnjO2djniqV9X6z+Asv2LJNsJTYzZ3ZURUP18f3HIy4lTnpAdWjWAdNWTIOTrRPG9xsv2Uy7U3bjtetew/aj27Fm3xo8P/p57ErZhc9XfS4nBxaXFYtU8vfyxyuzX0FhSaEILwqi1+e9LllPk0dMlr5WzJwa0G4AVsSvkEyrioslkMyMemvBW0jL+UtwMYuKmVgsdXx6xNNSFlh+thwhbUPwxrw3pG8WBRalGksjKeLYA+vnDT9jXOg4kXPrE9fjrn53wcPBQ8Zm6aKvuy/env+2SDyyoPDi8+Vn/iq7MdVLBZap7vyl160CS98LQydgaAKrSZMm8PT0xN69f2VC66UElIASUAJKQAmYNgEVWKa9/ya5+ksJrEsBofy5O/RuyYY6VXAKGw5swNoDa0Fp1dajrRxnz8wrnuh3bfC1kqH166Zf0cmnk8iv79d9L6V2j0Q8IuWB7CEV2TUSI7uMlAwoZmVNXzkdI4JGSG+tD6M+lN40zAhr69UWby94GwHNAvBQ+EPSV4uSiGWKH0R9cK7MkVlVzIRiA3nKK/a8oihr5dYKrT1bw9bSFiWlJZi2chq8nLzwUMRDkl01d9tchAWESTP5Y6eOSQN5NpOft30ehnYaisEdB0t5IMcrLinGlHlTEOAdIH2+2OyG8S7ctRDzd8yXUklTv1Rgmfob8O/rb4gCi/2e2L+K/afk5zNn5Nd6GScBQxNYISEhGDx4MF599VXNnjPOV0qjVgJKQAkoASVQowRUYNUoTh3MGAhUVWAx44qNz/mDFzOU2HvK1c5VTidkl2NKnpyCHOk1xYu9oCiN2KCd0suskZmcQsj7CooLYGdtBzd7N5FdFFKUTpRQLHPJzMuULC+WLrIccVHsIgS1CJLx2Wid0svRxlGysfhrXryfjeE5BuUXTxw8XXBaxrezspOP8V6eWGhpbimZXZz3ZO5JWFtaw8nGSXpp8QdFFEsB7a3tZY0ci88yNpYyMhuMz7N/GJu7M4684jxjeAVqPUYVWLWO2CgnMCSBxabn3o6OcnLf0exsOZ3vai+e2HdDx45o4+KCJQcOyAmHm1NS5ERENoi/movN0Hm635HsbGngrlf9EDA0gRUREYHIyEhMnDhRBVb9vBI6qxJQAkpACSgBgyKgAsugtkODqQsCVRVYdRHbhXNQODV3bY7rul0ngqy0rFROEaQA08twCajAMty9qc/I6kpg8TTADu7uOJqTIyfitXdzkxMCK188sXCEv7987rGFC3EwK+uq0QS4u2PqyJGYvXcvvtq2DU+FhqKPjw8enD8fKaf/2QePJ/m1d3eHm63teXPxNL/WLi64t1s3PL5oEbalpl51LBc+wJMK/Vxd5VTA/SdPIiM/X24hB87FGPZmZMhJg7WVL8bTDNlI/sDJk3IyojFcKrCMYZc0RiWgBJSAElACpktABZbp7r3JrtyYBFbFJrFEr+JiJpRehk1ABZZh7099RVdXAivIywsfDB+Ot9asQXJODga3aYOmDg4Y5e+PxKwsbD12TARTRmEhnK2sEJWYiFOFhVeN5ZZOnTCxb18RYJROnOfFAQNkXmZhXXgxy2po27Zo16QJBrRqBWZwLTt4EKm5uTh86hTc7ewkluO5uVcdy4UPuNvaYkp4OCLatMHbMTH4MTYWJeXl6OzpiTcGDQLl2+MLF8p8tVXyGObri0l9+2Ly0qXYn5lZ7TXVxQAqsOqCss6hBJSAElACSkAJVJWACqyqktPnjJaAMQoso4VtooGrwDLRjb/Msi8msJgRNLBVK5EpF2YuNWYWppMTHurRA3ZWVsjMz5esqrnx8YjPyMC4Ll3QwcNDsohijx/HppQUyWS6uVMnbEhOxtyEBMyOjwezn6aOGCHC6IutW2FjYYGBvr7yLOUOhVI7Nzc4WFnJvUk5OfhiyxbklpQgtEULXNO+PSzMzVFYUoJZe/fKPM/064fezZtj3KxZIsC8HRzwzXXXSWy8597u3XHs9Olz8qgCj52FBV4YMABe9vZ4YcUKuYcZYyxB/H3PHnjY22Okvz9Ky8vhZmeHotJS/B4Xh9i0NLRyccGtnTrB1dYWzCKjOPszLg75F2Q4UYa9MnAgwlu3RsyRI3h19WqcyM8HpdsjvXqJPHsqKgqbjx3DdR06oKOHB8g6q7AQX27dKlLrjqAgKWvkxQy1n3duo51OAAAgAElEQVTvljjJgnuQV1yMP/fulXEf7tlT2DEmMmZZJucZ3rat/D7qwAHEZ2ZK7LyPcy3cv19KL8vOGM4/ShiawOrQoQOCg4Mxc+ZMLSHUL6tKQAkoASWgBJQAi5JqLXte8SoBgySgAqvq28JMMPbSIsO8ojyTP23wYiRVYFX9HWvIT14osFjmxlK24KZNRTh9u2PHX2VthYVgWR0vChRmDFHizNy1S+TJyHbt8Pzy5SJLmOHz9fbt0jeKEuXdtWtFeD0dGoq3YmKweP9+ESwUOpUFFiXKvcHBIq6eXLIED/XsKdJoyqpV0ivvkZ498UdcHNYnJ+OJPn2w98QJxCQliWSieHpu+XLc3727xM9MJvbQsre0xLTRo5GQkYGPNmzAiwMH4lBWlqyL2U+XElgDfH3xn379RGi1bdIEL4SFyXrnxMfLWjjPa9HRsn5+/p2YGMmmGtupE15cvhzbjh8XHhUX1/tSWJhkWlFuvR4dLaV8z4eFoZOnJ5ih9dLKlbK+ns2a4XRJCXydnETKMXY+QxH45po1SM/LQ2FpKewsLfF8//44lpuLr7dt+6txfePGEndJWRl+oAj09UVE69YyH4XgPd26yV7tPH5c+FAYZhcVIbJdO7Rwdsarq1Yh7sQJg3ntDU1gWVhYwNLSEvl/l4AaDCgNRAkoASWgBJSAEqgXAiqw6gW7TlqfBKojsNgk3c3BTU7jo8Cpq4unArIX1lmcRSM0woncExed38rcCs1cmknzdV5s0p6ek46sgiycqfQv/RUN39msnc3mr+Rik/fbQ26Hk7UTvl7ztTRz1+ufBFRg6VvxbwQqCyxm4LBH03P9+4vUoKhiJhJlBgUKs414DWrdWsoBKTrmJCSAZWmvhYdjxo4doGwI9PCQjCErc3NM7N0bSxITZZwnQ0LwxOLFWJqYKOOwhPBSAuu+bt3Qzt0dt/3+u/yr1gfDhoGCLeboUdzUsaNkK1Fi9fTxwZuDBuHFFSvk45bm5jIPhRsztyjbmCX2xpo1YKN4jsWTCStf/5aBVVlg+TVpgge6d5c1Rx85gvHBwZjYpw8+3bQJQ/38sPzgQZF2zMaikNqTni5ZZRRDFwqs0jNnJNvpeF6esHi2f3+cyMtDDx8fkXUrDh1CMwcHEXzM/HoqJEQyozYmJ+OZ/v0lw4vlkIdOnRL2zMp6b+1arDl6VKZihtfH3J/VqyXrjMKMEu/b7duRV1qKx3v3xr1z5iAhMxOOVlay55SHPZo1k7VMWb1aGBvKZWgCy1C4aBxKQAkoASWgBJSAYRBQgWUY+6BR1CGB6ggsdwd33BFyB1bFr8KOozvqJGqKpp6te2JYp2HYk7IHXVt2xdr9axG1J+pfM6Bau7fGE0OfQFFZEQ6eOIiikiJsO7wNCWkJcrpgxcXTD+8dcC82H9qMlXtXXtFaKO8mDJmAo5lH8dOGn1BQUnBFz5naTSqwTG3Hr2y9F2ZgUaxYmZkh2Nsbd3XtiulbtojAYrZSRTYRS9DeHToUzy1bJmKlT/PmIpB+3LVLyt5CWrTAqsOHkVdSAnbKW5OUBC87OzwXFnbVAsvfzU0EFnXTO0OGSJbS+qQkKYObFBWFfZmZ6ObtjXeHDMHLq1ZhRNu2It4emDfvvAws9ntittTFrisRWMzuosBac+QIbuvcWWQSG8Wz7HFeQoJkO7VwcpJ1JmVn45NNm6T870KBxZLMzIIC3BAYKCckUh5tP34cj/XqhXfWrkV2YSHuDg6WrDeWLLKxPUsq/7tunWTGsa8XuaTl5ooEo2hjVhZLKHkN8/PDf4cNkywrxtXS2Rkzrr0Wv+3Zg6yionMCKz0/H3d37Yru3t5SJkqhyAbvzGRTgXVlf370LiWgBJSAElACSkAJqMDSd8DkCFxKYHm7eKNnq55Yd2AdMnIzzmPj7+WPG3rcgGDfYJFXUbui4GTrhA7NOsC8sTmOZB7ByviV8usBAQNgaWYJFzsXKcehSPJx8YGjjSO2HN6CTQc3gTJsSMchkimVW5QrWVD8eCv3Vmjv1R5ncEbk097UvRjTbQxik2KxYu8KPDnsSTmFcNa2WRjUYRBik2Ox59geOaGQV/dW3fHAwAfw66ZfEZ0QjbIzZWjZpCUiAiNgb2WP4tJixB+PRyefThjZZaSMuzB2IRJSEzC883C42rnK2hn32gNrkV+Uj4EBA+Ht7A02kA/wDsDsbbOxM2knBgUOknUwy2tD4gbhok3mARVYJvdl5YoWfLEeWF28vHBn167Sc4qZOpUvZvR8OGwYNqSkSCkes3Ye7dULb0RHS0YPxQyblO9MS5NMJ552Rwnz3tCheGXlSumBVVhWJmV/l8rAerBHD4S3aoVHFi4UefbSgAEiVpiBRNnDcsJ1SUkY1a4dBvv54T9RURgTECBN0u/880+RMmzS/u2YMViblISPN27EjYGBUn7HLKrKfZ4uJ7BYIvif0FDJuGKPKZb1sTH9K6tW4c4uXSQ+SiSWEDLD6X+bNmH5oUPnlSlWlBAmnT6NlYcO4a3Bg9HExkYkGMsap0RE4MMNG4QLeVFA8dRAcqN8+mX3bskqY2nktQEBGNuxI37avRvXtm+PlYcP4/udOyUOSrT/Dh2KjSkp+GbHDhFczB5jZhVlmZRFLl8ujelfDQ/H1tRUKYskO8oxlkyqwLr4Hx/+/5o/yv4uqb2iP2h6kxJQAkpACSgBJdBgCajAarBbqwu7GIFLCazAZoG4tc+tmLFmhkinyhdFzbjQcWDm0s8bfwbL6e4JuwcLdy1EQXEB7gy5E5+v+hzHso/hlWtfkeyk3zf/jrtC70JRaRFmbZ2Fjs07wtrcWsrvbux5I/w8/fDLxl8wrPMwGffN+W/iuu7XYUTQCHwV/RWW71mO8A7h6Ny8M95d+C5yi3Px6KBHwV5UqxNW45mRz4ioWrRrEQpL/so+oOy6JvgafLjkQxFbFFH39L8HLVxbYNqqaSKw+GNM9zEYGTQSH0Z9iANpB+QePy8/kVN9/PrA39Mfby18CyF+IZL1NX3VdAzvNFyywd6Y/wZ83XwxsP1ATF0+FSM6j4CHowfeW/weTpw2nH4u9fWnQAVWfZE37HkvJrBYqsf+SmwKzpK3ypdZo0YI9PTED9ddhya2tjhVVISCkhK8vmYNog8fxksDB4oM4RgZ+fl4dOFCkSVfX3st2ru5SVkbs6GY7XW5EkLKKGZdsRyRPZvunj1bmrOz7xVP9KOgYpke5QyFFsXOywMHYuKiRVh9+DBCWrbEO4MHS/bSbpb1XXONlB0ye4s9pCquywmsNn+XVvJrl6uNjWRJMVOJTe4p9N4ePFhKJymQ2KCe8Vx4imJlgUUR9npEBPo2by583GxsRGCxTxWzs/43ahS8HBxkHmaZUUYx2+rpkBCRWox92ubNkiF3a+fOUrZoYWYmjdofXbBARNfn11wDxk2J+L/NmzFtyxbpqTV99Gh4OzpKs3buD7O9KPNST5+WjDFmganAuvif2xYtWqBNmzZYvXq1NnE37C9vGp0SUAJKQAkogTohoAKrTjDrJIZE4N8ElpWFFW7tfatkJVEq7U/fj6STSSKQmAHFq4l9EzwS8Qiy8rNERt3c+2Y42zjjo6Ufwd3RHc+Nfk6ysg5lHMJD4Q/hi9VfSCYTZRbL/RbFLhLhVVZeJllT13e/XmQRywIpv5it9dmKz3BXv7tg0dhCZBAzth4f/DjiU+Mxc8NMyXTi71kKSAnGhursx0VZdvbsWZibmePufndjaKehIqVOF57G1sNbJfaebXpi8a7F2H5kO07mncT4/uNFTL0x7w3J+rp/4P1YsGMBNh3ahFt634Kmzk0xf8d8+TVLJv/Y8gfG9horWVeUbswy25i4UeRZWLswkWbvLXoPR08aTj+X+nrvVGDVF3nDnvdiAutyUbOXFDOFeHIgs3ZYbvjyypUiRZxtbCQTi6KL8oQN20vOnBERZW1hIbKL5XG82AidGVq5xcUitJghZG1ujqyCArwWEYEADw88HRUlmUyUNhyLkojzcjzGQcF2sqBAxuHpiZQ/q48cwczYWOlVxRLDZ5YtQ2JWljzDsTg/vz5VXBRTLtbW0gCdEodx25ibiyyiiLq2Qwc5dfGTjRux4/hxmZPyh9lQFo0bi8hjTByTpyTyeWZtUQJWXCz5yygokM/lFBXBxcZG1kphxXk5P2UcZRJlF0s5+WvOwZjZoJ3yTLiePStxnS4uljkowDgGSw7JiM952tvL+OTFNTEu8iIDykXy4riUgGjU6K85/o6NcxrKZWg9sMLCwjB8+HA8++yzKrAM5SXROJSAElACSkAJ1CMBFVj1CF+nrh8CF8vA4jdVkoHV++8MrIyD5/2FubVHa0wePhkLdi4Q6TRp+CTEHo3FzI0zJVtp8ojJiNodJSWEzJii2GLpHoXTpys+xbFTx/Dk0CfP9c4KbhWMt+a/JY3VJw6dKBlf7EfFDLA1CWtEDHVs1hGPDHoEc7bPwbI9y0RYPR/5POJS4vDj+h+lPLDyRelEEZVbmItpK6dJ5lfFOaN39b9LRFPM/hjM3T5XBBaztqavnI7IrpGS9UWZxW8KKdqSs5JlHMqwz1Z+ht0pu3Ff2H0iwxhfZHAkPl76sfTD4rMUWu8vfl/WaeqXCixTfwP+ff1VEViUIkFNm6KNi4uIkMj27eVrxosrVyI+4/wy5+pQZ1ZTRQ8slhxeyUWZwx5QbKbOnlD9fX0l42rRgQPnTlG8knEuvIcnC1bugXWpMfh1m2yY2eTj5CRHK/NalpgofbL0ujoChiawIiIiEBkZiYkTJ6rAurqt1LuVgBJQAkpACTRIAiqwGuS26qIuReBSJYTs/9TWq630g8opzDlvGJbOsXyPpXT8/NMjn5a+Vd+s+QajuoxCR5+OUs7Hkr/y8nJMXz0dQwKHYFTXUVIayP5TD4Y/KPKI5YjdWnXD2/PfRmi7UIztORbfxHyDkvISeebL6C+x7/g+9GrTC/eG3YtvY76VHlOdW3TGxCETJZuLF08jZL8ulgTyYgy8P2ZfDObumCvZXizt44mJ1hbWGB82XnpxMYOKce04skPiYfYUyxgpoHq07oHRXUZLxhdPP+TamBlGOcayR45NmXV7n9vx2+bfJDvs8SGPSw+wH9b98Jc0M/FLBZaJvwAXWX5VBBYzjXr5+Eg5ILOmmLnDEjfKqwtP96sOdTaHZwYUT/ir3K+qOmNW9Vme1McSwc3Hjkk5pF51R0AFVt2x1pmUgBJQAkpACSiBqyegAuvqmekTRk6gqqcQsufTlOumoLisWKQP+1CxvI6/p7T5cvWXUjJISbU7ebf0v2I2FHtPvTbvNYS1D8PQjkPx1oK30LxJcxFNluaWkuVEUfTjhh/h28QX/k39JTOLY7KksaIhe9yxOFzf43q0aNICi2MX4/a+t0s2FSUSSwt59W7TG48Nfgw8uZACLjE9UWIKbhks2VuUWPN2zJOm7ZOHTZa5mFF2LOuYlC7yOUo5NmLneijAmB3GZvUUVPyZc6/Zt0bmD2kbgsLSQnmeAo736KVN3PUd+HcCVRFYylIJ1CUBQxNY4eHhGDVqFCZNmqQZWHX5IuhcSkAJKAEloAQMlIAKLAPdGA2r9ghUVWBRMjELiSWCpwpOyal/bg5u0neKGVBpOWkSND/Gpu4USGzMzs+nn06Ho7WjSKS002kirJiFRaHEMj6W7VEcsRcXpVZ6TrqM1cylmfTdorzinH39+uLXzb+KmGpi10ROL6ycKcbxOT/H58WxS8pK5KRDyilmhmXmZcpznk6ekhXGPlnso8XSQM5NIUdxxV5fjIsZXDaWNnIPL2Zz8YeznfNfpyyikYyXlZf1j5LG2ttFwx5ZM7AMe3/qKzoVWPVFXue9UgKGJrB8fX3Rtm1bLF++XAXWlW6i3qcElIASUAJKoAETUIHVgDdXl/bvBKoqsOqDJ0UUTwqkRKKcSjyRKH22KKX0MlwCKrAMd2/qMzIVWPVJX+e+EgKGJrCuJGa9RwkoASWgBJSAEjAdAiqwTGevdaV/EzAmgcWQ2aSY//E6y/8qnealm2qYBFRgGea+1HdUKrDqewd0/ssRUIF1OUL6eSWgBJSAElACSqA+CajAqk/6One9EDA2gVUvkHTSahFQgVUtfA32YRVYDXZrG8zCVGA1mK3UhSgBJaAElIASaJAEVGA1yG3VRV2KgAosfT9qm4AKrNombJzjq8Ayzn0zpagNTWCZm5vDwsIChYWFprQNulYloASUgBJQAkrgIgRUYOmrYXIE6ktg8QQ/NnVnQ3c2RbeztEPqqVSUlP9/PytHG0dppp5xOkOaprNksKYvVztXOU3wxOkTcLB2kIbvjOnCvlpsKN/Uqak0aD+Zd7Kmw6iz8dgo39PRE/kl+TiVf+rciY21GYAKrNqka7xjq8Ay3r0zlcgNTWC1b98eQUFB+O2337R83lReQl2nElACSkAJKIFLEFCBpa+HyRGoL4E1vPNw8MfUZVMR2jYUbTzbYOrSqcjIzTi3B4MCB2Fwx8H4NuZb7Du+D2fOnjn3uRZNWqBX6144evIodiXvQlFpkZw4GNI2RKTM2v1rkVOQc0npRVl1fY/r0dmnM37a8BPCO4TLyYecr3Ic7LvV1rMt7ul/D1YlrMKSXUuu+j3xdfNF91bdZVzOu+ngJpFh/3b5uPrICYs8LZEXT2Rcf2C9iLXKPb+cbZ3RxqMNDqQfkNMTr+TiOu7qd5fMvyxumZzMWNuXCqzaJmyc46vAMs59M6WoDU1ghYeHY9SoUZg0aZIKLFN6EXWtSkAJKAEloAQuQkAFlr4aJkfgUgLLrLGZyBZmI1WWR4TERurmZubyQ9qqN2okEom/pgRq3KgxSstL5WOcw9rcWn6mgOHHKV68nLxEPt3d7245VfCr6K9E1hSXFYuEaufVDp5Onth5dKdkZnFsjstYhnQaIkKJImbaymnIys9CeEA4Jg2bJFLr6d+eRkFxASzNLWHe2BzlZ8tRXPrXuMxCYtwOVg64te+tsr452+aAUqywtBBxx+LOrY9rLSsvg6u9q8STmJ4o2VpcL/nwZz7PH/y1jYWNrJPz8CotK4WjrSNu6nmTrDE+NR6ju4zG19FfIzY5VvhWrLfi5RvScQjGhY6TtaWcSkFeUR52p+yWn3lx/YypR+seiOgQIfLtcOZhYcu1MY7y8nJukqyZv6/4eMdmHXFd9+vkGcZCDhVMKbMu3Oea+AOhAqsmKDa8MX6aNQspjo4Nb2GXWZGWgRnPljtZWaG3oyP69u2L/Pz8eg88IiICkZGRmDhxogqset8NDUAJKAEloASUQP0TUIFV/3ugEdQxgUsJrHZN2+Ha4Gvxy6ZfcDTz6HmRsewvrF0Y+rTtAycbJykBfD/qfSkLfDj8YRE+S3YvwafLP0Vr99aYMHQCWru1xumi0/h1069o5dZKMoqi90XjsUGPwcPRAy52LlLWRrkTlxqHh8IfkrLChbELRVaxnJCSKWp3lJQd9vPvh9TsVLy76F0RVPeF3Yduvt1EDL06+1WRZA8MfAAdfToiOSsZH0V9JALqscGPoX+7/iKEThWcwqr4VUjPScdtfW/Dj+t/xLbD2zBhyASEtQ8TMbVg5wKRcpRAP6z7QbK2HK0dEegTCBdbF3y/7nv8seUP2Fra4rXrX4O/lz8SUhNEYs3dMVdKFBnrV6u/Enn3+g2vY/a22fJryqrpq6bjQNqBc9Lr1j63IsQvBO8veR+HMg6JFBsYMBDjw8YL57TTadhwYANGBo2Eu6O7ZHV9HPWx8Hx21LNwtnMW+UVxx7GbOjfFo4MeFX4nck7I/dwXZnrx42R/7NQxvDHvDZmvpi8VWDVNtGGM5+7uDktLy4axmKtYRb9+/cBMmilTpqiEuApu9XUr/zEgPf387Nf6ikUFVn2R13mVgBJQAkpACRgmARVYhrkvGlUtEvg3gcXMIpaaUfywjG9x7GIcyjyElKwUEUy8KGXGhYxDH78+mLN9jpS4UZDc3PtmbD60Ge4O7iKQ5m6bixFBI5BdmI2FOxdKppSXsxdu63MbNiRuQPyxeDw7+lkRTJRDLG9Ly06TMZ8a8RS2HNqCtQfWYsp1UyRj6LfNv0lWF4WWj4sPcotzRcawDLB/+/4y79I9SyWjinKGGVXbj2yX+aL2RInUGRAwQD5PcTOi8wi8t/g9EW+c+7MVn4lw6+TTSeZiBhRFFMfi2imqHh/yOFi+xxi9nb0ljlnbZolQYh+tZXuWIcQ/RNbPrDLKsn1p+zBr6ywpc6RkWp2wWjLEmEX184afcSTzyLnsp+cjn5cYKPqY7VVQUoB7wu7B8ezjmL11tqzfwtwCDw58UCTYzA0zRaTdGXIn4o/HS7nlDT1ukHj/3Pqn7AnH5x6N7z9exN2MNTNAUZaVlyVlkfcPuF/4Mputpi8VWDVNVMczZgKDBw/G8OHDtQzMmDexnmIPCQnBoEGDVH7WE3+dVgkoASWgBJSAoRFQgWVoO6Lx1DqBfxNYzDS6ve/tInFae7SWrKXkk8kigFhex4siZuLQidJn6svVX4pUeTjiYQQ2C5T+U11adMGulF04knEEY7qNwcdLP5ZeTbwobW7vczt+3fyrZBSN7DJSStoovp4Z+YxkUy3dvVSyoBbELpAG7swE+3rN19h6eKtkFHFuihjKI0qaUP9QuY9lfhRLSSeTMHnEZOw4ukPK9JjdRRlGmbQzaadkQLVv2h639L4Fnyz7RPpTsScXn2VPLmZdMTuM8qqFaws8F/mcxMe1ce7le5Zjw8ENUhpIaXXwxEERdZRwLIskPzJi+WNEYISILGZFsWzyudHPSRYZM8tY3lfR14olknbWdnh1zKsiA7mGvOI8xCTEIKhlkAgxyrF1B9ZJVhZF2v70/fht029ShhnsG4wPlnwgZYuPDHpEYjpdcBp9/fvi3YXvSnkm9yi3MFd+3al5J0xfOV2yrlh6yay21+e9XuPvnAqsGkeqAxoxARVYRrx59Rw6sxa9vb0RGxtbz5Ho9EpACSgBJaAElIAhEFCBZQi7oDHUKYFLlRBSRjFLh9k6lCGVrw7eHUQQzdoySyQTy+devvZl6anEzCpKEpbysUSuc/PO+DDqQylT4+cpo3q16YVpK6ZJNhSlDudgNtETQ59A4olEyfZiFtHM9TNFtDBD6svoLyUjqWfrnri227Uip1hqx7LEsjNlf8miDhFSBtjMpRkigyOx+eBmyaJiDymevscsJcokZiRRXrHHFgUW1+nh4IH1ieslZgq3ijUHtwwWacWMLEqzG3veKM/wNMJJwyfh0IlDIppYUvnqnFdha2UrGU3MhOLJiT18e+DDpR9if9p+KXF8YtgTsnaKqMoXe1FRpLH/FeXWothF5z7N/lnk0duvt2SykSXjn7t9rozDrC6KOmaT9WrVCzf0vAHzd84XCclsMcZLocZMLpZMsqk8Jdmb89+U3lzMdmO5JrPZavpSgVXTRHU8YyagAsuYd09jVwJKQAkoASWgBJSA4RBQgWU4e6GR1BGBSwksZuSwJI99k4rKis6LiCf2PTDgARFTGw9ulP5Q7C1lb2UvmVLMLGJvLGYNMTOJpw1S4FiZW0m2EKXKjJgZ0ueKz/DX7BPF+ymturTsIn2yft/8O24LuQ17Uvbgx3U/SoN0ihuWOFLEsG8VywL5TDPXZmjj3kbm93X3xdieY/HD+h8k46qtR1vJMBrXbxz+2PyHyJuxvcaK/KEEYvkgM82YYUaBFLUrCiviV0gPLEox3vvR0o+krJJCi+vGWeDFa16UDDBKoNFdR+PzlZ+LZBrQfoCIMmaLBTUPkn5WbC7PUkb2s2KGV4B3gGRiUcSxeTpLNynmmCXGkxBZ0scMMDKhcGvr1Rb39r9XyhH5OTay51q4PgooMmWJIZnwBEP2/BrUYRC8XLykr9hdoXdJ36svVn0hgq9v277Sl4sx3tTrJvxv+f+w/ej2Gn/zVGDVOFId0IgJqMAy4s3T0JWAElACSkAJKAElYEAEVGAZ0GZoKHVD4FIC61IRsME5T/2jaOEJeBRWfh5+IpeYZUUhE50QLeVp13e/Xkr4WLbGLKlW7q0kY4nlcDf3ulnkl4ONg5wYyKwjypnhnYaLrGI2FzOemBm1On613HNN12sk44olfZQ12fnZmLd9nvTr4jOUQ/yZY1PO8HS9pKwkiYc9r9gIPrcoV07/i0uJEyE0qssoiY0Ch8Kta4uuyC/Jl3JAlvix3JCiqrtvdxFFv2/5Hc1dm+PGHjfity2/SfbYLb3+Wjszwiie2GeLjfCZ0cUMKH6OfJgNRilIYffzpp+lzJKZWhRYzBpjCSP7XrEskzG52rmKkOPa+TGWDPLz7GdFDvN3zEcz52YY3HGwcGVZJ+/7JuYbdG3ZVXpzMT72xKrgk3E6A3f3v1sy27i+LYe3YGX8ynMnHdbk26cCqyZp6ljGTkAFlrHvoMavBJSAElACSkAJKAHDIKACyzD2QaOoQwJVFVh1GKJRT8W+VOyHtTxuuWRvUSR9uORDo17T1QavAutqien9DZmACqyGvLu1uzYbGxvY2dkhMzOzdifS0ZWAElACSkAJKAGjIKACyyi2SYOsSQIqsGqS5j/HYoP3bq26gf2t+OvYpFgpBzSlSwWWKe22rvVyBFRgXY6Qfv5iBLp16waeRPjJJ5+cO/xDaSkBJaAElIASUAKmS0AFlunuvcmuXAWWyW59nS1cBVadodaJjICACiwj2CQDDTEiIgKRkZGYOHGiCiwD3SMNSwkoASWgBJRAXRJQgVWXtHUugyCgAssgtqFBB6ECq0Fvry7uKgmowLpKYHr7OQIqsPRlUAJKQAkoASWgBCoTUIGl74PJEVCBZXJbXucLVoFV58h1QgMmoALLgDfHwENTgWXgG6ThKQEloASUgBKoYwIqsOoYuE5X/wRUYNX/HjT0CFRgNfQd1vVdDQEVWFdDS++tTIA9sEJDQ+P1MVUAACAASURBVDF16lQtIdRXQwkoASWgBJSAEoAKLH0JTI6ACiyT2/I6X7AKrDpHrhMaMAEVWAa8OQYemoODA5ycnJCSkmLgkWp4SkAJKAEloASUQF0QUIFVF5R1DoMioALLoLajQQajAqtBbqsuqooEVGBVEZw+pgSUgBJQAkpACSgBJXAeARVY+kKYHAEVWCa35XW+YBVYdY5cJzRgAiqwDHhzNDQloASUgBJQAkpACRgRARVYRrRZGmrNEFCBVTMcdZSLE1CBpW+HEvh/Aiqw9G1QAkpACSgBJaAElIASqAkCKrBqgqKOYVQEVGAZ1XYZZbAqsIxy2zToWiKgAquWwJrAsG5ubvD09ERcXJwJrFaXqASUgBJQAkpACVyOgAqsyxHSzzc4AiqwGtyWGtyCVGAZ3JZoQPVIQAVWPcI38ql5AuGQIUPw8ssvV+sUwpEjR2LSpElo1Ih/7dVLCSgBJaAElIASqC4B/j81LS0NX3zxBVavXo0zZ85Ud8grel4F1hVh0psaEgEVWA1pNw1zLSqwDHNfNKr6IaACq364N4RZIyIiEBkZiYkTJ1ZLYN1zzz3w9/fH999/3xCw6BqUgBJQAkpACdQ7AVdXV3z++efYt2+fSKxVq1ahqKio1uNSgVXriHUCQyOgAsvQdqThxaMCq+Htqa6o6gRUYFWdnak/WVMC695774WTkxPef/99U0eq61cCSkAJKAElUCMEPDw8MHXqVMTHx2PQoEF49913sWTJEpSWltbI+BcbRAVWreLVwQ2RgAosQ9yVhhWTCqyGtZ+6muoRUIFVPX6m/LQKLFPefV27ElACSkAJGDIBCqznn38eU6ZMwe23344RI0bgu+++w08//VSrYavAqlW8OrghElCBZYi70rBiUoHVsPZTV1M9AiqwqsfPlJ/u0KEDunbtKn8ZPnv2bJVRaAZWldHpg0pACSgBJaAE/pVAhcCaMGEC7O3tcf311+PGG2/E77//jl9//bXWyglVYOkLaXIEVGCZ3JbX+YJVYNU5cp3QgAmowDLgzTHw0CwsLGBpaYn8/PxqRaoCq1r49GEloASUgBJQAv8gUFlg8ZPW1tYYOHAgnn32WUyfPh2zZ89GYWFhjZNTgVXjSHVAQyegAsvQd8j441OBZfx7qCuoOQIqsGqOpY5UNQIqsKrGTZ9SAkpACSgBJXAxAhcKLN7HkwnDw8Px+uuvS2N3ZlAXFxfXKEQVWDWKUwczBgIqsIxhl4w7RhVYxr1/Gn3NElCBVbM8dbSrJ6AC6+qZ6RNKQAkoASWgBC5F4N8EFu83MzOTpu78f+/OnTvx5Zdf4sSJEzUGUwVWjaHUgYyFAAXWj3N+xPQ9040l5LqNs6LNCL866FUlAo8FP4Zx141DQUFBlZ7Xh5RAQyKgAqsh7WbdroX/v+ZfhKt7opEKrLrdN51NCSgBJaAEGj6BiwmsipUPHToU//nPf7B27Vp8/fXXSE5OxpkzZ6oNRgVWtRHqAMZGgH8hjl4TjYCgAGMLvU7iLS8vB84CZuZmdTJfQ5zkyP4j6N+vvwqshri5uqarJqAC66qR6QN/E2jZsiXatGmDVatWaRN3fSuUgBJQAkpACRgQgcsJLH7P3aJFC8yYMQNHjx6VEwtTU1OrvQIVWNVGqAMYI4GmTZvCysrKGEOvtZjNzc0xatQo3H333fKNwsyZM7FgwYJaab5Xa4swkIFLSkpw/Pjxan3DZSBL0TCUQLUJqMCqNkKTHSAsLAzDhw+XhrB6CqHJvga6cCWgBJSAEjBAAm5ubnj33Xfx448/XjQ6SqzevXvj1ltvxcaNG/H4448jLy+vWqtRgVUtfPqwEmgYBPjFpVu3bvj++++lTplZWPfdd58ch7pv376GsUhdhRJQAvVCQAVWvWBvEJNGREQgMjISEydOVIHVIHZUF6EElIASUAINhYCtrS0mTJgAf3//yy6J32t26dIF/DthdfthqcC6LG69QQk0fAL8AjRt2jS4urriscceA48u56kRixcvxmuvvVbt/iMNn6CuUAkogYsRUIGl70ZVCajAqio5fU4JKAEloASUgOEQYD9LJko8+eSTSE9Pr1ZgKrCqhU8fVgLGT4BGnOmc48ePx+233464uDg5ApWpnnfccQeeeuopOUFCLyWgBJRAVQiowKoKNX2GBHgUN0vbJ02apBlY+kooASWgBJSAEjBSAiqwjHTjNGwlYIgEQkND8dJLL2HRokWShVVcXCxh2tvb48MPPwSzsyi4Tp48aYjha0xKQAkYOAEVWAa+QQYcnq+vL/z8/LBixQoVWAa8TxqaElACSkAJKIFLEVCBpe+HElACNULAzs4Or7/+Opo1ayY9Ri48GYJy67PPPsMHH3yAb7/9tkbm1EGUgBIwLQIqsExrvw1xtffeey+cnJzw/vvvG2J4GpMSUAJKQAkogQZNQAVWg95eXZwSqBsCzLC6+eab5dTBF154QY4pv/BydnbGo48+ipCQEDz88MM4fPhw3QSnsygBJdBgCKjAajBbabQLUYFltFungSsBJaAElEADIKACqwFsoi5BCdQ3gc6dO+O7777Dzz//jP/973/Iz8//15ACAwMlC+vTTz/FnDlztKF7fW+czq8EjIyACiwj27AGGG5NCSyW1PMff/RSAkrgygnwZOtTp07hzJkzV/6Q3nmOgH7d0ZfBEAhkZ2ejpKSkyqGowKoyOn1QCSiBCgKUV927dwf/Yn+p40x5IuE999yDESNGSGP32NhYhagElIASuGICKrCuGJXeeAEB/v+HPwoKCqrFpqYE1gMPPIBbbrml2vFUazH6sBIwIgL8ptXS0hI33ngjMjMzjShywwmVhyw9cu+9KC0sNJygNBKTImDn6opHJ05EdHR0ldetAqvK6PRBJaAEKghMnToVXbt2Bf9l7OzZs+fAuLi4yDcMlaUWTyrkv5yxnJCnFOqlBJSAErhSAiqwrpSU3nchgYCAAAQFBeHXX381iCbukydPxu7du6WpvF5KQAlcngBbUSxdulT+ETQtLe3yD+gd/yDwxIQJ6N64MfbHxCgdJVAvBK596SU8N20aFi9eXOX5VWBVGZ0+qASUQAUBKysrUExdeF1//fVwd3fH9OnT//E5nlCoKeD6DikBJXA1BFRgXQ0tvbcygfDwcIwaNQqTJk0yGIG1c+dOLF++XDdKCSiBKyBAgbVy5UoVWFfA6mK3UGB1O3sW+1RgVYOiPlodAmNeeQXPT5+uAqs6EPVZJaAEao8AywU9PT3x5ptv1t4kOrISUAImQ0AFlslsdY0vNCIiApGRkXJKbuVM4audqKZKCJmBpQLraunr/aZMQAVW9XdfBVb1GeoI1SOgAqt6/PRpJaAEapmACqxaBqzDKwETI6ACy8Q2vAaXqwKrBmHqUEqgHgiowKo+dBVY1WeoI1SPgAqs6vHTp5WAEqhlAiqwahmwDq8ETIyACiwT2/AaXG5ISAgosV577TXNwKpBrjqUEqgrAiqwqk9aBVb1GeoI1SOgAqt6/PRpJaAEapkATxpkD6yPP/64lmfS4ZWAEjAFAiqwTGGXa2eN/H+Rl5eXNE6vzqUlhNWhp88qgaoTUIFVdXYVT6rAqj5DHaF6BFRgVY+fPq0ElEAtE2jevDmsra1x4MCBWp5Jh1cCSsAUCKjAMoVdNuw1qsAy7P3R6BouARVY1d9bUxRYHn5+8OvdG/vWrMGplJQaPUCqQ3g4/Pr0wanUVOyOikJ2amr1N6mBj6ACq4FvsC5PCSgBJaAElIAS+H8CKrD0bahvAiqw6nsHLj1/69at8cQTT6Br164oLy+XHzExMfjss89w4sSJqy4fHThwIFh++tVXXyEtLc2wF9/Ao1OBVf0NNkWBFThoEIJGjMD8t95CXmbmv34NaBEUBI82bbBtzhycPXPmikA379QJ/e6+G+mJidizdCmyjh1DaWHhFT1ryjepwDLl3de1KwEloASUgBIwMQIqsExsww1wuSqwDHBTKoUUGBgofc4SEhLw66+/yknIbGdQWlqKt99+G8nJyWjWrBmaNm2KRo0aIS8vD/v370dhYSGcnJzg7+8PS0tLEV+nT5/GLbfcgh49emDatGnYsmULsrOz0a5dO9ja2so3wsePH8fRo0dhb28v41pYWEjmOWXZkSNHDBuWkUWnAqv6G2ZqAsvMwgKefn6wtLFBSlwcnDw9YWZpKb+nqMrNyEBjc3P0vf122Dg4YOMvvyDz8GFY2trCmV8jGjdGTloa8rOz4eLtDZw9Cyt7e/mz37pnT/j364cdc+di74oVsLC2lmfOAijKzUVZcTFOnzgBOxcXODVtisZmZig6fRrZaWmwdnCQWHhxfMZRndNxq/9m1N0IKrDqjrXOpASUgBJQAkpACdQzARVY9bwBRjw9hQMlA8VCdS4VWNWhV/vPUmC98sorknX1+eefo7i4GCNHjsTrr7+ODz74ALGxsZg0aRJatmyJoqIiNGnSBE8//TQ2b96MsWPH4tFHH5VMq5ycHOzduxejR4+Gj48Ptm7dKllYfOadd95BVlYWrKysRH69+uqr8PX1xXPPPQczMzOcOnUKCxYswHfffVf7CzahGVRgVX+zG7rAsnVxgbOXF4r+j72zgI7q6trwxl0S3N3dJTgUdy1WrKUUK15aKl+pt1CKU7xAgUKB4g7B3YJrkCDBQ4CEEOBfz26HP6XIJHeSzCTnsLJIZu498p57b3Keefc+9+9LkpQp5dHDh1KuTRu55+sru+fPl7oDBkgid3cJCgiQxO7ucmLTJj22QseOEnD3rkKug8uWSW4PD8lQoIAkTJ5czuzYIUfXr5ca3bvLk+BgBU1BDx7o+xTv/fvl4NKlkqdSJclStKgeQ/2XqWvpUinZtKlkK1lSHt69q69dOHhQCtasKamyZZPY8eLJuV275NDy5QrLHgcGKjy7deGCPH70yPqEO2ENBmA54aSYLhkFjAL/r0DevHn1U8r9+/cbWYwCRgGjgGUFDMCyLGG0raBEiRJSoUIFGTVqlKVPug3Acu5L6GUAq0iRIjJmzBjx9PRUpxXXAdDqxo0b8uOPPyqsWrx4sYKtDRs2yIQJE+TBgwc6UKBU8eLFpV+/furWAoTxdw3nA8Fwe3Hu2bNn5dNPP5X58+fL9OnTxd/f39J15twqR07vDMCyrntUBlhJU6eWcm3bqqMKt1MMETm5ZYuUatZMzuzcKRcPHpR6gwbJlRMnZPPkyVK1WzcJDgqSQytWSK0+feTwmjVyaNkyKd2ypWQqXFg2T5kiJZs3V6fW6W3bpPoHHyh82vrbb/L0yROp3bev+Pn6ysYJE/ScXB4esnnqVIVSlbt0kUMrV2o/spcqJdtmzpSLBw7oBFbo1ElylC4tnpMmCTm04iVKJEfWrtXvyaWVNndu2T5rlsIue8MZrV8ZEVeDAVgRp7VpyShgFAiDAm3btpXUqVPLiBEjwnC2OcUoYBQwCvxbAQOwzBURVgWqV68uDRs2lD59+lgCCwZghXUGIua8lwEsQgABlwAsIAghgh9//LHCrHbt2gnXxo4dO6Ru3bry3XffyaZNmzTkkDJkyBDNpwXASpIkiXz++eeydetWhVw4+oYPH66was2aNereGjp0qNZliuMVMADLuqZRFWDhWireqJFkL1NG/K9fVzfTlunT1Y2Fu2rnnDkSJ148Kdawoez64w/xPX1a6gwYIFeOH5erJ05I2bffVsh07dQpafb115I0TRr9nnq3z5wpOLsqdugga0aPlkuHDkmKzJkVYJ3BPbV0qTT6/HNN4L51xgyFX8UbN5bjGzZIzvLl5fbFi7J52jQJevhQkqdPr+26Z8youbOePn4sB5Ytk5vnz0uNnj3lSVCQtnXl2DHZMWdOlMypZQCW9fvY1GAUMAqEowJdunTR/BPffvttOLZiqjYKGAWiiwIGYEWXmXb8OA3AcrymzljjiwArZsyYGhrYrVs3GTt2rOTLl09y5MihDipyXAGmMmfOLOvWrZN33nlHpkyZIn/99ZeGCtoAFu49jiN0CEB18eJFzafF3zc4uLy8vDQ/Vu/evQ3ACseLwgAs6+JGVYCF6ylflSqSv3p1hUGJU6SQdWPGSIG33pIcZcvKxl9/VYcTYYWbJk+WRClSqEvq1JYt6pjKWLCgOqIe3L4tTYYOlavHjqkji3DA4MBAKdqggaTJlUvWjh4tflevSsZChaTyu+/KthkzFIY1HTpUTm/frrmwPDp0ELd06TQUEQfX5SNHFGyR4J06qr7/vtzw9havlSs1ZJCvQrVqSbo8eSTA31/hFn0ErhkH1suveUK1Z8yYoc9lX19fSzcGTj3ylpliFDAKGAVUAQOwzIVgFDAKOFIBA7AcqWb0qssArOgx3wAswvxIrL5kyRJNuP7222/LihUrNCcVbqpevXrpe+RDGzx4sEybNk3DAAkXJLn7pEmTNMfV8ePHpXPnztKiRQtN4o6Di+/5AoaRtJ1nEh/SAcoGDhxoAFY4XmYGYFkXN6oCLJRJmiqVFGvUSK6fPasOKcLx0ufLp9CK0L6qXbvKrYsXZePEiVLwrbckX9WqGqqXPn9+yVq8uOarunzsmIKpxClTKmAivI9k7FmKF5enwcHq6grw85P8/+xsuH7sWHVe4cAi7xW5ttj18JKXl8KtUi1aaL/2Llok92/dUhcWCeMJd9wxe7aCNnJdEVLoc+SIuGfKJIdXr5Yb585Zn2wnrcE4sJx0Yky3jAJGgb8VMADLXAlGAaOAIxUwAMuRakavushjRO6j0aNHmxDCKDz1pC2oXbu2uqqePn2qc02idRxWOK7YIbBcuXKCq4pP8dlVcNGiRZoPC2dW/fr19RiOxYlFvitCC9ldkNBC3Fe1atVSeEXduK/Im4Ubq1KlSgq52OnQFMcrYACWdU2jMsBiV1HyX+Fa4vsY5J8qXVokRgy5dPCg7hgIbLp46JBkLlJEwdaprVt1h8DcFSrozoEnN2+WBOxG6uGhuxUCrwjnS5A8uYIrIFPsOHGkTOvWkiJTJvGcOFF3FcxWooQmdcdNxY6CAffuifeePZIyWzbtA7se4u46tW2bAq0c5crpjoYkmT+5aZP437olz5480dBH8mtFReeV7eo1AMv6fWxqMAoYBcJRAfKNsMMPn26aYhQwChgFrCpgAJZVBaPv+eQvSpYsmfj4+FgSweTAsiSfOdkoEGYFDMAKs3TPT4zKAMu6Om+uIVacOBriV6FDB7nt4yN7/vxTdxc0xX4FDMCyXytzpFHAKBAJCpAolU9B2MbaFKOAUcAoYFUBA7CsKmjOt6qAAVhWFTTnGwXCpoABWGHTLeRZBmBZ0xAX11u9eqnDauVPP2mid5yYptivgAFY9mvlNEdmzZpV4+ZJOLZ37175/fffdfteClZm7O2NGzeWpEmT6mvcFMTtL1y48PkYgAJNmjSRqlWrqqWZggV6wYIFsn379ufHUUenTp2kcOHCz18jJ8CcOXPk9OnTz1/LnTu3dOzYUe3PtrJ//37tG/W6Qt88PDxUk5C6rVy5UjWxFbTimGrVqv1LN7Tdtm3bv3RDD7ZdtpWw6kZOBOY0ZN+okzkNS9/4BJk5fbFvc+fOVYu8rbxqTmfPni137tzRw6z0jWuW/ofU7WV947jg4GB1YdkK1x5bTF+7du35a+SkYMdCNzc3fe3Jkyd6LTM32PhtpU6dOtK8efPnPwcFBWneivXr1z/fMYhP2Js2baq62wo7BNHmwYMHn79GeEHr1q0FrULTN0ISGDchB7Z7l/Nf1TdCC+gnxdF9K1q0qO6gZNONvtl0e1PfyP+Bbq/rG1uGo9uBf7b+ZQzoRj4R8orYypkzZ9Rlx5zyHClbtqzOiylGAUcrYACWoxU19YVWAQOwQquYOd4o4BgFDMCyrqMBWNY0jBM/vsRPkkRD/AgpJMm7KaFTwACs0OnlFEcXLFhQZs2aJeXLl5eHDx86RZ9MJ4wCRgGjgKMUAGyR9Pajjz5yVJWmHqPAcwUMwDIXQ2Qr4CiAxS545Gs6duxYZA/JtG8UcHoFCP0lqT4fjpGTLOSHoE7feSfqoAFYTjQZ0bQrBmC54MTbABYJJAMCAlxwBKbLRgGjgFHg1QoYgGWujvBUwACs8FQ3atedKlUqdYgeOXLE0kAdDbBYlJtiFDAKvF4BABaw1wAsa1dKVAVYJF4vXKeO7kB4fu/eUIf1JUyeXPJWqaKJ1k9v26aJ1COjkHYlTa5ckq1UKTm7c6eOJ6oVA7BccEYNwHLBSTNdNgoYBexWwAAsu6UyB4ZBAQOwwiCaOUUVIKyc3eM+//zzUC9uQkroKIA1YMAADWtndzxTjAJGgTcrYEII36zRm45wNYDFroKApTKtWknMGDE0ZO/4xo2yb9EiCf4nPQdjzliokFTq1EkOrVyp0Cdr8eKyd+FCu3fzS50jh1To2FF3K9y/ZIk8efz4pVImcneXip06ab3bZsyQ+7duSYIkSaRo/fpyZudOueHt/aYpeO377EJY4K23pGCNGrL1t99018OoVgzAcsEZJd/OyJEjNSdSYGCgC47AdNkoYBQwCrxaAbYhb9mypXz33XdGJqOAwxUwAMvhkkabCqtXry7sjNunTx8DsKLNrJuBRiUFDMCyPpuuBLDiJUwoJZo2lYwFC8rZ3bvFx8tLAdajBw8kXqJEEjNWLCEnVdDDhwLoSpo6tfjfuCEFatSQVNmyybaZM+XWhQsSK25cSZ4unQCH/K5dU+jklj69SIwYEj9xYq2PNOxJU6WSqydO6OspMmUSdhwMCgiQWxcvahsUXF7l2rSRB3fvyppffpHHgYGSv1o1yVqypBxYskTO7d4tcRMkkKRp0+omVvd8fXWXwqRp0kis2LElbsKEWo/f1avaj9jx4ol7pkzaj+DHj+X+zZuSJFUqPZa+xI4bV9wzZ9axPg4IkJsXLuj5jAeXGM4x8t/eOn9eAu/ft36BREANBmBFgMiOboIkzoQPrl27VhNVm2IUMAoYBaKSAmykkC1bNjl06FBUGpYZi5MoYACWk0yEC3bDACwXnDTTZaNACAUMwLJ+ObgSwMJFVb1HD9m7YIE6q+Sf3f7iJEggQJDEKVIotLl06JDCq8QpU2r4YLm2beVpcLBcPnpUjqxZI5mLFZP0efNKQjc3ObtjhxxYtkyqd+sm1PP02TO5eOCAJmZPljatLP7ySynWuLEUrVtXXVjxEieWtaNHy+nt2yWxu7vU6ttXwVSCpEll48SJkjxtWqkzYIA8evhQ6zm6bp3kqlBB0uTIoQCMPhxcvlwqde4suLce3b8vidzctL4ds2erU6xsmzYSHBio4YvnDxyQPJUqyY1z52T3vHlSqHZtyV+9uo4d+LVi2DAJvHdPan74obaJ+wuYt/333+X4hg3/cqVZv1rCpwYDsMJH13CvlQvfbLkZ7jKbBowCRgGjgFEgiilgAFYUm9AIHI6zASw2uihevLicP38+AlUwTRkFXFMBdtr29PSU+fPnmyTuFqbQVQAWzqqSzZpJtpIlZd2YMf/KBYX7qPm338rtS5fEc9Ikue3jI/U/+kjhzZ4FC6ROv35y4cAB2TlnjpRq0UIyFS4sm6ZMkdLNm6tb6ejatVLtgw/UjeU5caLcu35davTsqUALFxWw6dCKFXL5yBGpO2iQ+Bw9KpsnT9YwRkINCRUs1ayZhvj5njkjTYcOFe/du2XrjBlSvl07yVGmjLq/shQrJm4ZMihEq9Chg1z39hbPCRMUWDEGoBOvA+B2zZsnT4KCtH6A2Klt28TP11dKNW2qoIu+1h04UM7s2KFQrEavXnJh/345tmGDFKlXT3dE3D5rlrq9nL0YgOXsM2T6ZxQwChgFjAJGAaOAwxQwAMthUka7ivLlyydFixaVuXPnWvoQ0VE5sNiFMGHChOLl5RXt5sIM2CgQWgV8fX0V9i5dutQArNCKF+J4VwFYJGUnJ1WSlCll44QJcufyZR0FJhAcVXX691dAdWj5cnVf4YwiXxRQp2q3brLrjz8UDDX7+msN37t26pSG9gGWCMur0aOH7J4/Xx1TOKNq9+snD27dkof37kmKjBll/fjxCoMafPKJ3L58WfNu1e7TR11V/rduSers2dWZ5X/9utQbPFjh0SUvL4VMKTJnVuCGg+vgsmXCWEr+A6KuHDsm1bt3l4d+fgrgcFutGztWfE+f1vFlKV5c+3Zg6VJJmTWrhjWuHTlSnWL0hbBCQhqLNmggy3/4QeLEjSuVunSR8/v3a1u2UEcLl0i4n2oAVrhLbBowChgFjAJGAaOAUcBZFDAAy1lmwvX6ESdOHIkbN648ePDAUucdBbBMEndL02BOjoYKmBBC65PuKgCLkD7cTGlz55YNEybItZMn/wZYMWNK8caNpViDBrLip58U6OQqX15Kt2ypLiYAF+6oDePHy92rV6XJ0KFy9dgxObxmjebPIkwvX5Uqmstq9S+/yPVz5yR9vnzyVq9ecnLzZnVGkVdq/dixGpII2DqxaZPEjhNHgRIOL/JTEaZ4bs8eefLokZRq2VKWfvONBPj7S60+feTm+fMK1ggXJM9V6bfflowFCmh7hPyRBJ5zqTNHuXKyZuRIDRlkbIQMFqlbV7ZMnaq5tdBh7ahRkjJbNoV0JJhPljq1hiGuHDZMUufKpY4xAFpYdl+0fkWFvgYDsEKvWaSfwR9QKVOmlGvXrln6BDDSB2I6YBQwChgFXqIAz7hEiRLJXRewMZsJdD0FDMByvTmLaj02ACuqzagZj6soYACW9ZlyFYDFSHEjkesJJ9UJT08NEQRKEcqXJlcu+evLLyXQ31+BVm4PD1k/bpwkT59eijdqpCGAPocPq4uLXFmHV67UXFEB9+5JhgIFJFm6dAqpCB/MWa6cHrd5yhQFWMAtnFnp8uSRRClSiPeePZK9dGk5vGqVHPf0VAhV5f33FVD537wpRevVky3TpikMK9OypebSwt1FSCLguZKhsgAAIABJREFUDbgGnFrx448Kz9hlkNDFxKlSSdWuXTXEkFBEkrTnq1pV+0B9OcuXl3zVqsn+v/6SzEWKSILkyWXXnDlStGFDTfZOf7OXLav5utaNGyc3Le6AaP3qsq8GA7Ds08mpjsqaNasMHjxYPiT52qNHTtU30xmjgFHAKGBVgUyZMulW9ZMnT7ZalTnfKPAfBQzAMhdFZCtgANbrZ4CNPPgdcOXKFdm+fbtLfFibKlUqqVChgpw5c0aOHj2qeXJMcT4FDMCyPieuBLCAPtlLlpS0efNKzJgxNWk5ziW3dOkkdvz4cnrbNg3TA+4AqU5t3aohh7krVlS31Znt23WXPxxahP4FP3qkYX64mtjVj7A7Qu5wVgG12EEw6MEDBUzUBzDz3rtX67TVj6OK/Fy0Sd38TJ4udiPkfNxZuKqon7pxbwHCeP/srl3qxAKeEZJISCNgjJBDnjmEEbIbYqxYsTQUkqTteSpX1oTx7IZ4dudOBXYkfge8XTl+XN1jADNyYwHnXKEYgOUKs/RCHwsWLCizZs3SnQgDAgJccASmy0YBo4BR4NUK5MmTRzp37iwkKDbFKOBoBQzAcrSi0ac+FkAsDB4/fmxp0M4IsAibwf0aO3ZsCQwMtAxg0KpYsWJSsmRJWbVqlVz4Z+t2e4QjWT4f0k6ZMkWWLVumeb7Q/f79+xIcHKxV0N/EiRPr/4R0hueu3LbQUf7mfhWYAozQZ3YK/9///if3HLQQLFSokDRt2lRWr14tO3fufC4f84RORGSsWLFC7ty5Y4+00f4YA7CsXwKuBLCsj9bU4IwKGIDljLPyhj4ZgOWCk2a6bBQwCtitgAFYdktlDgyDAgZghUE0c4oqkCVLFsmVK5esX7/ekivIGQEWkKhOnToCMBk7dqzcuHHD0qwDnBo2bCgtWrSQn376SQ4cOGB3fRyfJEkS6dWrl6RPn16+++471b1r167P60mRIoVMnDhREiRIoMedPXvW7vpDe2DlypV1LCNGjBAfH59Xnt6oUSPty6effip79+59DttC217I42vXri1ff/21DB8+XObMmfP8rXjx4kn37t0le/bs8v3338vlfxJUW2krOpxrAJb1WTYAy7qGpgZrChiAZU2/SDnbAKxIkd00ahQwCkSQAgZgRZDQ0bQZA7Ci6cQ7YNhVqlRRyEMah2fPCNQIWwlvgIVjCLCBM+lF4IJjiXC33LlzK/zB0UTYm7u7u/Ts2VMAQzNmzJBdu3apq6dIkSJCSF9QUJAcO3ZM/Pz8FOThfuJ1ktqTr/DkyZPqkMqcObNky5ZN3Vx58+YVDw8PBSwnTpzQn6kf7U6fPi2XLl2SjBkzStq0adVhRV3sEoeDad++fQrSGAdAq0CBAvLzzz/L9OnT9fxWrVrJxx9/rOCGflNX4cKFtU8Uxn38+HEda/78+bVu3FOALtxg/J4BjtEu4+RYNzc3fR33GG6rI0eOaD7GHj16qJOMtnfv3q2a0S/OffjwoZ5LHfx9DmzDLTVv3jwdG+/TJvrFjx9fNfD399fX+DlnzpzaL29vb+0n80ChjxxD/0uUKKH6oQ3np0uXTttGW46nTQOw7LsXDcCyT6fXHWUAlnUNTQ3WFDAAy5p+kXJ2jhw55JtvvpEOHTqYHFiRMgOmUaOAUSA8FSDPH59kjxw5MjybMXVHUwUMwIqmE++AYROyhROnT58+Tg2wCCv75JNPFCr9+uuv/xo5cKZSpUrSvn17hUzAJmDVuXPnFNQAuDw9PWX27NmSOnVq6datm9y6dUt4LgNl+Orbt6+ULl1aoQsgBWgFdAJwffHFFwqBACrAFdrjPYDXoEGDFKrxPXAIINW4cWN1Vp06dUrrA1wBp4BoixYtUlA0dOhQhW1Apc8++0yuX7+u5+IWo2/9+/dXeMaYcSbxdzL5s3BCUT+/TwBCtE1IIm0B1QBIvr6+CodWrlwprVu3lmrVqmk/gFt//PGHjunzzz/XfpCPa/HixdoXnFHUhzOMfo4fP16AI8OGDdP+oVPv3r0V1I0ePVpu376t8A4YB8Ai3BCIyNjQftu2beqoYoxAOPr/ww8/aJ0AKnJC7tixQ1/DnUZ9wC2gFpobgGXfDW4Aln06GYBlXSdTQ/gpYABW+GkbbjXzC5c/JPgFbJJEhpvMpmKjgFEgkhTgGcfChz/gTTEKOFoBA7AcrWj0qc/ZARZgAwhTvnx5dQzhljp48KD89ddfsnHjxuchbQASnrO837JlS805CCQBzgGkbMBp3Lhxeh7/f/DBB4IDDQBTv359BV/kKQQgkatq69atCmJwpwFZ1qxZIwMGDFDQxYcR9erV0/xaP/74ozqdCMcbM2aMuq/ee+89dVMBkbg/aYtzaBtwNGTIEAU0OJwmTJigrqZvv/1W4Q11AbD4HkB09epVqVq1qkK2JUuW6Pfkx7K5tXBU0R5zCeDy8vJSGEn/3n//fQV+ALx27dpJkyZNtO26deuqu4t2bGAOFxauK+ARdbVp00Zh2FdffaX9AHrhlCIXFn2z5e7iw2fqBbbh0AJkoS/tXbx4UeeBPFrojNsLsMVrv//+u8JA+kIbOMw4BmcXbRmAZd9zyAAs+3R63VH9+/WTD1q2FL9r16xXZmowCoRCgYd+frobZLk2beST8eP1d0ZYC7/r+KCkX79++uy2UmKIaPJ8U4wCRgGjgFHAKGAUMAo4XAEDsBwuabSpEHcO8AaQ4YwhhAAioAgfcgJpACc4gYA6N2/e1A89+aOdsED+aGfHV2ALrivGxNh4H1cQ7iDAFOCFfFh8qIDLCQDFJkKAICASbiJC/Qh343vcTkAZwFmzZs00Afn8+fMVkhEGSF8o1Ec7ACggGrmjDh8+rHXjcMPRtGHDBgVYwB4cW0Ak+gLIyZAhg36QS3gdfQdqAdSKFi2qfSOnF3mj2BEQMIUriz4BwOgLIYXklrr2zyKcMMSKFSvqe9TFXNMucAmnF32nHdrnGYJbijYAcIBAABQAD6iEw4xjef3FQgggwImx4hZD599++01BGRs0kdeLMmrUKL3G5s6dqwALDRkDkBJoBjhEZ8I5mQcDsOx7DBmAZZ9OrzuqX58+UiN9ejkfirx21ls1NRgFRHeMZPfEOv37y5AJEwzAMheFUcAoYBQwChgFjAJRXwEDsKL+HIfXCIEF5CwCrDgjwLKNmxBCgAghhACbkAUghEMKBw9hgriHgExAFQAWziwACQt9zsUBRPJwnD6PHj1SoEVo3IsAizxahN7hnsLBtXbtWv2e+w1XE64joBFQjBA76iEMDsdYSIAFgKIvgDf6ZwNYJEUH+BC6Rx8XLlyoP5NgHVhEPeSQwrlFCCMhkvSbkEGOswEz6mEc7JBIOCIQjLls3ry5tG3bVrWxwTfcUridgFn0C1cX4AxQhuNs3bp1Qj6zUqVKKcACIgHNcHyhIYCLkEBgk22XRMI2Ob9GjRoKFXFZAanoN4nuCUEkRPGXX37R+WPDAAAWYwGMlS1bVr788kuFZbxOG+htAJZ9d70BWPbp9LqjTA4s6xqaGqwpYEIIrelnzjYKGAWMAkYBo4BRwIUUMADLhSYrinY1vJO4EyIIkAFqkFA8ZMF1BSQhtI2cTgAswA/5qXA/AYRwAgFo2EEQ9xEQBQiDWwlXF6GBLwIsQBAhe4AbABXtAsbIo8VrhBwSZkfIB/CM9nFH0YYNYBHOh6MJFxPvAWhsAIv8T4AlHGBAG/J1VahQQQEZAIu8WUApQkIIdSTB+cyZMxVW8QVIAnLRPm4u3F/AOaAR/SGfFXVS95YtW7ReW0gf59F3wvhwofEzfQXYkWMLF9s777yj7jX6vGnTJg2hJH8YObCmTZum47UVnF7ktEJLIBrjArjVqlVL2yb/Vr58+dSFRb+pc+rUqaoJOXDJE0b75A6jj4RCGoBl38PCACz7dDIAy7pOpobwU8AArPDTNtxq5hMY/qAg6abJgRVuMpuKjQJGgUhSgIWRLTwkkrpgmo3CChiAFYUn10WGFt4A63UyEH5XpkwZDb3DDYQLKDAwUGEWP9esWVND9IAw7OyH4wnnGQXXD+4z3Egcy9+hOLNwE+GmAsTw9ymOJFxPgCzAEKAI8ANYIuk5oY6E4pFrCviDYwpIxmsUgAwhezieADj0l9BDYA35vXAzbd68WXfkA4xRD6CMfFf8/qAexkR/bbsi4rLidcAaY+ZY2gA6AZmoA3jGeHGKEf63fPlyhXaEZTJG4AdjpA3a5m9wcjUSgkm9wD9cZwA+2gCikScL+EZYoq0QBogjjTbQmV0c0Ys2qJeCU4w5IVE7wOvQoUMapglwBG5RaBvdqR99TXmzAgZgvVmjNx1BDqwu9evLbR+fNx1q3jcKOFSBwHv35Linp3i8844MMTmwHKptuFfGL38+geITIH5Bm2IUMAoYBaKSAixI+OSeUAxTjAKOVsAALEcrauoLrQKRCbBC29fIOJ7E70AgdgEkVNBKuGZE9Z+E7YRWAucI6QPcmeJ8ChiAZX1O+vXtKw0LFJArx45Zr8zUYBQIhQKPAwPF9/RpqdGrlwFYodDNKQ5lFxbs3Vi9+WTKFKOAUcAoEJUU4NN4EumSJ8QUo4CjFTAAy9GKRp/6cB3hzrEKJwzAev01g844qtAZd5IrFK4L3GQ40nBFuQJ0cwVdHd1HA7CsK2pyYFnX0NRgTQETQmhNv0g52wCsSJHdNGoUMApEkAIGYEWQ0NG0GQOwounEO2DY5IoifI6E2lYAhQFYDpgMU4VRIAwKGIAVBtFeOMUALOsamhqsKWAAljX9IuVsA7AiRXbTqFHAKBBBChiAFUFCR9NmDMCKphPvgGGzG12DBg2kX79+BmA5QE9ThVEgohUwAMu64gZgWdfQ1GBNAQOwrOkXKWeTTJKdUtjVBauyKUYBo4BRICopwA5MJMPF5WCKUcDRChiA5WhFo099JNBu2LCh9OnTJ9oBLHI7sUMff3eSf5WQOZKZk8CcZOYkVidROf87utjaIqQwLH/30keSy7Nj4OLFizUhuisUkudzvbFzIgncX+X6Q5/48eNryKVV/Ungz7wGBwdHyTQlzgSwmjVrptflr7/+qsn+uU65t+x1dzJXjRo10jp+++03uXDhQoRc1hEJsGLHjSuxYseWx0FBEjNWLP0iD9Kzp0/DfawxYsaUuAkTypPHjyX40aNQtxczdmyJEy+eBAcFyZPgYJFnz0JdR1Q+gbmMEz++PH70SJ6izz/F9jqaod3LdDMAywWvDB5w/LJiW2BTjAJGAaNAVFOAZxyLpcePH0e1oZnxOIECBmA5wSS4aBeiK8BioVysWDHdHXDFihUyadIkadGihf5Mrip2B2THv08++US8vb0dPrt16tTRzYtIjr5gwYJQ109OrY8//lhKliwphG+yO6IrFADW0KFD5dSpUzJ+/HjNrfWyUr9+fd39EGfgyZMnLQ0tTZo08vPPP8uBAwdk2LBhlupyxpOdCWB98803uutl27ZtdadNtB89erTd4JAdND///HOpVauWzj9zFhElogAWAKlgzZqSt1Il2T1/vqTLm1fS5MwpW6ZPl9uXLoX7UJOkTCmN//c/Oblpk7Yf2pKpcGHx6NBBDixeLGd27pQnxnTyLwnT5sol1Xv0kG0zZsj5/fufv5cySxap8v77cvHAATmwbJk8fkm+b5cGWOQiwI1kilEgtArwyRJbFN+7dy+0p5rjjQKWFWAxwB/S/CFlilEgLAqwbbq/v39YTo325xiAFe0vgTALgDO0a9eu6nawFf6OOHHixL+Sjbu7u0uBAgUkQYIEz4/z9fVVEMHmO0AUnv/sspc7d25hIWorgCC+cDVRgC/Zs2eXTJkyCb87KMB9QEWbNm3k4MGDsm7dujCPyZ4T+VCB0O5OnTrJ9u3bZd++fbpL7OXLl3XBXbduXV18T5gwQa5cuWJPlf85JnPmzLq7NnrQFm2i640bN8TLy0vq1asnkydPlo0bN4a6/sKFC8uXX36pTqaZM2dqGCibhMydO1f7j+uFucJZ165dOx3b1KlTQ92OvSeg1XfffSd//fWXLFmy5JWn4YR67733dNMmQMWr4BS79vbt21fef/99OWZxZ7i0adOqI4i/kb/66it7h+Qyx0UEwOLazZEjh2TNmlXvWT8/P72n2amSkjJlSoWoOBpxnN+6dUvnmefAjBkz1CHI/Z8vXz41LHA+84q7jmcB7zFPuLb4sI96uS95trA2dnNzUxcX9+Lp06cd/mFgRAEsnDgVO3cW9wwZxHPiRMlaqpQkSJxYvFatkvu3boX5mkuaOrWCsSwlSkjgvXvqsLp48KCc8PSUwPv3n9ebMmtWKde2rRxbv16ePXkimYsWle2//y5BDx/a1XaG/Pklf40acnjVKrl+9qw8fYk7NWGyZFKmVStJ5O4u5/bskaINGqjba/FXX8mj+/fFLUMGqd69uyRPn162/vab9tHRJVbcuJLbw0OSpUsnXitWyMNXbJyRq3x5yVK8uOycO1ce3Lplt1PwZf1lbjMWKiR5K1eW/YsXy83z558flqVYMZ33HbNmKdhifl4sLg2wxowdI/mq5hO/h36OnktTXxRXIHvy7NKlVRf9I8wUo0BEK4DVf/369RKYPFD8AszzK6L1d+X2YsaIKRVyV5C3Kr0VYZ+2urJeL+u7AVhRbUYjbjw4YgBYqVKlet4o7iPCnQnxshUATIcOHXShaiv79++XP//8U27evKkAi0Xm7t271cnEItVWcDgtX778+aITiAG8qVq16nPQxUIV+OLh4WEXwGKRW7x4cYkXL57+3UOoHz+z8D18+LDCNhbSLIz37Nmji+W8efPqYhmAxu8sXmdBfv/+fcmVK5d8+OGHcvToUYUwLMYBQIyHDwhr1qypGrHgZtzXrl3T/idOnFijBwBSwDxyurKIz5AhgwL5Xbt2CaBvxIgR2m7Pnj1VFhbrFSpU0GceQCBnzpySLFkyrY9dCoFaQADAYZUqVXQ3QFs7jA8HF3AHaAUEat++vQKfM2fOyMCBAxUu4DD7+uuvFaCNGjVKxo4dKyVKlNDwLMACsIB2GD+J/Ok7fQFgbt26VeEBLhrGAjygXcZIv+k/2vIzUI5nEHBow4YNGtK4c+dOhVSALeAHLjZeIySQvGufffaZAi/0pg3qBkzYCgCL+Vi2bJn2Ey03b94sV69e1bnDocX1RvglYAoN6A91ca1yfXDstm3b9HgbwEIProHy5cvr68wN9TLWIkWKqDZowDW9adMm1YnXkyRJonPB/DNeroGwhH6Gx50dEQCL+4Q0L8w7EInrbMuWLTJgwADVCCDF34DZsmXTENGFCxfqcwC90JFnANcj1wnacj0DbwFbXAs8E7gOgVbMK9c3dTM2/ud+ZF6YV1ySx48fd6iUrwJYhPuly5NHgh8/lqsnTry0zdTZs0v6/Pn1HgGUPLhzR66fOSOZixSR2PHjS8LkyTU88OKhQwqXavfvL3evXJH9f/0lqXPlkuunT8v927cldY4ckjZ3bh0nbiyfI0fUoZUyWzYJevBAAvz95QGOxadPJUHy5JIgWTIhpM/39GkpXKuWpM2TR3bNmyfee/YoIImXOLFkyJdPJEYMAXDdOH9e+5E8XToJ8POTYg0bSrI0adQRdHbnTg19o8/crze8vRVQAWRwjSVNlUru3bih9VKHj5eXJHR3l6wlSkjcBAl03ACzRw8fStF69XQcuMoAZsAqzlnw2Wdy7/p1BTyVu3TR+3XV8OFy9dQpyVqsmI4n4N49hVy3Ll7UfjJ2yv0bN+TCwYN6TObChSXOP22iUWJ3dx276ubjIz6HD0uOcuWkVIsW6nTyWrlSvPfuFdxR7hkzKtCjnbtXr0riFCmkUseOqtvDe/cksZubjgOt0TZ1tmw6f1dOnNC6AFH8PmAemRuuD+b7wr59GjbIa4SH+hw9Konc3FQf+pU0TRptf8k332jbLysuDbCGjRwme+PslZNXrdllHXpXm8pcQoEelXvI+I/GG4DlErMV9TppA1ijDo6SU9dORb0BmhGFmwJxY8eVcR3GybtN3jUAK4wqG4AVRuHMaQ5TIKJ3IQRc0SbXPiAEUASkAQIBSgAgwAvCAVkcE65HuGTv3r1l7dq1ClpwW7E4BmSRawe3EiAFaAK0AOjYwpkqVaqkC3GgEg4xYBL5pwAg1AvcIhywVatWCuEAQyzG6QuL7xcBFvWNGzdOCLni92evXr0UltEn3vP09JRZs2YJOYWAZ6tWrVIAhwtm0KBBggMLCAh8BHgBF8kdRD8mTpyorqzOnTvr+WiAw46QvSZNmijQouC+AywCEchDC5hgbAAsoBBhXBzPWAB2aAT8AZbh/ALwAYJ++OEHBYaEW+K+WrRokdaDuw1YARwEegG4cNah7U8//aRuPcbJ/E2ZMkUhR0iARaghgI85QWP6MW/ePGnZsqXCMX4GOAE5mCfAIYCK43G5Af7mz5+voIXQQcY0ffp0GTJkiMIo4BnOcbSlz8wbIBE3YI0aNfQ6wRlMvwFvHIdmLEj79++vYabOUCICYHXs2FF1J6QT0Ah84FrkuuZnNAI0cg9xfQBWuRcIEeW+QGd055pnHrhWAKO4BQGxAMTBgwfrvPEzIYhcI9zfQLBvv/1W4S6vce8yj450bL8KYAFMKr/7rgILz0mT/jXdgB7ASYUOHTSvkZ+vr+SpWFFObd0qO2bPltbDhqlDCTiUv3p1Obx6tX5fZ8AAObpunVw5flxq9OwpW/5xRlbp2lVhFFDG79o1iZ8kiRRv1EihDDAqVdas6pzi+7xVqsiF/fvFe98+BU4lmzSR7bNny5nt2xUW8VrqnDml7oABOleE+3nv3q3nZS1eXPYtWqQuqTtXrqgD6sHdu1Kkbl0Fa8AW8lzhIqrQsaN+f3rrVrl16ZLk8vCQRw8eyOYpU9TJlSp7drl28qSCnWPr1ml/qr7/vhxZu1bDFEuQE61mTXV7rR8/Xs/1eOcdcc+USfyuXpXNU6cKLqhspUrpuAlRRLMja9aoln7Xr6sm965dE/9bt6R0y5aCw+vUli3y0M9PgZpH+/YKvMgpRjjmpsmTVasyb78tpzZvlkv/QK5CtWpp/wjnS5Mrl2wkT5uPj1Tt1k3by8CHHvnyydJvvpHr584pwOKcnOXKyZZp0zRXWbUPPpDLx46JW7p0Ei9JEnVZZSxYUA6tWCHn9+2TKu+9pzBv319/SanmzSVtzpxy4cAB1Y15XPrtt6qBAVjO8OQ0fXAKBQzAcoppiLadMAAr2k695YEbgGVZQv0jn0+sWVTZmyzXequmBqPA/ysQXgCLhRiwyhaSCDjiE3Bex+0BmAKKABpYKAOjgCy4OXAcAa9YJANvcH2wuOY+wWEErAC+4BwB5LA4BlqwOAZ0AUkAPyzaASGAIVseQ/qEK4dQPSAPLhLbQh1ghAsK6GO7H18HsKiLfgGjgEhoCTziHPoB5GEs9Jf+kK8LJwqgi8U+7pd33nlHgQ2LfQDUL7/8It9//72CAdtO39QB4OPcpEmTqhsMtwshXuTTwkVGriigE7/TR44cqYAOjYATAAsgBJCN+qkD+IQbCVcSkIGv2bNnK+QBpuGMI2wMgISzDYCBM46f16xZoy4cXHPUz5yFBFhAEIAI9QM0bAnr6Tf1oAVghPBIYB/zgQsPhw5jwJFGmCrzRl2AEyAhoGTMmDFy5MgR1Q/HFjpzDi45FvwAMa4v+glsWbp0qUI2QkvJzQREBNI5QwkPgAV0RD+uHZyYOCq51pkPwJEtpJD7D5DIPUZ5GcACKgJSCXkFaHFN4uSkXq4xQlxx0FEX97YNYDFvQFquf65RgCnXKX3h2vbx8Xmt/FzrnH/p0iUFydT9qt+PLwNYxRs3lkK1aysMAaoAIE5s3Ch7Fy5UYBUrThwBOgFNcBLh5qk7cKDCm0teXlKzd2/Zv2SJHNuwQeoPHqznA7Bq9Oghu/74Q/teomlTWTeG6KuqGlq34qef5P7NmxIvUSJp8uWXCsU8f/1VCtSoIUXr19f6shQtqonYAWoAlPLt2imUWvXzz+qcouCaAgxV7NRJ29/z55+ar6pW377qKOLnSp07y/GNGxWmAYFS5cghG8aNU/DD+YTe1fzwQzmzY4dsnTFDkqVOrQDn2unT6s4q1qCBusjO7d4tNfv2VdB15dgxdR1tnDhRHU5v9ewpSVKn1vcOLFmiIX0AnwRJk8o13JubNinE27dwoZzdtUuqdu0qiVOm1D4zXgDUgaVLJSggQIEQoIw+4ibjGgSwZS9TRhbi4nN31/aAW3d9faVsy5YKzXCO1fvoI7l14YJqRj18cQ5Oq2rduilcBMQxbuChJloXkTyVK0vJpk019A/IhmPN98wZyVa6tM45xwHkngUHy8EVK9RZBsgiKT/QklxYdy5fVkj28M4dWTdu3EvzX9GWcWA5w9PU9CHCFTAAK8IlNw2GUMAALHM5hFUBA7DCqtz/n2cAlnUNTQ3WFAgvgAWUIBQJMAGc+f333xVCUHgP0ACEwQ2DG4f3cf4ASQgbZNEKaCH/EwCoefPmCiuANW8CWLiLgC7du3dXYEOIIwXghBOHhTdACycJkAZwQpgUC20AVkgg8yaAhbsFSAPIefvttxVmTZs2TcEW/9M2Y+J7gB1OFZJlc5wNYAG0CKdk0c6CnXBBwBvjBfDgeAJ08Tq60GdCwYBShPrRPvANbQgBs4UE2sAd+jJGnGgABeAg4I5QOhxwfA/AIvzUFpLJMehRtmxZhYjoiO5AJ7TltZeVF3NgkeOLkELcN4wBkIFrCu0BWQBMG1TEuQWM4jjOA66gAQCL8RIKBzDBTce1Qagh+uASA4gBAAmppA5ACbAKHQFzhD8CQGkfsOYMJTwAFloSLsjfdja3Idc8gAogBAgCaL4OYHEdoyXXBe42QCA6c21y3wCyuDZ4/2UAi3sGkMu1DljFgcX1xfVp2+XwdfozBq47fj8yx1xlPUdvAAAgAElEQVQ7rwo9fBnAAvQAlXD94JrZ/ccfCjwAEYyfHE6AKaDRpkmTJGvJklK+bVvN65Q4VSrJXrKkeE6erMc3+OQThT44ngrWqKEgJXOxYgqegECAMqAXYInd6zIULCgNhgyRPfPmyaHlyzV/EuF49AHnE9Do4LJl6kDiPcIP14wcqY4iCgAZOIZ7CEcSbq8UmTJpInEADOALAIWz6OaFC9L4iy90PEAcQuJwX6mLqVUr7SsuIhxKADucVskzZJDkadPq+Px5FvXtq1CNPF7AN5xVhOrVGzRI60+RMaOCJMICATqMjzrRFYfWyuHDNTyy3uDBCrYAP4QaAoHu+foqFMSNhrsJ5xTnERYJUCP8EsiHG4xwRQBW7HjxtL/rxo5VxxUgb/e8eeoKYwyEOP45ZIj+X65NG9k0ZYqGiL6Y0wtoValTJzm3d6/krVhRnVbJ0qZVWLn8xx8VxAHRCC/kfPJ9AcMyFSwocRMl0pBBwhZxZp3cvFlznYXcnTDk9WsAljM8TU0fIlwBA7AiXHLToAFY5hpwgAIGYFkX0QAs6xqaGqwpEF4A63W9wkkE3ALy4LbACYJLhrBAXDTAB9xCFI7FORMagIUDC7cTwGL16tXqgmLRzWZLOEfIMwUsoQ9AIBxYYQVYhPsRRkiYHlCqVKlSGhIJtCGMjgU8YXo4lnidfhDWxbHAOzQAYPE+kAFIhBsNoIeLCHDAcbiPcMTgmGJc6AYUYIEPPCOvF/CN8QJxABAcD0TAkcT5gDlcWcAfAAYOGdw0ONj4mbaARBUrVlQ3DcfRZ4AVutkcWYAuQBjjAooAjGwFgIWmOKcAHuiDw4wdG9GENpgbICMuMIAGYwGycB7OMc4F7qAJwAmARVgnIAUHF6Gitt3PuS7QjWsGdx6akB8uugKsF+87rkdAE2GXXI/cV1wHzPPLHFgAQxxzJGAHHjMfuLAAmuQcw8XF9YhD71UAiznjmgOEEZoK7MJpzPFcE/YWNlPgmmauAZE47wgJDVleFUIIlMH9hAPo6Nq1/zonRebMCrDIzUSepQqExmXMKJumTpXCdepobqj1Y8dqKB8QBAcS4XlJUqVSBxYuIJKbAzxwUQGZts+apYCDxOK4uYBhhLMRCoiDC8cUx24YP14BEGFuQKb81arJ+nHj9DVCCGkbtxWgbe3o0ZpXipC8Ek2aaNv0iVxSAB7AEeO45eOj4YwkQAfMEFII/CHZPG0Dk4BIACTcXSmyZFE4hvPJo107uejlJWjif/Om7JozR4EWQGrvggWaLD5jgQLie/ashj5SD/0AmhHWuHLYMEmTI4e6schHhVYklgd04coiNJI+89raMWN0POSYeqt3b4VZ9AkwmLtyZdk8ebImtKd99AcUln37bXWRBQcESKUuXdSNtXbsWB1jjjJlVAdCE8k9Rv9tJX3evAr9CB/EVbVhwgQFbu6ZM8uy775TSIb+QEbGApBkzsgvBlzEpVWyWTMpXK+erPjhB4WUryoGYNl7R5vjopQCBmBFqel0ucEYB5bLTZnTdNgALOtTYQCWdQ1NDdYUiAyARY9x+rCIZoENLGFhi5OGnE44bMgPBZwhBAw3R2gAFu4NFsvkbCLHFHCJECgW4NxzvE7+KJwohKEBPcIKsAiLo5/UDzgBzgCRaIedGQEGOGII46JPOKb4H2BH0nTyDQGwcDYxTuoDqOFWAxLZnC/AKHRhAQ9cILk62gCCcGVRL043nFLkysLNRqgWcAmww4IYRxr9IZQLaIQri3OAbLwGqML9Qr+ZD5wzpUuX1tBMQBYgCngG7CI/GAAKlxfnhQRYgCoAGvCD/F+MgWNwQQE1CLckRBDd0J7wP/pCuCmAj/dweBHqx3gAWOwqybUK6ML1g564x4B3wDncbLRJ0nKAhwFYf88Ijh6ALg41vudewO3HPQB8BGpRcEpyXZHPjNBQICahXrifgFXkc+Oa4XrBIYmbCkcg1z3AFfBMfjcgp+0coCphwRTOsW0wEJonFtcg9weuRa4n7gn6bSth2YWQ/FiErJFoHEcTLigcUHsWLFBnEDoRRoeL69KhQxouh0MHhxMwDCcQCcNxOwGl8lSqpMnAcSyRNJxQQ8L+yP1EbiicRYS35a5USdaMGKGhfBTqJ0+XJmr39tYE7YTYFalXT64eP65uJgBcicaNJWf58rLixx/VLVa2VSvdEY8QPV4HzOB+ehIcrHmnNHl9UJBsmzlTAu7eVecXOaIIgwMe0SbJ5dEB95EX0LtePQVK5NgioTl9wOUFBCxQvbqGSJKAvVSzZuq6Ijl8te7dVT/CDNPlzi17Fi3ShPIAJVxwcePH1z7gfCrepIkmyMfpdXjNGslZtqyUbtFCE7cTnnhk9Wp1a6En7wH80IkwP2BhoL+/OtmAhqe3bVNnFnm/7t+5I/kqV1bIRZinrTCndQYO1L4t//57rQvgxXn0OWnatHLT21vBH/oQYrh65Eh1twHmgJKEmOLsAmbhfjMAKzR3rosey0MvQZy/t2wOeBzgkNwe7HiVKF4iCX4aLE+ePpEEcRNIYFCgPAp+5KIq/d1tA7BcevpcvvPRBWDFkBj6SX682PH0ucFzxFGF513CuAklXpx4+sfd/Uf39RkV1YsBWNZn2AAs6xqaGqwpEFkAi989wCPyW7EAxtkBPCF3DwtoYAZAAtcFIYeE4ZHkG1CBGwT3D+4iFrW273GGsGAmNJEFM89jdrfDzQPk4TXqBarYdmAD7ODIYnHOazhVONZWbDv8sWCn0F8W/0AU7t/WrVurU4hwPMYAHLD1kePIJ0XYFSFwfNEOcAXIggsMdwp1klCbftN/+gA0ADoAoRgjcIAwQeriPdoAHgACWeRTgFr0E73oN20DFugr9RBKCOiioJUtLAs9AD8AMgAXAIx+0Q7tAQwARbhzmAf6j4sH4IGDKyRQYO44hjFRB8ANSELdQDLmg0TsaEz7ABX6SJsARWAW0A3AyDFoCMxk10TqBLRQL+dwLl9AExvAQxPeQ0/cbMAyxo4W1M81gHbOUMIjhNAZxuXoPnBNcJ0TYosrEOcggJdrsE/v3lLi2TM5uWWL3c3yNxtOHBKSk6QcOMJOdDisavXpoxCHcDkbEMI9xPH8T54rQt5wP3EM8IVd6sjBRJgckIZjk6RMqfDp6ePHmmgdEAI8IhwxZDJwIFaqbNnUkQWosSWBpy7cU7iy3DJmlIRJk8rl48d1tz0S0PM68AmHET8Tesf5QB0gEgBLz3/yRPuDq+nGuXM6pgz586v7ij7RX8aPwwuIQxJ7juF93E44z9gtEABEHZpL6vRpHS+gi4T1hFrSf3YqZIx8UQhRxIVGzjFC/uInTqw6XztxQmLEivV85z92QGQs6IITDvdY4IMHcuPsWe07YX+28E/mgPBAgNzOOXPU0ZXQzU37SnJ4WyEckjbRCfcUz/l4CRNKmty5FbChD7CQhPTALnQEAgLmyCnGLoUARXaxBHjR7quKcWDZfetZO5CFXMJ4CcUtoZvEihlLK3v67KnceXBHF14vFkARMMovwM/uRVnSBEmlUfFGWu/SA0vlXsDLt54ESLklcpNYMf7uB4u+Ow/vyMOgh/+BXhzXtUpXOXf9nPjc8ZFWZVrJwr0LZfPJzdYEieSzDcCK5AmI5s07C8AChnCPx48dX2fkmTyTB48e6POAP0ZDFp5b7onc9X2eFfaUOLHjSJFMRaRSnkqyaN8i8b7xd8LMF0ucWHHEPbH7837oL+FA/9c+/zi+fbn2kjd9Xjl7/az8vuN3ueb3/0mA7emfKx5jAJb1WTMAy7qGpgZrCkQWwLLWa+c427bDmy0Hlj29ApIRZocTCXcRO+25QgFyEeKHm4rk+SEhnyv03xn7aACW/bMCdALU4iYjRxoOQVx9rVu1kiKPH4cKYL2qVdw3Hh06yOIvv5RLhw/b3zkXPxJts5QooU4mXGgAG2cshEhmLlJEwzzZfdB7795X5qWKyP4bgBVBarP4e6vgW/JupXcl6EmQPAh8oC6pP3b9IdtOb/tPLzxyeUiVfFVkkuckuX7vul29TJ4wubTzaKcLz9k7Zsvdh3dfel7NgjWl11u9xD/AXx4EPRC/h34yd9dcOXTpkDwOfvyvc1ImSSmD6g6SE1dOiNclL6lbtK6s8lolu8/9nRTUVYsBWK46c1Gj384CsHKnzS0f1vxQ0iVPJ7fv35bHTx7L9tPbZcG+BfLw0b8hVZpkaWRg3YGy/OBy2Xh8o10TAWwpk72M1CpcS2ZsnSGnrp166XmZU2SWj+t/LGmTpZXbD27rM3Lrqa2y5MASfU69rBTKWEj61uorI9eM1GcT8C06FAOwrM+yAVjWNTQ1WFPAAKyw60dYE2FxJE3HfRWawqLR1XYedcU+h2ZOIvpYANa2bds0fBLnmCn2KUBurC5duqjLLoaIxD982CEAi1C5HOXKyeYpUzSEMNqVGDFEnrnA369O1k8DsCLoTrEBrNqFasusbbPEy+f/E5NldM8oFXJX0HAY3FA+t32kdPbSkj99ftnjvUc2ndykr71V4C11cQU+DpT95/fLEZ8jguuqUt5Kki5ZOnVeZUuVTY8FYBFaU6tgLT3nfuB92XVul5z1PSvVC1RXJ9XYdWPlxNUT2mbwk2BJljCZ1CxQU9wSu6nDYsvJLeqCAGAdv3JcF62lspWSk74nJXG8xFIgQwF1k/HHAAvTnWd3SkBQQAQpaq0ZA7Cs6WfOtqaAMwEsHJZ7vffK0oNLFWDxHEkcP7FUyVtFgRLl8p3LkiZpGmlSook+d3Bg7jizQ51VgC3KGd8z+gwAPhXNXFSdVzwfYseKLRncMsj0LdPl/I3zUrdIXT2Hdo5ePqrPstRJUyuM2nV2l6w6vEqfP4B43GFlcpTRYzO6ZVRIxTk8z3iWls1ZVnaf3S3rjq3TZ1StQrW0LuAbz8079+9I4cyFJXbM2MJzlufZxVsXFdjxvEuWIJnc9L+p0CxLiiyCY8w2DupAgzzp8mhOCtxjwD3qiMxiAJZ19Q3Asq6hqcGaAgZghV0/3FR8EWbnajAq7KM2ZzpKAQAWoXDsMhlaAOqoPrhaPfwNRDhhjRo1NLF/nNix5dHWrQ4BWISRERpHMnZzP7valRF5/TUAK4K0twGsuoXrquuKRRjgCMjUwaODLqT2XdinDqi7AXcFl1TO1DllhdcK2ee9T6EVriwWT6VzlJb4ceKr8yBvurwKo1j4ka8KELb3/F5ZeWjl3wvFpGl0gVggYwHRhc/6cZI/Q35pXba1TPScqOCJNqmfenBL4AgrnrW4Llrpa7/a/dSBhUPrg+ofyOL9izWkMEvKLJLJPZMuGnlt7s65LpMbywCsCLrwTTMvVcCpAFbVrnLowiFZeXilPgsAUDx/KuetLDtO71Cn6K37t/RZ06J0C/E84Smexz312VGvSD19JmVNlVWBFY5R33u+8kG1D9QBeuHmBX2mPIvxTN/Lniq71ClcR0FXkvhJ9Fn029bfxNfPV51g+y/sl3VH1ynAAoZz/IC6AxQw0RegOYCKcMGCGQpK1XxVFV4dunhI8qbNKyWylxCvi15aLyHUuEXrFKmjYJ9n5LHLxzRUsU3ZNnL0ylEdQ7V81RTc0acMyTMo3Jq6ZapC+malmsnpa6c1d1eJLCVk+aHl+hWZxQAs6+obgGVdQ1ODNQVcHWCRV8mWr4lcOeQ6JHeTs4e4kSiakChyZ5GQ3J5CjjC+OJ7zwqsACUhqT9J2dn8jkTugbtGiRQrrHFGYK3KZMZYXx8+c8kVCd/KYRdViQgjtn1nuF3LAEUJI8njymBHKWrNGDSkYGOgQgGV/b8yRRoH/V8AArAi6GmwAq2f1npIsUTJ5+uSpXLx9USFUg6IN1A0weu1ozeUCnGpZuqUUylRIflrxk4YQ8ouNfzgQWFx2qthJpm6eqotGHjCj140WtwRu8m6VdzWv1rkb56Rx8cYyfet0BVLlc5aXHjV6yIQNE7T+AXUGSIJ4fydkxHEwZdMUaVKyiboZ/tz7pzotcHz9uedPXXCy8LMBrPm758vqw6tVufeqvCd50uaR4auGy9W7rmP9NAArgi5804zTA6z+tftLwUwF1YVJOPHkTZN1swbu+xnbZsiGYxt0DKWyl5L+dfrLxI0Tn7/Gcw0QD2z/pMEnsuXUFrn14JY+o0atHiWX714WoD1OKcBP/aL15eTVkzJz20x1V33c4GOFT7TxUb2PhLBAABrwatyGcXLq6inpU6uPuj//2veX9uH9qu8riCcX1zse7+hxHP9Ns2/UvUWuLeA9kIrnV660uRRQ8bwExAG92nu0l+Erh8ul25cU0OPomrRpkiSJl0THuPbIWimWpZg6v35Z84uC+X61+umHAN8u/TZSr2oDsKzLbwCWdQ1NDdYUcHWAxT3ErnfDhg3TBOHsakhIH0nAnbmwGGenvZUrV2oS+DcVgE+DBg00/8+YMWNk3bp1bzolzO8D1j7//HNNmv7JJ58Iu8mxqyE7Idp2NAxz5f/sjOfh4SE//fSTjB07VmbOnPmv6ho1aqS73rE7Iknio2oxAMu+mWVtycYA7HpJ+eabb/S6AKaGZRdC+1o1RxkF7FPAACz7dLJ8lA1g4VhYsGeBHLtyTBd+uBdSJEoh9YrWk5xpckpQcJC+z+IJ1xQACycBAAqnEwspHAg4q3AJEKqDO4FFJ46BDhU6aB03/G9IjQI1ZPyG8erAItfNpw0/lTk756ibgMXdtC3T1F3w+OljdR2wkH3y7Im6Jkggz6Ju/bH16kI4fvn4vwDWphObNLymYp6KsuzgMg1PfDHps2XRwrECA7DCUVxT9RsVcCYHFkCIsMA1R9bos8O2qUS1/NWkXI5yQoJ1XFGAJRyYACwcWDlS55B25dtpiCC7DBbMWFDhkbpEs5eWn1f9rPC9Yu6KQl3ktMINte3UNt0IAhBD3iueVYQvAthxT204vkGBFPUQ1oczi+cQG1OUyFZC3V2/bvxVn4s2gMXz6utmX2vyeZ5fQHqec5tPbNawZ1xkwHzgPgCLfv+4/Ee54ndFwRTgjudporiJZFC9QerGKpG1hAIu2kIXdEqfPL18seiLN85veB5gAJZ1dQ3Asq6hqcGaAq4OsOrWrSuDBg2S//3vf5IhQwbdkW769Om6419YCotldvDr2rWrAhzcXDiBli1bJqtXr3ZYaBE7Dg4cOFB27NghS5cufWNXcZYBferUqSMLFizQnRtDUzi/X79+6tz69ddfdUwvK3xInS1bNvn2229lyZIlMnfuXP35xx9/1ITz48aNs+z+og12F+zevbuOBV1DlubNm0v9+vUVVJDnKKqW6ASwALbsFsqOmuwEaU/h71N2jqxcubLuPrlixQrNGcYulTZnngFY9ihpjglPBQzACk91Q9RtA1jkpCIXDG4mCovDlIlTyrV71yRV0lQyuN5gXWQRUkO4zHfLv5M4MePoogqnwqwds6Rp8abStFRTGbN2jOTLkE/D+EauHqm5rrpV7aahf4d9DsvbZd+WFQdXaGhQjfw11HUwYvUIdXvh8ML9BUgj5hiIhhMBV9hvW37TBR8lZBL3kA4s3FY9a/RUJxaLVpwKrlQMwHKl2Yp6fXUmgIWLcteZXbL4wGJ1KvFHLoAcME6mzlalWylAB1oBswHfAKXu1bur8+rbZd9qDj5y5eGAAiC1LNNSpm6aKqd8T0nTkk2lcKbCMm/3PHV1ER4IBOO5x3MNd9X2M9v1eUKOKZxatlx6hC3aA7DYFGNIwyEamj1z+8znCegZR5dKXUINsHBg5UiTQ9ImTavuVkKsca2iCWAuMosBWNbVNwDLuoamBmsKhDfA4ndM0aJF5d69e/9ZuAKLeC9VqlSSNGlSDVPz9PSUrFmzSuHChXWRevz4cdm/f78OkoTpGTNm1O8BG7iBuIcAWB9//LEubIEt58+fV5DFopnfI4So7dq1S//GJBwuYcKE6t7gtZMnTz7vQ7JkyTR0LWfOnAqLcHYdPXr0XwKXLVv2P30jXJH+Mhbau3btmgIiFuq8Tr8YA9CK8Cfe9/b2FupiQc/5tEm/gBrXr1/XECly/dg0OHDggJ5fqFAhrffSpUuaBwitOH/v3r1y7tw5hXjsGIju1MXYeY+xDR06VB49eqTQCJ2pG9eau7u7HgdMQ7vGjRtLw4YNZeTIkXpuypQpNdF4kiRJFGxlz55d5woXGG0DxypUqKB5nPbt26d6lS9fXkMkvby8VJeQ8wZ8I+yTc5hfYCNa5MmTR+cIaJEpUyYDsKzd2k5xNtcJ92Tnzp11501AMPfV63JM8VxIkyaN3u9cn1zXCxcu1Gv+xfMMwHKKaY7WnTAAK4Km3wawOlboqI4DIBWLIpK0k1uFcL5YMWJpWA05YUii3L58e10w7TyzU/NNsZi7cveKpEicQpInSi6/rPpFQwpxJOCWwiWQzi2d5nrB4UC4DaE8uAuoF5fFrO2z9PWQAMvmnMJRxes4MOgb4Turjqx6vguhDWCxuCO5M+FA7P7F8Ti5cGK9aufDCJLZ7mYMwLJbKnNgOCjgTACr91u99XnD5g8ALO5p90TukilFJs2rx+6muKeAQ4Qok6+PJO6EHOIoJbk5yc9xZBGyB5B6t/K7ws6C7GzIphAaordxkub861Spk+ba4nsSpU/ZPEWdpYQQJoqXSPvBswznKM876nqTA+vy7cvqWuX5hYuUen3u+OizsH6R+qEGWIA4NrjgGYzjlecsz3CezXvOhe4TeEdfPgZgWVfUACzrGpoarCkQ3gAL+DFkyBAFRRMmTPhXZwmLI0SN0LidO3fKhg0bFKq0a9dOQ4SAQcCYX375RQA4bdu2VcAEtAH4fP/99wpVbA4soAfunVGjRulx6dKl0zxOABTbopkF8dWrVxXS8P+AAQO0fzh+1q5dq0m1gWmEzM2ZM0fD24BvFPLv9O3bVxfU9A1IBuS5deuWfPTRR3Lnzh19r1atWgpzRowYIf3791d4BTzCgYJTDCcTEIkQORwluLy6deumQO3KlSuqBxCLnFPVq1fXXFGDBw9WCNS7d2+ZNGmSAiTmjnNwijFWXFK0QZu4mtDwvffe07YYFyFYADPGxXygJ5oRxlipUiWFUT/88IPCK3QHVgG00OODDz5QyET/O3TooO2jO0CMvyM+++wzYXc4wjeBb4R0MgZgW6tWrRSY8TqOOebzxo0b6uZiLAAtW7ggMIvxA/2AksaBZe3+juyzuU64LgDC3JvML87D1wEsrjeO5brmmcA19CrHoAFYkT3Dpn0DsCLoGiB/FYtEHE24rii4lgBZ5JvhixIYFKgOKhYpLJwIhQEKEQ6DS0o/1XocqA8h8rnwOsdx/rOnzzQcEDcCoTTsvEVoIHWxMGW3LRaS9INFKSCNumyFfgGmbH0hxwxOMOrnOFxZuCYAVoQMsQOirXAs4UK04wrFACxXmKWo20dnAVjcxzg/2QGVwnPlXuA9/T9p/KSaXw9QddXvqkIl7v+kCZNKwKO/Q/yA6YQQ6u6FT5+KX4Cfnu+W0E2hOc89Qg85FxgPuOIZA6iisGEFkAt4nzpZ6v/vhzxT8M6zjHr8H/lryCD9pE2efbZdCvkeAAZgstUNcOKZddv/tiSKn0jHQ/uEbT9//t27oWNLmTSl1kU91JEqSSodG188rxkLz12eezfu3Yj0Z5wBWNafCwZgWdfQ1GBNgfACWLiFevXqpS4hHDUsQAEqU6ZMeZ4M3AawCCcDDF28eFG++OILyZ07t4a74fQhFxNwi3xJ/L7iGcr7OIKWL18uFy5c+A/A+vLLLxUa4eIA2gBrgFr8HsH5g9sICEOeJepp3bq1un9soA0nFHmY6D9OLUASuZoAKhwXsm8HDx5U2ELuLYAai23GwHGAGnsBFgt2QuYuX76sfcX5BbQC+ACtAETAOr5fvHixOs8AZ7RJyCP5qQidvHv3rrRv316BGRrwPjqTZ4ux4niiHc7hvVmzZsm0adMUYAGkCBkEzAEPqIP+oFmLFi1UE4AjbVAAVMwHv5cYL1r/+eef+j5ADt0AhgDA4cOHy4MHDxT4Aa9WrVql/aBfzEfHjh0VbOCyQV8AJWM2AMva/e0sZwOygZq3b9/We+J1AAtHH88P4KgNHr9qHAZgOcsMR99+GIAVfec+Wo/cAKxoPf2RPnhnAViRLoTpQKgVMAAr1JL95wQDsKxraGqwpkB4ASycF4Tw4b7AvUPI3OzZsxX2ADhYwNoAFrCCfEgUQBXhZ4Sz4aIiDA5nFE4jnFkshDkPpxG5nHA8vejAAmABQoAoadOmldGjRyvowmUFhAGk0Cb1sJhu0qSJht4BeDiPgusJAFaxYkUFQoTLcQ5AZvv27c/7tnnzZh0n7dAujqU+ffrocTiMQgIswv+AQriRAD0hHVi4jjifBb7NccbPOLAAOzif6BMACz1wSRH6R7J6xkGI4Lx58xQmAZs4F1gFTOM4wCEuMRvAwk0FHMQxxW5uhDrSxqZNmzT0j3kDMAEVaRfAVLt2bXWsAQRfLLQPwMJBxxfzxvgBk4A0nFYACcYPnCAkDL25JthZEb2YR4AZierJe0TfDMCydn87y9mhAVih6bMBWKFRyxwbHgoYgBUeqpo6nV4BA7CcfoqidAcNwIrS0xuugzMAy7q8BmBZ19DUYE2B8AJYtl7ZE0JoA1iE3eE6AqYQ8gfsAnThAALIEEIHkCFnFrCFJOMvA1i4kQiBI3wOCLNmzRqFT7iACKUDkvXo0UNdTECckAALgAJ8Idn5/fv3dfczwurIWwWAwU0GRLL1DcgGcCG5OvXiFuN48lfhOMFNRB8ZF6GF9B+X0/z588MMsAgJZGdAXG3oQligDboxltcBLEAiY8bFRn9xSbEbIn1jXIAuYBz5qQghJIcVIV3AQMAiAAuHDOXUqVPPN01CByAXTjIbTKOfADygGm4v5heoRRgZQBCdAFvoDMDE4cZ7tEHeJACXAVjW7iSZfqIAACAASURBVG9nOdsALGeZCdMPRytgAJajFTX1uYQCBmC5xDRF2U4agBVlpzbcB2YAlnWJDcCyrqGpwZoC4Q2wgE8kTic/FDAkZHnRgQXgADwBUoBUwCTyJhFuRsgboX6EIRLiB5CaMWOGOrtedGABiAgRxFWFQ4p6AVf16tVTCEYd5H7C+UPYYEiARXgbOZvI2QNYoS0cQ8AefqZvOK58fHy0bySlxlFGH3BsAWDoK20SbkcIIO4qxk6bhEUSsvdiDqzQOLAmTpyo4YP0hRBHvucLVxNJ4l8GsHB1kfMK8IXjCk2LFSumibJxWQHcjhw5olANjdCFkEQgIePCDUU415gxY9TJxdz17NlTw/9shfoAhswdgBB3GDpyHPMPAASOkauL82w5sDZu3KjtUidzjn7kAqMPBmBZu7+d5WwDsJxlJkw/HK2ASwOsMWPHSN4qeTVXiilGAXsUIFcXyeZr5q0p4z8a/3znFnvONccYBRylgA1gBSQPMM8vR4kaDerxveeru0F+VP8jebfJu5pg2ZTQK2AAVug1M2c4VoHwBliv6y3OHJxAhKgBeEgiTgFO5c+fX78HepBXiv8JweNYQBI/AztIgM7xhLUBy3BMAXMIgSMUjjaoF7cQv+9IAM9rHGN7nQTovHfixAl1XuGyAugQBkk4HLAKGPOyvpGrCncWYIpzgGK4mXBx4b6iDcZC/ipCF3FNkTyeL8IgATscA9hhDAApAA5wjJ9Z+NvGR39ohzBF8k/hVGOc5PaibvJx2TTgXHRCX9xRjB+wRH4rci0Cq9AOTQkxZNy8xlhtwI4+ApsAU0ArEtovXbpUx0NfSL6OPraC3tRPe/SFPvE942Re6Cf1M5/oTf8ZC68xZgAfc4NGQEHGQB1RtXCNkKQcyMk1FJUL1xjuQ+YV9+TrcmCFRgcTQhgatcyx4aGASwOsn0f9LOfdz+suWKYYBexRgCTOJM7vUr6LAVj2CGaOCRcFbADrj3N/iPdN8/wKF5GjYKUkwX8Y9FBGtB1hAJaF+TUAy4J45lSHKBCZAMshA3CCSgipw+0FPAKGAa6AYYTE2aCcE3TT7i4Andq0aaOJ3QkjxB0GnANmAZxMcYwC0QlgATzZGADgCTx2VDEAy1FKmnrCqoBLA6xhI4fJ3jh75eTV/yY2DKsg5rzooYAJIYwe8+ysozQhhM46M87fLxNCaH2ODMCyrqGpwZoCBmBZ04+zcZeQwBy3EwV4RUhcVA5/s66aqSE6Aazwmm0DsMJLWVOvvQoYgGWvUua4KKWAAVhRajpdbjAGYLnclDlNhw3Asj4VBmBZ19DUYE0BA7Cs6cfZhL2Rv4kQOQoheoQCOipMynoPTQ3OqIABWNZnxQAs6xqaGqwp4NIAa/jI4XIiyQk543vGmgrm7GijAH/YEILTtUJXE0IYbWbd+QZqA1jTTkyTs9fPOl8HTY+cUgFCoPka1X6UCSG0MEMGYFkQz5zqEAUMwHKIjFoJoYTk6CI/V8jk5o5rIXrVBBgkLNOWFwswGJWKAVjWZ9MALOsamhqsKeDSAGvChAnSrmO759vJWpPCnB0dFLjz8I78sPwHKZ6huAFY0WHCnXSMNoBVpEQR8/xy0jlyxm6duX5Gft34q3St2tUALAsTFBaAxWLOODssiG5O/ZcCUR1gcb9QrNwz9tZRsmRJzRk1depU3WUQF5a9xRH3tSPqsLe/oTkurP1KmjSpcH2S4H7YsGGauN5R5XVzGtb+hrZvBmCFVrH/Hm8AlnUNTQ3WFHBpgEUS9zPJzhgHg7VrIFqd/fTZU/EP8Jd3Pd41ACtazbxzDdYGsGadniXnbpxzrs6Z3jitAsFPguVR8CMZ2W6kAVgWZulNAIsdzdh1jIUbiW9ZzJFQmUXyrl27LLRsTjUK/K2AswMsYAIAgx30jh8//hwK8ZptxzvG4e/vL4cPH9ad92ywil3x2D2PHfA+//xzDfFLmDCh7m5nbwEydO/eXXfSo46zZ1/uVMZ51aVLFylTpozutsZxtM95yZIl0+YAWuTHunLlyvPm6VPNmjV1HmbPni2bN2+W1KlTa7J0dgm0t1StWlW6du0qixcvlj///PO1yePpFzsJ+vr66k6OJJrnb4EsWbLIvXv3dEc8K8AvZJ/r1asnH3zwgXz66ae6M2FoCtpkzJhRRowYIfPnz3/juOytm2tn6NChcvv2bfnhhx90J0hbqVGjhrRs2VIGDRqkO+aFZzEAy7q6BmBZ19DUYE0BlwZYJom7tcmPzmebHFjRefYjf+wmB1bkz4Gr9sDkwLI+c28CWCy82XKcBemaNWukevXqUqJECVm0aJFJEG1dflODCwAswvLatWsntWrVUpDk5+cnefLkkU6dOknBggXlwoULOo8+Pj4ybdo0uXr16nP4wu+3xo0bi5ubm/zxxx/Stm1byZo1q/Tv39/uuQdMAZgyZcqkdQB9XlYAVYMHD5bVq1er+4rQt/bt22u/b968KQ8ePNAvQExI+AykKVy4sN7bW7ZsUVgH9MFxFJok8LTP82TPnj2yc+dO3e3tZYVcXcAuks6vWrVKRo0apWPKkSOH7p64detW7aOjdk8sXry46jd37tww7WCI/j/99JOGZALu0dJqARy1atVKoSfAj3mxlfr16+u19d577yngCs9iAJZ1dQ3Asq6hqcGaAgZgWdPP0tkxJIY8k2di+99SZebkUClgAFao5DIHO1gBA7AcLGg0qs4ALOuT/SqAhesEN0Tfvn11MYubg4WWt7e3FClSRDZs2CBFixbVhTk7n7FF+e7du2XOnDnqJuA9FmG8j3Nr3rx5smPHDusdNjVEOQUiw4EF3MHlUqVKFb12cSTNmDFD3VNct9myZdM8UtOnTxdciLh3cuXKJWvXrtWvSpUqSYYMGdTpdOjQoedzkiRJEoVGgAGcO0ePHtXrP02aNAopOnToIClTppT169cLqT/ixo2rriX6c/HiRZk4caK6bt5++21JkSKF9uPYsWN63+XMmVPvr6CgIAU9tA/koS6AVbly5fT1L7/8Us8BnH344Yfyyy+/yLJly55DEsbbqFEjvb8B1IAmoBfhh/SR+x1AB4TivmV8wBYcU2iCSwvIhBMTdyZuLSAfgJvzvLy81KnWrFkzKV26tGrDswGAxLOBHRN5rlSsWFF/pr+nTp2SgQMHyjvvvKOOrE2bNsnkyZMlc+bMCg+BXmjJfODeYmzkowJO8f+6detUA2ATY2N+KJyzf/9+1Yb2mWfq8/Dw0LxWvD9+/Hhh3tq0aaPtMM9otG3bNlm4cKFCJnQtVqyYzjfPNuaF9ug31wftAQHRBuiElpUrV9ZnJi69OnXqaN1nzpyRSZMmqc6MgXb4cAAtmHMccswH1wvXoQFYzv+4MwDL+ecoqvfQAKxImGF+gdTIX0OKZikqK7xWyFsF3xKvi17iedxTCHGLrBIrZiyJHSu2PA5+HKn9iIjxG4AVESqbNl6lgCsDrJgxYkr9ovUlS4ossmDvAmlcorF4XfKSbae3OSz8ISxXjj6/YsaWx0+i9vPLAKywXB3/Pud1DiwWis2bN9dFNwtn3BIsyjp27KiLvqZNm+oC+Oeff5Z06dLpwpBFJ4vJr7/+WgICAhQKsPhlMf/xxx/rAs4Uo0BIBSIaYOE4AqwATACxwBiuVcLlcL3gqgLcAD0ACUClFi1aSN68eWXIkCEKO4Auy5cvV5dSyGTphBlyLq9xX+DOAkwUKlRIfvzxR+nRo4cCj6+++kol6NOnj0KX33//XcEXEGvcuHF6fwG1CC+jjtq1a6tDasCAAdKwYUNp0qSJfPPNNwqhuA85zua4ArYBzT777DO972iDem0FkIKrsnXr1trO0qVLdZzosXHjRj0HEIUzCsCDa6x8+fIyZcoU1QQHGWOjTzwfGC8QBjBHW9z/aEw/f/31V4VUOM44hudBhQoVNDwO3XFzrlixQmbOnKn18TrPGRyeaAk4An4B5HC/AYRwj+HeAgLhiAIEAZU6d+6sbjP6CyQiTBP4hPbUw5gB6t26dVOYxXv0l7YJm0R3Xvv+++81DBON6fe+fftUY+pHU4B9qVKlZPTo0eroYqwAMc6jDYAZzzpAHSCO5yL9xqGH5vSL52nPnj0VYDH3XBeETTJ2rgPAHSDOACznf1YagOX8cxTVe2gAViTMcAa3DNK9enc5evmorDu6TsrnLC8ls5WU6Vunv3JHxXix40mmFJkkWYJkzx1btx/clst3LktQcNB/RpHRLaMEBgfKTX/7bb8lspaQ2oVry597/pSTV+3PVRAJElpu0gAsyxKaCiwo4MoAK1/6fNK+fHvZdXaXbDy+UZqXai6ZU2aWsevGyg3/Gy9VJUHcBJLJPZMkiZ9En1+A+lsPbonPbR/dVS9kAdDw/OL5dvehfbkw4sSOI0UyFZGKeSrKX3v/Eu+b3hZmx7lPNQDL+vyEBFh8oGRzVOEMuXHjhi6QyR/DYg3nCTAKxwgLXxwWhNOwqGbRS34ewqe2b9+uuXiAWSzyaYOFKU4QFsumGAUiAmABanAtAUJw6eCWsSXhBrgCgIAguJNwDPG7CCAFSMBNhHOGcC4gCcACsAXEwKEzcuRIdQORLB1HlK3QFmGEQBkgCs4k4AmuRe4TnEf0C3gBbAEaEbYHlAGS4GjifgPQ7N27V0ER9yLtEgbHfQgQwRFJWBvuJ8AYUATnEseQcwsXF5ANWEZYYcjk47TPvQrEA9gBVnAMAWe4X3F+2fJt8QwAQpGPivBFNMF5Beyhr4wLCHTp0iV1KAH4GA/n49YC1AEH+R99gWsA8bp16yq4AWYxNzjFcHjRL4AY7ibcWHyhsy3/Hs8bzuMZBBziOcQcAYCYT6AZidc/+eQTnUcKYAxN0AknFHoCmgCWtAeoZ2ycA1TjOPQAwqM34I25AnxxHtoDCwFztjBHnn/ojZY8J4FZnMf8o3Pv3r31eMZOH+kr8wjAOnLkiFSrVk3rZh4BWFwLvG8AlvM/Kw3Acv45iuo9NAArgmcYl0Dp7KWlddnWMmrtKAVWGd0zysA6A2W513JZf3T9fxZ0dDF98vQyoO4AyZA8g1y5e0Wh1aGLh2Sl10phZ70XS//a/TU59KJ9i+weYcXcFaV56eYyZdMUdVRE5WIAVlSeXecfm6sCLD51rV+kvnjk8tDnFwC9bI6y0qZcG5m8abJC+ReBFLORO21u+bDmh5I8YXK5evequqT2eu/V59fDoH8nzE2bLK18VO8jWXpgqWw4vsGuyQTqlMleRgH8jK0z5OS1qAvgDcCy65J47UEhARaLLdwK77//viZ9JoQG9wcOmVcBLBauwCny5rAAZqGLYwL3AotvFrMsclls//bbbxpi46jkzNZHb2pwBgXCy4HFNQwwKFu2rIIGnFQAClsBmABCCEPDNUMoHrCHJOtc94RzAXBmzZqlwMUGsMhFNWbMGHUrAZoANCEBFuAWCANoAXS8CmDh6gLoAJsAM4SOESoIlMFRhSto7NixClhsAAs4BkT29PRUQEb93Gf0gXsNtxcQCWCFCwgnFXDo3Ln/3yDFBrAIeSNMjfZfBbAAKMAdnJbkw0ITW0gw8Ak3Es4oEq/bABbPDerDnQQM4hwAEscCAwnDI/wR2IP7jC9eJ7cYfUc7HFhAKWAeSedxRqEP+bVIxM7rK1euVEcXgAqINnz4cH3uoAVt2BKj2wAW7+POQmMSqFOYG5x1jBGdcI/hPGMszC3XDM8soB3j/D/2zgLMqurrw0ulU0C6u7u7u1tQQhABaezWz0ZQUSQVFRABle7uku5upKRBSuB73sX/jJdhgDtzZph776zNMw8z956zz96/fc6e2e/9rbXpByGSwQvjgDMVgAiQAkBxLPAKuEXd9IExp+20j7ECYKEDYwFMREf6ALhjzA1g+cIM9eA2GMDy/TEK9BYGJMDiU/6imYrKX2f/kh3HdtwzhriZGhdpLCmeTCE3b9+U9QfXy+7ju6V8jvL6yT95qdbsWyOLdi5SuFQkQxFJEDuBPBX/Kbl49aIcPn1YMibNKLgKjp45KrO3zFanQMEMBaV89vJqrd13Yp/M2TZHCLcpk62MOg9SJEghR84dkcRxEkuqRKlk4PyBcurCKUkSL4n0rtFbDp85rHWxOKQ9K/euDGo7AKtH9R6y468d6pCiHZTEcRNLldxV1N3AJ8knL5zU/2vmqylnL5+VxTsXy5wtc3SRmSNVDj1n74m92rarN65KwXQF9b2Y0WNqu+nv9wu/l81HNkvtfLX1HNwS2//aLot2LLpnsemvD4gBLH8ducBo94MAVpwYcaRklpKy/9T+EHcoTBQ3kdQrUE+SJkiqsIh5YsuRLVKvUD1JmTCl/HvrX1m5Z6WsObBG5wXmr3ix4knieInl3OVzcvDvg5I5eWaJFzOe7Dq+S+eIS9cuSdGMRXXejP5EdJ03F+9YLHFi3mlL7Oix5cm4Tyqwyp4iuw4CwIp5Dzj1fPnn1ZHFebhJNx/eLOsOrgsaLI7pUKGDHjNp3SQFWDix6Ev1vNV1PuTnQ6cPSbIEyTREkbqW7Fyi807V3FUlZaKUWp/Ttus3r2ub6d/jTzyugCB5wuTy0+Kf1IHVuHBjPYf5C9jPtYPDMn+8mwxguR+1B4UQsrhiRywWeSyqJ06ceI8DC+iFu4BFPYtx3Ac4sHA24GJhMc8i2VmsWx4s92MWaDVEFMC6n078fQeQwfmDS4eE4kBY4AUwA4gAcHV26gP4ABwAYcBdYBNwAlcWThvAl7cAi5A0Qsu6deumSctx/fBMAE0cJxcuLgBZSAALlw+gxMkjRR3AGCe/E/XyHJK3imebdgPgCJNzdrTzBmDRV/oIyKOPQD0AtaMJzz1tDwlgAfaYD2gbdQCm6A/hw4QkEhoHoANEARlxOgGAcFrRduYZvsctBTQCPBHq6ehDuCDHBQdYACdC+QhLRGcnAb0DsHA9cS7H4HZCD+AfriccX5wfEsACbgFCCVUECjIv4kxlfOibU4BejAXAEXjHPcUYAKIAo2jH+Di7GuJSpS76htuKMcQBB7hj3iU80wCW7892BrB8f4wCvYUBBbBwN8WNGVcXQ82KNZNtR7dpiAuLs2s3rulYxooeSxoUaqBQiU/3AT6ALsL4SmYtqSF9gKqsybNqfhd+2Xeo2EGOnzsuf+7/UyrmrKhhfCzCcAqUylpKF3K4CtqWaSsXr11UqFU4Y2FZumuprD2wVl6t9aouKmdumqluKQAV9eJ0unD1gi4uX6z0ooIn4BRuhtX7VsuszbPuAlg9q/fUxefUjVPl0tVLuhjj+k2LNpVpG6bJhSsX5NL1S5I8fnJpWqypLvSoY/eJ3do/tl8HvLHAxJlFmGCnSp0059WyPcukcs7KkipxKvl65teqYaWclWTFnhWqKfm6pm6Yqota+uLvxQCWv4+gf7c/JIDlzF9J4ye9E6K3b5VCF+YvJ0yYY1qVbqXhcvO2zZPz/5xXUA14AjbzvALhAUbDlwyXuDHiSq8avWTdgXU6H5B7jzqY5wBSAOwfl/yoMPuFCi/IjuM7dB4B5jP/HTh1QN1Qx88f1xx9Jy+eVLjEnDl6xWidg4Dr7cu1l78v/a0wrV7BenosHwA4hfZ0rNhRwdbMzTO1P8xHOKaYm2jP5WuXFYjlTp1bWpZqKbM3zZaFOxbKwdMHFWARcpglWRYpk7WM/LD4Bzl2/ph0rtRZjpw9IvtP7pcKOSvoBwbDFg6THClzSMVcFWX+tvn64QPurJHLR8ry3cv9Pr+fASz3z/6DABa/h8l3wyKYBTPhf7gpSPLMgpgk2ORqIXSJUCUWcyz8cTgQXkioDK4DwhIJ9yHcip+tmAKeCjxqgAU0AD6RtJvfPyRcBziQ4wknIWCBDwHIYwV0IRTMCQHEDYSzCkcT7eZ1wmYpuLg4FuAyefJkTQBO/YSe4fYCPvG8AaAAObipCEfEbYMLB5cYoYSAX545kqhzDA4lcieRfw7wAuAiHBGnEeCH549r0g9ACc8abQTU8RwCXng2OZ5jaSNhd7QJ5xLAjn4Q3kg4JT8DrWkTfeBnnEv0BU14vnFIMQ8AqbgmzzUONeoDYKET/eLZp1+4pwA0gBlCC3FmEcJHQUfqJ3wTfdCEvjPf4PIiQTpt4HgADyAIaM512K0QAIl7CQ24FsAIMAagoh76QcgmgAr3GFAMwMbag3BCoBOhpAAuXGxAd5yowCrgHwnugWwcC3hDT/QiJBq3lVMYC84hXxhAkjBSxoq24bBi7uTew9VFTi9gFj8TjknYIGGEAEMAGG3DHehAx4iaMWwXQvfKGsByr6HV4E6BgAJYOJmeLvG05EqVS9I/lV4XYrilxq8drwtBComHcTvhMHIWYDGeiCFv1XtLF0TAKBxaL9d8Wc5fOa9OBoDS9I3TdXHWunRrIYfVFzO+kASxEujikEUSn/LjJJiwZoIuwgjFwx0xfPFw6Vqlqy6cWBDSRpwIF69c1AUmIAonV5vSbXRByeKLulhQXrn+n0XbCSFMlySdnDh/Qt8DZDHh0yZgHItXctAkjZdUulTtIst2LQsKIeR8XFb8T84aFrOEL9YtWFfGrhqrfatfsL7ULlBbdSGxPNcZOG+gArv2Fdor6OJn2ubvxQCWv4+gf7c/JID1VLynpFnxZpI3TV7hOT9z6YwcOH1Axq4cK9uPbdd5AUdVtyrd1N00bvU4nWPIjfd+g/cVVo9fM17nEX5esmuJ5pjqUqWLuioJC36h4gvqsBqyYIiCrNfrvK5zG06oGnlryIhlIxQkcdz2o9t1k4nuVbvLqOWjdA7DSdq7Zm/Zd3KfjFk1RuchXKDPlnpWB2T0ytHaJl73nCcAWD2r9dT5DwjG/EfdzC1ALD5oANozf+VLm09eqvmSDFswTCGdOkMTpdH2Zngqg86fuEpPXzot1fJUkwFzByjEqpWvlhTPXFz7w/e7T+6WUctGSYI4CbSfWw5vUViH+8ufiwEs96P3IIBF7SywSM7MIpod2lh84sZgMceCEDcKCzkK7+MYYBHJYo7zcHvwM6/zvhVTILgCjxpgcX3uT+ACTiIKgId71LnfuccpABugB3Mvx/M/xwFUgCQAGl6jAEF4HjiOe50vIDCQgOeFevh9R44pCmF+gDJnFz/PZ4hjAE5ch/pJHE+bqYO/dTmHnzmfY2gTbcG9gysKKAN8AyzTHp5DCi4m6uBc2kQbqI/jOJ8287xyDlqgC6/xHmCFwhzg1EG99Nmpg74Cmvjie/JRoQF1UBf10AbC+5xQYvrG67xGmzjHCd9kfJhHaAvXAOigi3Md6qUvjIWTk8q5LvXzPuPCa7SZa3Mtjqdd1HXixImgcedn2okeQHvO5frANWAeydc5l3ZyPc8E/mjDOdw7XIv3aAPH8zrXQztHc9rBa4wdGnAMhb4zBrSLPkdkMYDlXl0DWO41tBrcKRBQAMuRgjASoA4LNk8XE+/zyXyv6r1kztY5MnndZLlx64Y6qXiNnCwsClkokUOKUB7cAs2LN1fHFYtGnBGEHn418yt1JgG6CMFhYde4aGN1WF29flUXcVuObpEZG2foApIFGg4mFnC0jTBFXAQs5KinU8VOCrK+m/edOiqCl/uFELLrVoksJdRxRkgQ/SIk8vkKzwcBLIAbi75MyTLpL5YkcZNov3BRlM5WWhd1hCDhLiO0ctrGabqYRT/ayIK3bdm2ki5xOvl06qcBEYZjAMvdxGFnu1PgQSGEACHcUAAodvZzCu4iEqgTrkeoMfmjKPnT5VeX1E9LftLXmbfea/CeQmpCBHFZDp4/WMOAmQcogHX+iATcz9k8RzImyyj1C9VXJ+k/1+58QowrEwdpt8rdZOiioeriws3UrWo3hdvOBwDJEySX9uXb67zw89KfQ5y/QgohdPoFhGInw1jRYsnY1WMVfr1Y5UUFWID5zEkzS9eqXSVhnIQ6N6d5Mo2M+3OcXL56WQplKCRfzvxSoRhOLsA7oI0QasIPcZpyzht139DwyW/nfhviphfuRvPRnm0Ay73eDwNY97sCu5YBrpwcWO5bYjVEVQUiA2AFqtbk8wJi4UwiHM5JMh6o/Y3ofgHtyEmFIwtnFhsBBFIxgOV+NA1gudfQanCnQJQDWIQH4gTAHTB4wWDdpY+FHGF+hBf2n91fIROLPsJdCLPD1fUwgIVzgFA+jmPRSW4tHBPJ4idTN4EDsFiEtSzRUp1QLKYIYdRFYZVuGlLDIhQHBvmw9pz8b+vt+wEs8uCwkAOI4WQgROjXlb8qTAPI/bL8F2lXtp2GF/Wd3ledHcAtcsLgeGhdprUmjmcx/HTxp6VKnioyaN4gDSEi703/Of3VYcGimdxZI5aP8PsFII+MASx3E4ed7U6BsAAsckQxfzCf4D7CrYlbCoD0Wp3X1BVFmBzPeK9qvdR5Cgx/GMCatWmW5p9qXqK51knoIoVPQcmVRV0OwCLcuUvlLvr+0IVDtX5cYcwPuKCYRwi/pi2E/jklxBxYjz2mUPzUpVN6/YaFG2qoH+COEGh2ZcVphRssa7Ks6nrFgdW7em+ZvGGyXuOZks/onASca1qkqeRKk0vnvxp5auilyTOIs+2VWq8o3Ptt9W9+HwJtAMvds8fZYQVYOLJIWIz7wzMHkPsWWQ1RTQEDWOE34ri1cC0RsseXFfcKoCdrI2BgoG1AYQDL/f1hAMu9hlaDOwUCEmABonAb8Yk7O/Z5Fj6NJ0SFkD1yqrAAI1cVyYr51J4wubix4uoCkfATEgoTcsfCDEcSTideG7RgkOaXebHyi7Ji9wp1K5AbpkC6AupiAEbhXjj09yFdgHENFlC4mciBhdNpwLwB6pAg8TJhjTgH1h1ap/mwlu9ZLhPXTgxqOq4yFo7ANcIiqZ9zcWVkSZ5F7daENJL4mdAc8uRkTpZZXQg4I9hhkBBJtAGGEVKJ06p5seaSPVV2zdsFDMPRNWzRMPn35r/aRhZLtJm8V2NWeIZvcQAAIABJREFUjtFrAub8vRjA8vcR9O/2PwhgEcLMM80GDziLgpdy2ctJoyKN9H02c2DeINSgdv7a+tzGjx1fwTgOKdyXuCcB42wM8Wzp/4X6rRitf5wCg3Btki8QFxQwChcpDlLmLMKwcW2NXDZS5z/mB5xahOoRugdoJ48W8w2hyLin+B7wNGvLfzn8mIuoh/mHsEbmEzakIHQRByzzFzsU4h4FRhGSiJOMeZBSOVdlndvQhrkdNyvt4zgcsczXgCrmOtrKdQDyV25c0e/JufXLil9k78m9fv/HuAEs989+WAGW+ytbDabAHQUMYNmdEFwBfg/ifiKcznOXR19WCtBF+CBhgnz5QzGA5X6UDGC519BqcKdAQAKsh0nCp/2xYsRS+ENhccOCjYUBgItCnhRe52cFODf/1WOiR4uuCz/eox7O4XWOZ3FHnimn8BrncQwLNr6nZEiaQV0NhMeww1ah9IWkbqG68uPiHzXskEUanyKxy5ZTuCavO+3jderkkxHa5xTAlnNNXgc20Q6+p78czz/PNtM+Cu85x/M+14v2xJ1cCVyLPgfKJzEGsB72lNj7EanAgwDWw67Lc6y7hnrMXzyfnvOD5/zF882zy7NNvj+d8/43t3AO8wXn86xzLPNa8HmR+pgTKGzo0LZ0W83Bh9sU8MVOgP1m9tPQQp3vbv57V64pbXO0OzudOsWZD505hnmJzTacdvI619R594k7864zfzlt5nVn/nPmL2eeQiPP+Zw+BML8ZQDrYU/Iw983gPVwjeyIiFUgEAAW8zlOXeZm52/IiFVNHum1QtsXtzqQd4oNIdjRdNiwYaG9fKQcnzt3bnnrrbc0ST75siKicJ/p7/7bt8OlegNY7mU0gOVeQ6vBnQJREmC5k8z92TgLCPcjNI/QQsL1SOZOvi4Sx1uJeAUMYEW8xnaF+yvgBmBFtq6EMZIjD5BCLr26BepqwnnmLxxPViJWAQNY7vU1gOVeQ6vBnQL+DrDYPY6d7dh5rnDhwlKkSBH57LPPZPPmza6E4XcjOwUCcwAXJCDftGmTJk0n0fknn3yiuyGyq50vbZBAAvghQ4boToh//PFHqDUgQXqbNm10B8KvvvpKd3lkZ0ISuDu7/qEHSc/RBz1IWI8+EVG4FruxUg4dOnTfvGIktH/ttdckffr0uosjY3I/0ATsSp06tY4rxzCO7IRJAn76S2L34CVNmjSaTH7p0qXy3XffhQvEMoDl/o4xgOVeQ6vBnQIGsNzpZ2f7qQIGsPx04AKk2f4MsAJkCPy2Gwaw3A+dASz3GloN7hTwd4BVq1YtefXVV+Xdd9/V3eQyZcokkyZNUtgR1kKOucqVK0vPnj3l6NGjcvHiRWHjBADOyJEjFdoMGDBAdu/erZCHXHS+UtDghRdeUNCyatWdPJKhKYQO/vDDD7J69WrdKKJu3bq6q+L27dulc+fOCnc4pmXLlvLmm2/K5MmT9X00iYjCLodch50VAUcP0rpmzZrSoUMHGThwoCxcuPAe2IUzLXv27PL+++/rTofAKpx7s2fPlmXLlimg+vnnn/Xc4IWdKZ999lnZsWOHHh8eLiwDWO7vGANY7jW0GtwpYADLnX52tp8qYADLTwcuQJptACtABjISumEAy73oBrDca2g1uFMgogEWQKVevXoKC+bPn39XY8mZyHsZM2aUZMmSaQJ0HE24qGrUqKE5mIAJEyZMULcMAAX3DAXgAGzAgQXAevvtt/V1zl27dq1UqFBBMmfOrOfhxhkzZoxCh2bNmknChAk1T9LYsWNl8eLFUqdOHXX5pEyZUutYt26dNGrUSK/x448/yvnz5yVPnjzy+eefKxgaNGiQOr6AWsePH9dUG7NmzZJx48bpa+3bt1fXEtdev369OqHSpUsnzzzzjABktm7dqjAGtxTX5jWcQ+SbOn36tLYVcJYzZ05p0KCBOr/y5cun/QG4rFy5Uo/B9UQ/mzRpIjiQgHajR48WQA7wCgjFZg9cg/xQJ06ckP79+ysEAvylTZtW24UewDjOBU4B52gf4XgArFdeeUVDJgE8jAU6sSsgbQbm4HhDP6AWUAZtR40apSGI7MzYtm1brZf2skMjG0+0atVKypUrp/XilmMsaSevcR9s2LBB4Rj969Gjh94LjNXw4cPVacdx3D/79++Xn376Sf/HQfXBBx/ImjVrZOrUqaoL7ir059ocT1t4Hei2YsUKHW/OA1ai286dOxWAAiuLFi0qONLo24wZM/R/6mOMcKihG04u5/6iPsa0efPmUrBgQdUZZxfa0p7g0MsAlru5i7MNYLnX0Gpwp4ABLHf6hfpsfmk4OVvI9fLEY09orphASIweajEi8QQDWJEovl1a/BVgkR+LPIAUnb8ef0I3vrD569Hd1Aaw3GttAMu9hlaDOwUiCmBpvtSYMSVFihTy8ssv6yIeZw8gwQk3A7rgrmncuLHCH+AGC39AD9CB95s2barACPgFzLh8+bKCHcAKoIXd6QBYuGoAMsAJQBOwBsAAsAJ2AEEACAAb2kLYIU4roBi5k+rXr6/wDGBWvnx5BVhADUAKBajy8ccfK7Tp1KmTghQARL9+/RSAVKxYUd1YgC6uBygCfAExuCYhh/QBoMW1p0+fLn/++ae89957ClaAQPQXrX799Vd9Hx0AQEA0QCDwBHjTokUL7TPg64033lBQBOwBgOFUwoGEfvSzT58+Mm3aNIVZ9AcnFXp269ZN9aRdp06dUqBD6OHJkydVS9q1aNEi1bljx44KpYAxACLADjDr8OHDsmvXLm07ugDvjhw5otcBtKFNr169tH6gEFpQP/CnS5cu2i9gHq8XL15cWrdurffB2bNn9f05c+bIxIkTtR6uBTQDVAEpubcAh127dlWwxZgDmzgWPdGfcQJGAvsAYADFkiVLah8YB/7nde4DQCrgkXHlHqA9r7/+utYNjEPXd955R88DFNJHQBzHch4gE83oAyCMexNNeL4ApYwDmngWA1ju5i4DWO71sxrcK2AAy72GoaqBnbKeLvG0nPvnnO78VTZ7WVm8c7FsPLQx0haB/MGTLH4y3a3r0JlD4WLRDZUokXCwAaxIEN0uGaSAvwIs8l+1L9deDp0+JEfOHpEquarIhLUTZOvRrZE6uuxkGDdmXN2pMNBhmgEs97eaASz3GloN7hSIKIAFcAE+AQyAAeRQAiZMmTJFwQjgyQFYefPmVSAA3AAqALG+/fZbSZUqlTz33HMyd+5cBSaAInIvAYQI5wIMHDx48B6ARR2AJ0AXQAhnDA6fRIkSSY4cOdT1gwMJ2ASkwDGDYwqQRX1oAtAAvmzbti1IYGBb/vz5FegAiQAZgBPcRSQ9x/XE+YAnvgd+AIyAasAPoArABzgDbMLl1L17d9UDuAcko72EqwGxyOVE2wcPHqx9x0VF+59++mlNrg4wwoGG+4z+AujI2UVdOKUAMwA84B3taNeunTqyuC4ON9xCwCqAEdcAJgHJaB+64EADYNEfwA0wjf7yGmNGaCVuJCAY0IjwPMYU7dCTMaN9hHXSHsLvcOLh6ALecA2uDYgDgvH3CBpTL2OIDi+99JJqTZ6tL7/8UgEmdQMrAVKMxV9//aUgi0Jb6BdjR71Xr169Kx8W1yhbtqyOCfco40XSd2AnegOa6DfON9xa3Ie4zHCdAcfQmXHHbQbQ5J4GBgL1GDvGgvZ/+OGH2v5PP/1UtTOA5W6eut/Z5sCKGF2tVu8ViHIAi92w2HY9YeyEsuv4rqCdtbyXzN2RxTIVk+fKPScjl46UlXtXSu8avSVezHi6g9fFqxdDrDxp/KSSI2UOBUwUdhBjocYW9sGtsdSVJXkWXWCeuXxvQsSQLsDuiU2LNZUMT2WQL2Z8EbRborue+vbZBrB8e3wCvXVuAFbaxGl1Lth9YvcjlQnnaP50+aVFiRYyavko2Xlsp7xT/x3Ze3KvjFw2UtgBNXjRpLNxE0uuVLl0F0IKjtOdx3fKsXPH7jk+QawEkipxKjly+ohcvn7Za5jeqnQryZc2n7z9+9shtuORChXBFzOA5V5gA1juNbQa3CkQUQDLaRVABTBEaBaQxLM4ACtLlizqSnLC1HAwETanf2dev65OHEADbikSqPP3JmGHgI29e/eGCLBwYOFO4nzAA24o3DGAC/I1AcGAaICOhg0baigY8AHAAiAijxR5tZYsWaJOHxw/QBb6A7BwcmABVegH/9NGjsGNBeDAfUYYHqAJOILjihxSOHHoH3UD7nBI4RLC5UMYHVALiAJ8og04lLgmbiGgC/AGYEYfAGqAE3SgeAIs+gSsYYzpF30ndA/AVbp0aQVcAB/qB2pRB+GXuLsASDjGgFW0A/CILrxPKCNQEaca4XOMA0AQKAa8IdQOQIe2wB4cSjjHgI+MBXU6jib+p83k23JcTEAqErIDGIFpDsDC4QYUQjMSyKMl/6MVIItCPfQLvYBXDyrFihVTQMX5ON6CAyycbowrYaNo6QmwnLEh1JB7Fy0Ac4ArQCDH0l90xLlmAMvdPHW/sw1gRYyuVqv3CkQ5gMUf/w0LN1Qg1Gd6H7ly/dHumoV7IX2S9PLFzC9050HaUr9Qffl86uey7a//PnHyHMLy2ctL58qd1aV14O8DukDbemSrLmCDuw3ypMkjL1Z+UX5e+rOs3rfaqwWgASzvHxg70hQIDwXcAKzWpVsLTs4vZ30ZHk3xuo4n4zwpz5V9TgHUj0t+1NDBpsWbSs5UOeWHRT8oVA9emG9LZCkhz5d7XjYd3iRHzx7V+Wv9wfUhHg/gr5mvpgKy0LipDGB5PYx2oIgYwLLbILIV8CWABfwA3hDaBsAAqAB7cNIAAgBBhLrhRsKpgwMLx1DwEEKcMQAaErEDgHDAAMmAPoTbAURw/5QoUUIhlyfAIlQNKEI4GPCL9wmLK1WqlMIenES4uXBAAV+AXgAl2sPOfzhyOB7YxG5+uNBwWOEYoy2ESToFpxnnewIs3EW4dnCLAYGAf9TjgBvgGKCE6wPWcAkBWZwcSw7AwlUEXKJduKyAMLjA0BAdaE9IAIvjgDCAHaCaA7CAjzjpAHO4oWgDGhJaCNz66KOPZMSIEeoc4zrk7GKsAGfk88JxxfuEMuLacoAPdQEucVoxHpwLmMK9BdCi7YQ2UgcQiHsDEEmfORdghXOPcEE0wiFG/bxPfYwnrinuI67DvcP4AMkAcZxPqCUAC63QBjiHAyu0AAunG1+EDqIPY+HUZwArYma6l3r3lg7168vZo0cj5gJ+XOttEbn577/yRLRo8pgf98PXm565eHFp07Wr5skLa8HByvwIROfDFzeFsWbsvSp9+/eVNdHXqBPAs7DQqpSrksKedQfW3fVeicwl5PkKz+sCcPnu5TJ361x1NLEtfOwYsfXYJbuW6Hk4kspmKysxo8fU8JTr/17XELuMT2VU19TmI5vljzV/SPIEyaVewXqSJF4StdYCouZumSvJEiaTmnlryj/X/5EEsRPIgu0LpE7+OnL8/HEZvGCwkE+GxV23qt1k8PzBcv6f81IjXw09bu2BtUHuMABW6zKtZdjCYeraovALAQjHYi9+rPi6qMTRkCZRGimXo5xsObJFlu9Zrv9XylkpqG3b/9qu292z+KxXqJ5kT5ldHVe4K/j/8+mfS8akGbWd8WLF02txTdpE/wOlmAMrUEbSP/vxIIDF81w9b3UNMfaE2uSbKp+jvLQq1UrnH57viesmavhvrfy15N9b/+o8sHD7QtlwaIMAgwqkLyCxo8dW9xPA/Nj5Y5IpaSbNY7Xj2A4N/8PRxfMeP3Z8waG68fBGnSNwTRHiDOQndHDz4c1SO39tnQuY92hPqaylFMKPXTlW56RimYvp9YFVFAdgNSrcSKEXEJ7CdXBMUV+0J6Ip1GL+AoZxXfq+eNdiOXrmqFTIWUHnT8+2xY0RV+oUrCOZk2aWqzeuStxYcXUOe3f8u5I1eVadz3GpAfiX7lqqc/rNWzf982YJ1mpzYLkfRgNY7jW0GtwpENEAi7xEwCOAAQ4lz0LIHMCKEDNgCMAFpws7yQFAABE4p8iDRAgX7iFCEXFgASvI80SduHQAHpxbu3ZtXUgQFsjPhABybXIVATSAUwAPXFP8nQxYIGcR9eOeIhyN34u4c6gXQIOThzBB4A5toZ0ANWATbQTO4DDDIYQLiXAy+sY5uMdwWlWvXl2hDe0HbhGWBkjBVQYwIUcUwAq9cA/RJiAUsIyQPICT027AE3AJWAZQwt0E7CFEj4TmDtAihBHYQ84oYByJ8gE2uKi4LvUQ1gg4BJrhFOKagDoSqwNfCAHk+uTNIswOUAUs42eAHPqwMyMuJMYR+IS2/B4mdxQgkXGgAOVwJuHKYrxxKBFCCNQiMT19BCoxvgAnroFrDSjEXLlx40bVij5xDQAiYwXoBDQCtwglRDNyZQHFgFfAN9rJIpF7iLF1xoex5HjaxPijCUCRdjEGwDPah5sOmIa7inFDE+4dxh3ASKgsIBXXGPcv1+KLvgPHDGC5m6fudzb3C6HCVu5WwHEh8sx75h80nSJGAeYI5uewFp8BWCxgnor/lEIcXE2EqZBf6sylM0HheYnjJZaulbsKkOvbud/q4qljxY5y4vwJGbNqjAKrMlnLyKD5gyRZgmTSvnx7mbNljqzat0p6V+8t56+clz/+/ENypMohBdIVkKELhsrxC8cVJp2+dPrO4ilfDQ2pAVC9XPNlWbF3hUxeN1lOXjwpPav1lE1HNmkdlPRPpZd367+rC8ndx3dru6dsmKJtdxIPArDalW8nE9dO1IUpi9TL1y7L08Wf1vN/Wf6LnL58WqFU8czFpU2ZNurAWrFnheCuypoiq7aN0EKAl9M2QN7UDVPl8OnD0qFCBzl54aR8M/sbaVO2jS6QJ62fJKmeTCVV81SVMSvHKMgKjy1sw3qjhed5BrDCU02rK7QKhASwnPkrecLk0qxoM1l3cJ38ue9POXXxVJBTFMj0Uo2XdG4ZOH+gQqc2pdvIhSsXZNzqcVIldxUFQH1n9JWKOStKnQJ1ZOyqsTr3dKrYSR1Qo1eOlrJZyyp8+r9J/ycXr1yUzMkzK0CqkKOCFExfUN2puDk7lO8g87fPl+kbpyuMeqXWKzJ6xWgF/5S0SdLqnDZz00yFY8xVMzbNkH2n9t0FsAg7ZA4EmjF/MY80LdpUksRPou0j3Jn5q1qeatouHFgcGydGHAXqtA14Vyh9Ifli+hc6/zYp2kTGrxkvZy+flWdLPStXblyR7+Z+p98D83ivZJaSCvG+m/Od7D21NyDmLwNYoX3a7j3eAJZ7Da0GdwpENMB6UOuAHMAfYARhfc7fmrwG7KDwGpAItxGOFsADoX98Aab4H7ACcOA9Fm4AJ0LtqJfCPA84YpHA61yXY6ib1zmH96iD+ijUBSQj75TTDhYoQCYNSU+cWMMKHVgDaON82k6YI8dQP+dwLX7XkpuJ69Aejqcu2g6IAaQ4f9fyGvCL0D5ex4FGW5y+A8DoO+dxHFo5feLTe67D+3zRfs7luvTN2TWRdtJG+k87OYb3aRMhf8A+ABZwCH1oL4UxAHjRLjRw+kKf+aId1MHrHIPetJ8CREMPrsP1eI/CcYAvzqfvTh2MO8fyOu117gWOQU+ugbYcQ5sIWQRQEk7o9AlwRd0cS72cyxd9d67NuHE8uqEXutEHvqffXAPt6S994Hpownn8TPtoD/cwOnMc5+LEwlEB+ASwWhJ3d3OVne2dAsxJAGqALmAaJySuVO5DK76pgM8ALOAV7oRcqXMpxLp07ZIcOXNEflv9m7oVKHwq36VKF0kUJ5F8MuUTyZsmr/So3kO+X/S9OgsAUb2q99LvWfThTBi+eLguft6p947mzQIO5U+bX0HR5A2T1cmFWwvnBPmqGhdtrI4Erg8YIrxm2Z5l6tTqWb2nrNq7SoEVJeWTKeWNOm/InK1zZMr6KSGOMIvC3jV7q5MLl9bxc8d1scqikyTKs7bM0pxXB04dkEIZCknHSh1lwJwBCpxwXjhtQx8WfcCzlIlSqgOiz7Q+cuLCCXmhwguSJG4SGbt6rHSt2lUXrAu2LVAX1is1X5HdJ3frwvVRh1xG1C1vACuilLV6vVEgJIDF3PFMqWd0TkqVKJVu9ABcBjjjxHIcRK/Vfk3/KAQy4TStW6Cu/LTkJ3WE6vNfsaPCG+abvGnzKszCvQT4IqwYUF85V2XpVKmT9JvRT51VGZJmkDgx4+j8ByjqM7WPzi+4qwBlGw5u0PmCa/+w+AeZv+3Otuxcg/mTuYI5LHhxHFhALuYv8vydOHdCxq8dr2C9Vr5aOh/t/3u/zl8AOBxXA+cN1BBC5mvahgM2qG3T+kjV3FVVI2AWOnWp3EWPo99skuHM+dmSZ9MPIZbsXKLtC4T5ywCWN0/Yg48xgOVeQ6vBnQKRCbDctdzOjigFAGI4pEggj+PMHwruL5xruLRwoUVGAZDhuKItAC/yj1WpUkXDGnF1Bf/g3XYhjIxRCvxrkhcPp+Xo0aM1pBcQDYjFPQkstuJ7CvgMwMKVQGPYkYpP4VmYsWghNM7JFRUcYJGUuHvV7jJkwRBZtHOROqhY6BFygqPgYQBrzrY56nIqk62MJjPmez71/3nJz3cBrKW7l+qnEO/Vf09zV/2y4hcdyTSJ08iHjT5UoDV5/eT7AixCCAnBcfJasZilPkAaToncaXJreA5OjBYlWyjA4mcWemWy32mbhvxkKaWOrXRJ0km2FNnks2mfqfuB3DYsRn//83fpWqWrLjBZ9OHwwEXGYpLzWIQGQjGAFQij6L99CAlgOfMXocjkylu2e5nCcZ51z1x3ngCrWu5qUiN/DRm+aLhCLuazzpU6q7OS5OkPA1g4SHGl4mzacXyHAvUcKXLIR5M+ugdgpU6UWj5s/KHOEQBuCg5NXFn8/CCA1aRIExmxbISGFvLHJH1iriSEOnuK7JIlRRZZvXe1OmIJfQRg/X3xb3WzBrUtYUqFWB9N/khDBNGJTScIjQTa4TDFpdqsWDOdX9fsX6Ov4SLjAwzCIgNh/jKA5f65N4DlXkOrwZ0CBrDc6ReIZ/M3PQAGxxDON38oTpv5ve646B51u3F1EfpapkwZdWShH7tOEtIako4GsB71CAX+9QgZJK8ezkNCmgmJBqSS3w2oRehyoEQwBdJo+gzAckRNmiCpNC/WXLd2x0nlWQBYOA/InfLNnG8U6gBsthzdop/aE77iQKt4seM9FGCRp4VP+WPFiKWuqHSJ00nLki1l1LJR9wAs2vFm3TfVBcC1WcQR3gIww0FBCCEgjIUrOww6i1YcWG3LttVFGbmxeJ0JGlBHXqqr/16VliVaqgNs+7HtGpqDa2P9ofXqSKPPOKuctgGiCLGhnb+u/FXhFotecskQOsnime8JIQRqUR9wbeGOhQGTR8YAViBNQf7XlwflwCK8mUTtODUJXQ5eAEbAGyA1uamA9XtO7tEQPZxVpbOWlv6z+yscIhzwQQ4s5oJ86fLJ1etX5ddVv2oIIND748kf3wOwCG18u97b2i7cmBTmL66Pi+qvc39pWDXOT2eHQceBRUgkzi/mZCekAMcZjixydBFiSAGUMwdTPyHNONIIDWSeom2EGAKwCJMEbgHFjp09pk5X8nqRJ5BzCAkHZhFSjaMMF6yni83/7pj/WmwAy/3oGcByr6HV4E4BA1ju9LOzTYGwKmAAK6zK2XkhKUCoLjuF8sUmGOR/oxBmTCgru4OSp43QXINYvnUP+RzA4hOBGE/EUNgCqPEs6pDKWlJer/26vg+wIV8Li8IsybLItRvXZNiiYTJv2zxd/AGzcD4RQvhW3bcUMrFoIpwGVxROBxYU3ap00zAX8m2xkJu0bpLmqSJ8hRBEoBSlbZm2UjhDYQ3/OXL2iIb0EQLEgpF8MjgJyP+Co4FcMZRy2cvJq7VflSdjP6ltPnflnExYM0HzfZHTCgiHi4r8VfSFkEScByx+SdoO3NK2XT4jf539S91eLDJxnrEgBIiR8J4wRMIqcWfhusqZMqfcvH1T+0ubAiUJMpoawPKtSSSqteZBAMuZv5i7QnrmyGvFs8v88sGkDzRPFPMZic7J0cecRu6/BoUaqHup38x+GkJIaDQ5tYDZbOxAqPHXs77WJO5Aa8KNj547quAIB1TmZJmlQeEGuuEEIYQJYyeUZ0s/qxtg4Nwi7x4QnHmTOQ6YRduAYsyfFOZGIJLTPsC7k6+L+Y6QwScee0Lnwq9nfy2nLpzSuZgw8Gkbpml/cG8Fb9uFqxd084sK2SvoJhwAf0IT351wJ4l77xq9NXcWHxYQ8khoYfAdW/31njOA5X7kDGC519BqcKeAASx3+oXn2Th4WFja4tK9qvz9wlfwvFPuaw6/GgxghZ+WVpNIxowZdSe733//XQYMGHCX6y9VqlTy/fff6y6obABBjjcrvqOAzwGsh0nDAgC3EoVFIKCIn0mizCKH13A28TM7EBJ2wkKSfFCEI7Io4j12LQR4KWmNFS9o0uZYXFH8MmRxyfnODn6ExwC+pm+Yrg6pduXaaZ04Jm7LneOpn3r52VkEklQdUEWhjbgSWJTiriL0CNBEKA2LXvoCqKNffFGn8wtF23bjqraHnbtiRYsl7PNJG3gPRwTX0TqeiBakUSDkjvG8LwxgPewpsfcjUoEHAayHXZc5ifmAAgyiEOoLCGIeuHz1zvyFK5R5ip95xoHYJEpn7gAIkfOK9/jjnfeYI5gD+Prn2j8ajs38wvfMIzicCqYrqDmmpq6fqm6pLlW7KNzCIcWHBrRN569/78yLzE2cx/xI+4Lmr+tXdJ7heI5h3mL+Ym6jb5zDPKVbuceIfU/bOM6Zv5gnnTBxEtLTbupg/mIOZj6nrkApBrDcj6QBLPcaWg3uFPAngEWybHY0JBH4sWPHfCa8jaTJOXLk0NC1U6dOafJu2kf4jreFndReeeUVmTdvnuauieoQiwU3O/9zqb6zAAAgAElEQVSRRJ6k6OTlYpdFEtd7U9j98JlnntEdBtnJMDxAFn8vZc+eXevas2fPXRCAhPSMIbsZkijfm2IAyxuV7BhvFOBeIlE7oarsyMlGBJ6FkOC2bdvqBg1scrBp050duq34hgJ+B7AiUzZcEoTCsEjUbeNT59RcVTilAsUhEJn6enttA1jeKmXHRYQCbgBWRLTH2zrjxoiroXuA7rP/nJV8afKp24u8flYejQIGsNzrbADLvYZWgzsF/AlgFSxYUPO7TJ06VcaOHes1zAitQuwwV6RIEQUSfLACmAKerFq1SnPLBC8sHkmUzE545Dvq3r27uhx++eVOjllvCgnIy5cvr7lq2EkQAAO0mTNnTtD27Py+rlatmn44smDBAt1BMKJKmjRpJHPmzLJu3Trtl7cFvWg7QA8It3btWg1lQtNatWopjOIYdu9Dz+3bt4eYs6pFixbSvHlz+fDDD6VixYpSsmRJDYsCHHlTCJd67733FCixExs7CbotaOLURbuom8KHbuS++vLLL+W7776T8ePHe3UpA1heyWQHPUQB5oN27dpJ/fr19Z7nmQupEEo4atQoWb9+vXzwwQemqw8pYADLhwbDmuKdAgawvNPJjooYBfwVYEWMGlZraBQwgBUatUI+1gCWew2tBncKPAqAxQKfcj9XkRPuFfwYz/M4NySABQzxPM+5hrd1OtdwQAR5ZLp06SLlypWT+fPnK0zC1YATCNcC4CV4ux4EsIK3w7N9zjV5jZCfI0eOKCBhFztgCP3t2rWrTJkyRaEVycH79+8vZ8+eVRcFCcIfVH/wdoZ0rOdrtAd3EW4N4BHz0/vvvy8HDx4MAjUhae15BzIehQoV0oU0bcZVhhuE+wywhSPqxo0b+sWOgeiKvrTD0Yb/7wewON7RzWmv58/O97jiOnXqpAmsuTa7sIUUUuh53eD1eI6PRrLEiaNjgkbcC44bjD7nzZtX+vXrZwDL3XRkZ4dBgaJFi8o333wjAwcOlHHjxumzFVLhPi1evLjmwfr2229l7ty5YbianRIRChjAighVfbBOQn1YPOEU45cKA0+okj9arg1g+eANFoWaZADr0Q+25hZj/rp1K+gPcSe0+9G3JuxXNIAVdu2cMw1gudfQanCnQEQDLFxEHTp0kAMHDujiKniJGTOmQpsSJUooyMDBNH36dHnxxRclT548Ch1wG3322WcaPvjWW2+pA4tjateurc4DFma4YdgmHkcP7h/cOhxPrpfJkyerc4fwGcLSWOANHz5cr1WsWDGpV6+eADzYwYsQvjp16qiLZtiwYXc5rjiGZMiNGjXSvzc3b96s7Tpz5oz06dPnHgfW6tWrNZyH9lAAYoCqdOnSSa9evdRBRRuXLFmi/Sd0EIcEAItwIMLocC/RL1xQ1NWwYUM5fPiwnn/p0iX55JNPJFu2bAqd0IWf0Q1wRD24x+gT+W8aNGigbef3PvDr888/l/z580uPHj20fX///bc6ngByXBMX0759++Snn35SB9Nzzz2nOnFc3759ZdmyZfcN42QHtBgxYiiAAyRxba63aNGioHMYWxbUtJW+AoRGjhypX82aNbvHgfXOO+9I4cKFpVWrVpqYmuOpE5cYr6VNm1bDNynvvvuuaouzDbcJmuBw43vcdJRSpUrpvcniH1cKLi/ayv2SNGlSadq0qQA06S/3E2Gh3G9cGxCHPowJoa2EDaZMmVKdeObAcjcn2dmhU4Dnkuee+9PTacjzxfMKdHcK62Xu00GDBum8a8U3FIhSACtR3ES6+x/5X8izQiL1I2eO6I6DTiHMJnXi1Jp7hTDBiAwNZBcydgo8evao5rVhp7ADpw5onhvPQr4Zdi6j/UfPHL2rvd7cRjyQJG9+vsLzGvLIFvfV81aXsavGamJ7J1+XN3WF9zGMBzlz6Je3WhvACu9RsPpCo0BkASye4WQJk8nh04c1vxXzBxs7kKfPKeS/S/9Uen3GT1w4EWGAGiDOfPRk3Cd1nmTepG3MX57toV0slFImTKm5ug7+fTAox1ZoNM+ULJNuaLF893KtL3uK7LozIhtvRNb8xbyaPkl6/SDg2PljXmltACs0ox7ysQaw3GtoNbhTIKIAFvAia9asChGAC0CXCRMmyP79++Xo0aMK8HG0AE8KFCigsAjIBah59tlnFdT83//9nwC4cBsBrHDsAJAANcAf4MO0adM0zA7XFHCKc1q3bq3f42IC8ly4cEESJkyocIMduAi1IUQQWENOI2DQr7/+qlvM16xZU51OLAiXL19+l7js7gXU+PHHH7VeYAbuJBaDgJHgIYSzZs1Sxw5tBVrRD2AJ4AWQRbsBVsmTJ1e4hoOC1wBPABjaTdgakAYnmJOYmd8bL730kkIT3BfAu0qVKinQI4QNPXEeff3119o+2oVDiPBEIBnAjDbQJgATuuLGaNKkiS5ugXFt2rTRc1jk7ty5U18nzxOLZPQC8KD//cIYHYAFdKL9LKTpv2cIJmOCzvz+YfwBSuiPk4nrAbE8QwhpP/cDgI2F+ssvv6zhlcA0+oHDi/4vXbpUtWGMCTlFVzQAEgKenNxkgD+AEwCMfhL6CVADsuFA455Ys2aNwlTGgnoYc4AV4aHcu4wLdVavXl3vWwArSbS9KRZC6I1KdszDFOA+euqpp4Kcoc7xSZIk0XmR58/zuQO+4+JkLrTiGwpEKYDF7l1sG//hpA8ld5rcutNX/zn9ZfPhzUGjkTNVTulUsZNu2/7Tkp/uWmwBkgAu7BLIIpLds5zdBtn9j52z2A3w4OmDXiU/LJWllLQo2UIGzx+sCzx2BaNt+//ef9fdQSL32vlrS6VclWTg/IF3tdeb24hk0Ox4WDNvTRkwb4CcvXxW3q73tqw5sEZ+XvpziLulkWQ+5ZMpJXvK7JpUnkKyZfJ9HT9//J5FI/nB0iRKo30H/nlbWpdqLU8leEp3TvM2WbMBLG/VteMiQoHIAljsEvh08ael74y+kvGpjFI6W2kZunCo7Dq+K6ib7L76ep3XZcr6KTJm5Zi7dnLlD/gMSTJImsRpFOKzeyC/lPlDmN0IAeg8v8xtDyvMhcxH5ARknmSeIEH8R5M+kp3Hd951OoncnyvznO5OyE6p7PQa2tKieAspmqmofDPnG51zu1TpIluPbNVdGZmXQioZnsqguzE6G2gwLzF/kf8ruPP0yThPCsejZXAAd7+2Mq+i9fFzx+WnpT8F/S54UN8MYIV25O893gCWew2tBncKRBTAYpEPSAKkAFQAAFu2bFEXFpAGZxC7ZhHKQpJtoAluKdwtAAzCznC3ML+xAGMxBjgCVACwUqdOrbABiAFgAR5wPJChSpUqAjzCZeWE/JF7CaABNAEqVa5cWUNpcO0AbgBQW7duVccO9QJOPBMdA05wW/E7s3Pnzio6/5OTCqADuAgOsCZOnKiOIQAV18UpMWTIEA0VpE9AE46hDuoiPBCXFgALWINTiHA8gBMACPCGIwvwAsCiHgAWsA43EPAH6ALUARoC4HCkAag4F10AgEBECjCGvFS8Rl20AzcU4A+tAFjOdQBp6AaY5BwcTSRJR/uQigOwCEFkPBl/xs4p+rs6SxYFSEA17guAGvcD9weutuAAi/HlHqEd5NTC1cXfAq+//ro6pwBsONeApRS0Y1x/+OEHdduFlL+M/uJCo27GnHO5NytUqKB14txzwhkZO0JLubdXrlyprixAI8AK+EZf6Osff/zh1UNpAMsrmeygMCrAPIJ7lWc1NHnswng5O82FAlEKYLFwy5Eih6zev1rKZS8XIsBKHDex5E2TV7eZZ7FDwnan4HqolreavFjpRZm/bb5u8X760mlh8cNW9ria2NFr9IrRXrkMPAEWiZWzJc+mbXN2J3Ouy45cLFhp/6Yjm+T0xdARYNr9Uo2X1Lk1ZMEQXdR2rNBRHRPfzvlW3RrBC4uzWvlrSatSrWTZnmVy7OwxuXHrhqzZv0YO/X3oHoCVN21eaVyksS5mD/x9wOtb0gCW11LZgT6iQGQBLOaArCmyypYjW6R4puIhAqyk8ZNK4YyF1QkFjPF0NQJPnin5jDQu2lh3UmX+YsfBZPGTSe+avSVHyhzyy/Jf5Lc/f3uo0sEBFnNKthR35q9zl+9OkgsAB17h2GL+CA3gdhryRp031FE2fPFwfenFyi/qBwkfT/5Y5+CQCh9WAP2W7FoiZy6ekQtXL8if+/+UUxdP3QOwimYsqjvM9p3eVyGeN8UAljcqhf8xBrDCX1OrMXQKRBTAclqBMwC4A+gYPHjwXY1jgQWwIJk3AAtXDaAHRw05izgPgAU4IrwPEOEALIAK8AbAsnv3bmnZsqW6bbgGSb8BFgAvwgUBSD179lTIAyzDGca5wC9PgEVIIDALsINTitxTTiGUDOhEqB6OHAqAA+dNSACLc4FnQBagE30jfM/JdeUJsIBFQJgRI0Yo0HIAFmFt9JOfWeCgISAIhxj9JuStcePG6hIC6PA60I56cufOrT+jBSAMHUlKT58dgMXY16hRQ51HOKsAWEA9nFuANxa+XIe6OQaIR5uAOGjpDcDieriwuDZuEK7jfNhEaCUQDzfTb7/9pgDLgXi4QzwBFoCIvtFfABOwkfkToAVICglg0U4AE5rfD2DhXANaAjyBfEAqwBowEMcYWuHGAmINHTpUgSwAi3sWrbjnCBnE3cV9C/wzgBW6OciOjhgFDGBFjK4RUavPASxgUOVcldWFtO7Aurv6zFbvtQvUVmcQrqTzV87LtA3TpHLuyvpJO4UF0pKdS3SyB8DgDABC4Yzad2qf5EmTRyasmaCf5rOY23tyry7irt24JtM2TpOTF04qiALqrD+0Xp1L8WPG163udx7bqfCnWfFmcvX6VXU/rNq7SvKlzSftyrXTT/AnrpuooXm0p26BurrVPM6imZtmqqsLcFYxZ0W9Hp+mEK7Yf1Z/bW+5HOW0bVyjap6qkjNlToVGB08dVHBVLFMxWbh9ofYBxxfOBr6oCwfAhX8u6Hm5U+fWT1iuXb+mDgWu06t6L1m0c5E6M9CDPlbJVUWGLxkuuK1q5aslc7fOVVcWxQFYdQvWla9nfa2LZgrHommjwo30jwP6hpuDkJ7imYvL1qNbdQzoa9XcVSVBnARCuNGGgxtkxqYZ6ubCqYFbjYVssgTJNAxq0PxBujinXQA3NFi5e6UuPh2Xm3MzmAMrIqYCq9NbBR4EsAjh4x7ednSbPgPBS6MijdRtGSdmHJ1jVu9bLThDE8dLrLBpxZ4VsnTXUoXi1fJUkwxJM6jDaM+JPXL03FEpnKGwzNg4Q5/xeoXqaejt9ZvX9Rlh7mBObF68uYYKM9+x6yDhycyde07u0bBp5p+LVy7qc7375G4pkqGIdKjQQeLFiid//PmHTFg7QQqlLyQVclbQ+QW4PmvTLDlw+oBUzllZCmYoqPMVX4QxDpk/RPvD8ePXjNfnun6h+ur2Yv4Cpv196W8F8LSR66dNnFbr5jxCqH9c8qOGIdLnLCmy6DyDs4k5mbZ3qtRJFmxfIDM3z1RJmxZrqh9AfDDxAwVjzKuT103WPjofOjC/l8hcQr6c9aXOUc78BayqkqeKOrOYOwFWzLUlspRQwLVs1zJ9Ddcr7aMti7YvksW7FmvoeZsybfSa/A5gngfajVw2Un8PVMldRXN1oc2szbN0LmQuc4o5sLx9yu5/nAEs9xpaDe4UiGiAhfOJUCuSbwNWPAtgBAiAowhgBCzAeYUbiXA4J2QMhxAhbsAnJ4TQCeHDuQN8ALSwax7Agu3icbcQnobzAIcSwAj4AiwhDJA8V5zjCbB4n5/J/8TfnQAJQsQId6Qe4Bb5sghTc9qJ2wnoEjyEkDaR14mwRUIMCYnD7RMcYBFWCVCjrbglqNsBWEASwi0BNDjT6BvH4h6j7Ywd1+B14BMuNPJH0Q/ADm0mzI9jyMdFCCS5sLgO7wOVgDcrVqzQ8EkgjZNnDI24DsnYGUN0BzLh6gLYAbd4jRxiOJuoF0jH3+gAHoAkrjHAFzCMcwh1BPBwPPnOKGhNOCPOOeAQGuPeAnx6AizCAydNmqQQDJCJNtwfjBP3UEgAizHm3sNZBfTCWYdDjfBCp9BW+ghE5B7FwYUGQDfnOrSd9nKPcm9xDvUwBpxD+COgEC0BWhZC6G5OsrPDRwEDWOGj46OoxWcAFsCExRVhaCx+cA+wYMBtxAKKAtjoXq27LrhGLB0haw+u1RAWwM4fa/7Q8D6A07jV43QR06BwA5m6fqpsObpFIRWLFBZ3/Wb0kzxp86hrCtjEghEARSHshlA+FlVzts6R12q/pos9QA+hd1yLhVrC2Al1C/pRy0cpqCqTrYyG4MzbOk8XWtSBuHO3zJXyOcrrQm/qhqlSr2A9dQCwIATGsej5dOqnQggeOV5oW87UOaVh4Yby2+rfFAjpp0CpckqdgnXU3UV9LDB/XPyjvsfic9yf42T25tkKktCLhVe3Kt1k9pbZsuPYDnmhwguaM4YcMiyU86fLr+6qyRsm60KRxTCLV4AexQFYTYo0kVErRsnuE7vlxr83dKGMswGgh1bn/jmn2pbOUlrbh0OCvFqMFbl4CDcEZBXKUEjDf3CR4GLjWiwM0YmFNgvA58s/r0CMsURPFpqEV24+8l+IJ20zgPUopga7xv0UCAlgOfMXc1DTok1l3cF18ue+O26fK9evBDkWCd0FAPPscl/jEOJ5BuDiwCQskGcIdxHwhXmOkDueMZ554C+uSQBw82LN9ZkGLner2k1Di5fuXiqv1HpFHaIA+DfrvqnP4+9//q5tAerjMAWQAYOAynXy11GHFB8MAF1W7l2pwJv8gACkZ0o9o8/94h2L9fuVe1YqmGEeAHp9NfMrSZskrf48YM4AhesVc1VUWAUgY47iQwnCG5nfniv7nIIfHGCAIOZswD8fWGRKmklD/MiXxXxAPwhp5EMD5kMAEwXo17FiR+k3s5+2DSgGBMP95eTEoq0Vc1SUEctGaLjklWtX5PL1y9KzWk+5+u9Vmbh2oly6ekm1JRwSIKZQ78Ru7ReQjfepG/jGuORLl09q5KmhHxgwx3Wu1FnBPzoC2Zg/0QcYxhjRR/Q3gBV+84kBrPDT0moKmwIRDbD42xGYhBMK95BnAXbwHgCBXFRAFdwrOJaAMYR2cT4/E5oF1MAVs3DhQgUpABagCwXHFm4u8hnly5dPwQlhh1yTOgFJPG+ADPI2AaWAScAt4A+Qadu2bQpECHkkJ5WTBJ26AUNck9xQuKoAGuSXAl4RfgfMAWoR7kfbAVgAHaAGfaBv5J3BmQVA4XigD+FygB4nPJHXyS/1wgsvaL/Xrl2rrjPaC1AjDBBnFeFq6IMetIWQO8rMmTOFxPk4q+gL5+FEQzP6RGgcrxHOyfUBUTjKeI32ApgAWjiKaAuuK/qC44rQPWAT0I5QQiAO9w+6AaLoI33lNVxL/L5EV/oMnKI+2srrgEG0AwbheAOy0QbCQ0kaz9jibsNRB3iir/SDY3Fu0VbqYCwZd2AXQBSYhMsLTYFdnMt10YM6gVnBwx4Be2iMw4t8VrjtgF/Uyd9IOOnIrUaONsJAgYnAWO5ZrkGf0YV+4dJiTL0pFkLojUp2TFgVYM7D0cl8wdxkxXcV8BmARYJiFhw4C1gssHBg0cGiBVeCA7DIfZIoTiLNpcIv8nfrv6u/cPjkH2DSpGgTWbZ7mU6KuLS+X/S9uqooLAhZZLGI8syBxQIQYISriJxQwBMHYHWt0lWBFPCJBQsOJ8J3cDrgbCDkpn2F9rpwYtHJ4gXnBUBs4+GNCuKAVIXTF9ZP6gE4LF6BaoAwgBoLUk+AheuJ8L4vpn8h5/85ry6uMlnLBAGsctnKqWOD8BmSKL9T7x1Ze2CtLtSAaCyiWaDiIGARykIZXX5e8rMuTgFYmZNnlnZl2+nia962effcoSzIOZ9FIgtfxgMY9cuKX3RxVjJzSYVj5LvBmQZIbFS0kS4ANUl+rHia4Jj/WTDjkGAsSmctrXCxz/Q+glsFiEgSdxbOaMY4AgZxs71a+1WZvnG6au9ZDGD57oQSFVoWEsAidI98dtzrQHggDK5P5gfmA8cVBBBnbuL+57l+q+5bd5xPa/5QgMUzN2PzDEmXOJ0+c4MXDA4C+EAb5kgFWB45sAjZbVasmeRKlUvnKiCXA7C6V+kuQxcNVTiE+6dFiRb6bJF4HAcU0BvwDPwCzuN4JLdf96rd9XvmRuATc+umQ5uEUOGvZn2l4dXA+JJZSsrQBUODANYPi35QQA3sB/gA07ku8w/uMebeVqVbBWkAJOpSuYtqROgicxdaMh/WL1hfARgACAjOhwWAQWcu53fBgLkD1AUbUuE6APIT507oxhh8GECbWpduLdlSZtP5a//J/erawjlFfrH3J76viea5PjCNsSG0krbz4QHzPyHe5OxDPwAh7rhNhzdpv4D0uO9SJEghb9V7S8d14Y6FQc0zB5b7GcIAlnsNrQZ3CkQ0wHLXuqhzNsAHOEJI3eLFi73aSCOy1SGEERcSMIdk+o6rKrLbxfVxl+FMw7WHqy2k/FeR3U4DWJE9AoF9fUArEJhdNfkAwYrvKuAzAIswMxrDAgbIxIKKBQYLPyePCwDJE2ABPoA3LDZwUTmFhSMLDt5nQQWAeRjAYjHGIhAnEIuyhwEsoBqf2rO4Sp80vYIrFkFr96+VHcd3yAvlX5Aj547oAkmt1Ncu6oKHdn2/8Ht1RQF1WGyyCPMEWDjHAFAALPJWeQOwgGUs5FgoAuxwMhHSt/3odgWAaEpo0Pzt81VToFrbMm1lyoYp9wVYuDXQhfY5IYSEwwAGcVOwEMbVRmgiYU71C9dXgEWumoaFGupingVo6kSpdRHoACySJLOQpZ7nyj2nuhAaSRtxijCWLJhfrfWqgq3J6ycbwPLdOSTKtSwkgOXMX0niJpH25dsrRMft6Dl/IZQnwALgAkAIoyXsmXnu5u2bsvfEXg39A5QAh5xdUu8HsADG5LXKnza/whLmsQcBLNxSzK84XYEvuJ0AxQ2LNNR5jLmvV41eCqn2HN+jHxDQFtxS5O37cuaXCq6BbQDpYQuHBQGs4YuGS838NXVnQhxRPOveAKydJ3bKvpP7NPySsEhcVYDy9QfXq9uL/Hq4tJx5Hi06V+6s8whQPqRCCCFzOVAJyMc8zPyFexZHKHMMmjHnAKocgMWHBsyjzG/APD4USJsorfyy8hcFafw+YVzoF0nc+X0DtOLDCDYF2fHXDt1dFoCFy4s51ykGsNxPFwaw3GtoNbhTwACWO/3C62xcU+RdImk40CX45hzhdZ3wrAeHB6CI9vrajmaEkxJ2SFJ8HHK+WAxg+eKoBFabYBG+BJYDS93w643PACynS3z6TrgICwLcBJ4lOMAi9wthcCQP5tNxZ1ctzSeVvZwCJj7VZyFG+BvuARY1GkKYJo9+Yj5y+UhdaOIEwtXEp/yEAD0MYOF2IgSwbLayCo5oK/UBsFhk8ck/4XWT1k3S5MEsyHAkkT8FxxJQhtAZoBduDE+ARY4ZcsGQEJ2FIk6zgukKPtCBhbuAhRTQiQUl+V0IGwSU0ba2ZdtqSBMhkyziKuSooO0ftWyU5qcpm72sLNi2IGiHMCeEEGcaub7QUG6L3JJbkvrJ1OqsYHFK2AzXWrpzqealIXyTBTVuKo5hXFiUsvBjIYk7BbCGfvQLNwTAjeNoL+FSLFRxy6EBITgsYD2LObDCbwKwmkKvwINyYAGemQeYE8hvFbx4AizeI0yuQLoC6ug5dv6YQhZAFkAqT+o8Cn0BwuRq4pnwdGABupm/cC91rdxVc2QR5tezes8HAiyAMs4gQpYJVybnEy5MgDYwCLdWj2o9FFr/vubO1taAOMKTcWQSerhoxyLtJ5Dnm9nfBAGs7+Z+JzlS5dA+Ed7o5J4ixx7Q6H4OLM1ddfumAiX6DFTDIYpTlXmJ+Wv5nuXq0KQQ7geo+3jKx5oDjA8GcGriWnMKWuFcZeMKZ2dY5j7cbczJFDa3wD3F7w5CGwlZBlARls2chwtNwx/TFZQhC4colCe0mTmRzTUIR2STC0LH2b2WMeeLvjJeQDzmZqcYwAr98xb8DANY7jW0GtwpYADLnX52tikQVgUMYIVVOTvPFAgsBXwOYAE1gCfOp+XBARa7T7FI/GzqZwpQOJYQFNwDgCsSIxPiQtgccKVG3hoKXghLwykEkMFBwGKsafGmkiBWAnVAEB7H4urE+RMKX4IDLHLBANAAToTasCgCgnENQnrI40TeGAAWEIf8J3w6z2KJsmrfKs0PUy5nOd0BkDwt7OxHThZyyJDsnK3iaRuvAdS07SLabhxKhPqMWTFGQxzZLZHcWYQQ4uLAqcDilbA7+oZjYvux7eogIAwTcIduhF4C08jdgqOCOoBw9IMQw6kb74TrOQCLPFoxosfQ8UBvHGrk4wKAsdBm4dlnWh91fLGILpKpiIIy9MA1gXsMR8WZy2eCQoDeb/C+AjOcJbgdWPCRA4h2k8uHUEzaD+Rioc21PYsBrMCahPytNw8CWM78BfDx3MHU6SP5qZin+s7oqy8x9/As8jzJY6Ig5bMpnylgaV+2vebHAtCwCcSGQxsUOn037zsNsyZ/FjsIAt6Ztz6b9plu5MC8M3/HfNl4cKM6VnGhEnoHPMHxSa4rnnXmMdxSTp4t5lEAFk7NfGnySY/qPTSMjucciEQeQFxXuJOYH9hog1BB4BuhgMwx9OvkxZMKhpinAEa4wZhfcWuSUP3Zks/q/Mex9IP+A9pxLhGyTeJ68g4eOnNIw7CB7Lyu+Uxm9lX9CHEk19bbf7ytbjXygWk44b5V6gal4OhkHgWw0wfmQoA4OQuLZCyi9TFPfT7tc/0exxRwD2gFxOKDDM4jDJv5i7kPINe3RV/JmjyrzofM1bM3zda5qkD6AtpvXMT/3PhHvp75tbqIg+8EObDNQHm+4fOaNNhK6BUwgOHxlX4AACAASURBVBV6zeyM8FXAAFb46ukPteFEpjgbmPhTm4P/De0Pbb9fGw1g+fPoWdtNgfBTwOcA1oO6RpiOsysU8MOxC/NpPWFoFCZq3gPSEKIWO/qd13WnwX+vKYRilyx2w+N7fimxwGGxyaf3LDY4j585nrqdXQq5PkCGxRuLF+qgPdTH8RzLddmdijoJS+EYFqbknOE4dtTiOF7T8KJbt/R1EprHinGnbU7+LtrHcbgvnLaTEJqFKMfTT9rEdVi0cQzfKwC8fUtf4xpcu1TWUrr4Jfkwi7HeNXqriwKXRPTHo2ufyRMDiHIK16etLMqdX9xOv9GBQn8d1wNa0D9e49qMCefyPe2hfpxwhE5xPv2k/yzQ/7n2z3+aPREtCJh5tsdplwGs8JsArKbQK/AggPWw2vTZF9HnnMJzzHMTK9qdZ53nFefi7Vu3JXbM2Po6sIc5gOeE+YxnkHmL95hn+B67M/MBzxlzAM88zyE7+3E83zNXMMc88dgTCliYJ6iD9zmPtnEezxzuInbc438+AGBu4Tjy/ulzLY8pnOI8+kI7aBvfO3VxrDP30i/qYq5w5mrnPOYe6mKeoA0cp+GUN29qu5nzcItWz1Ndhi0apnUCy4Bt7KrK8dRJfbTfKbrLYYw4QfMXbWCeYe5hDnXmr8tXL6vGzEv0gzo41mmnEwZKO2gnblnmTM6hnYwN76lmseJpHcxtToJ4z3vCHFgPe0Ie/r4BrIdrZEdErAL+DLAAALlz59ak3CwASO5NQvFTp+6k2qCQ2JtdDknETXheROVCYqc+rkO4GknOU6dOrT8z95PcnEJSdjfJlPn9SGgc1yIJe1jqSpgwoe5MyG6L5Nvy3JEvYu80d7WzKyLJqEnmj8bhAbJI1k4SexKwb936n7uYv/UJ6UQjdk4k+X5EFANYEaGq1ekowEYGadKk0c0mwuN5MWUjTgG/AlgRJ0Pg18xiEvcZoTQskElET24Wtrh3du3yFxUMYPnLSAVmO90ArMBUJOJ7heMUpxXh14A33FfMX6cvnfaLvCeOQgaw3N8rBrDca2g1uFPAnwFW0aJFZeDAgfLmm2/qznF9+vSRXr16yYwZM4JEYae4Dz74QHes+/jjjxUuOYVFA6CJHfJ2796tgAnQlS5dOt2JkF0H//777/sKDPzgujhQSWjODnfsYkfeJdrBznkrV67U3eqAIexOGHwHvNCMHtd6+eWXpVy5crr73a5du0Jzuh5buHBhTW4+YcIEbSu7EmbMmFHbzC57FHYeLF++vO76OHv27AdqEOoGBDsBiJM3b17tC2N0v1KoUCHVl13VRo0aFQQF3VyfHF4keN+7d6/06NHjrvuCe4JdG4cMGSJLl/6Xl9jN9YKfawArPNW0uoIrwA6rn3/+uXTq1ClcnhdTOOIUMIAVcdpazRGkgAGsCBLWqvVKAQNYXslkB4WggAEs97eFASz3GloN7hR4FADL0/kevLW857zPe040guc5nq95HotLpnjx4gqQgFkArN69e8vMmTP1MrgOcBzly5dPrl69qq4l/nfqANQAKgYPHiybN29W6LRv3z6pUaOGfv/aa68p1AreRupNkCCB9OzZU6JFi6aLRHb8AlhxPk4pnEK///67jBw5Ul9PmTKlgpCLFy8+sL+OBk6fnXA/Xuf7XLlySbJkyWT16tVy4cIFfc0pTkhg8PZ61slOh3Xq1JF33nlH3WpDhw7V5PHvvfeeDB8+XOujvf3791f3GvcH+nrW6Rl66M31neNDOpaxQcfvv/9eVqy4s0t78PuB89H7//7v/9QZxfHnzp3T4zydJcHvM6fNwe8pR484ceJIsWLF5NKlS5qI3jmexSRur3bt2hnAcje92NmRqECmTJlkwYIF6jJk3rHiuwoYwPLdsbGW3UcBA1h2a0SmAgawIlN9/762ASz342cAy72GVoM7BSIaYAEcXnjhBXX3jB079q7GAn94DwcOUAbQQFgbz0WjRo1063dg1KBBg9RBAFBo3ry5hgsS8oUbp379+vLjjz9KkiRJ5Msvv9SQL5xKHP/FF18otGrVqpWCjilTpkjr1q3VWYT7ZuPGjeowwsEFzJo2bZrWgcPJAVjUR8hdgwYNFHAAunBBtWnTRmEZfdi0aZNMnTpVnVYcD/wAjOH2+uWXX9TVhfOJ6+CKeOmllyRVqlRy/vx5hUYchwOI9+gzr40fP1770bdvX8maNauGPo4bN077RV3AOoAQrjIWqpQxY8bIgAEDpEiRItK2bVvVNHny5FrnDz/8oG1B3/jx4+v1eP3bb79VwLd//351ZuGCor/0jxBFdDh69Ki89dZbCgu55rJlyxTu4dxCA85H31WrVqmjifbiEENnwu8AT3/99Zd89dVX2m+OnTx5sjqpeI8xPHbsmMyZM0dGjBghr7zyivbp33//lSVLlshHH32k/X/xxRelSZMmqiOQDffY66+/rtCQ8swzz0jBggXljTfe0HMZM+4jXHqAKsIQuXfoK/oRWsW1gGG0jfsE3TiGPjO23A/mwHI3x9jZkaOAAazI0T0sVzWAFRbV7JxIVcAAVqTKH+UvbgAryt8CYRbAAFaYpQs60QCWew2tBncKRBTAihEjhoIMvgidO3z4sAInYANwAIhBjhZgBI4nHDjz5s2TSpUqSe3atRVKAVoAToCv06dPC+6h6dOny6JFi9RJBZz55JNPFFQBe4AnOIpwPgE7eB8AxPXJRQUwAdKwWOAcAAbtQwO+B6QByygAGCANeawAZzipaDtwB8cOberevbsCGtxKwBpgD0CMXFtAKiANIAoYBDwBAjlgjtA0ci+dOXNGc1plyJBBvwfmAKBoH8fiPBo2bJjm9QIoNW7cWPV6++23pUWLFgq9ADTkAsNZRf8Bge+//77MmjVLoR3t5xrAGuAb9dAWCoCGUDbaTz8Ag2iGcw2ohwaE9+FwA56xKG7ZsqVqDOChX1wTsEe9SZMm1VA/wOHo0aO1j4C6rl27apgl40VeHjQBqjlaM3aAImAf4Zv0lzBGACe6EuKIHgAzoBVjiE6EQTqhh6VLl9b3CSEFfDIG3Be4UACfvL5w4UJ9HSAGtAKgcW+hw9dff639AEZyr2XJkkX7YgDL3RxjZ0eOAgawIkf3sFzVAFZYVLNzIlUBA1iRKn+Uv7gBrCh/C4RZAANYYZbOAJZ76ayGcFIgogAW4AVHC04kgAQhLMCB3377TZ02OGQcgAUoADgBLwjHA8YANwAdABLySAGN+BngQM4iCsCJUD0HYDk5sIBIgCBAB2AEx5IDsAAyhIsBaYBsuK2AFTh/atWqpfmvAB58z7FAE5xGhK0BOrp166bHA4CASYAW2kQCeaAS8IPwPgASjqdJkyYpgAE2AZpwEAF8OI424eoCLgGIgEY4iIB4OKkAZIAuABaF9jJeAD6AH3APKEN9uK0+++wzTcoOcOFcwgRxmXEOYYKAG6cfvEdBB8aCNgDocJB17NhRnU+0CQ23b9+ujid04Do4m4CNTq4v4CT5wtCVEEcgIVoAiwCVQEDykK1Zs0YdX7jyuC5tRWs0RUNCCIGWgCngI5oCutAad1n16tX1e6Dn4sWLQ3wCcKRxHrpxTwHwyHPGPcY1gIsAvWbNmimwY1y4twCjnTt3VsCGk4zx5/7lGANY4TTZWDWPVAHmS9ycPK+AZCu+q4ABLN8dG2vZfRQwgGW3RmQqYAArMtX372sbwHI/fubAcq+h1eBOgYgCWE6rcPYAHUheTq4pzxIcYAFSAFgALyfcEMiDAwg3DmF/QAgnZOxBAKtu3boKOnBUAYUeBrAAYQA0wArOIlxMuJUATkAtQu5wW+EkAoAAaIBboQFYtAXoBcgCPAF3ADVAJfoG+MIRRqgeAAuwwznAquAAi4UpgIWwRwAXIZQAPNoD3LkfwAJOOX1zABa5tEhWD+TCRUUdACySmAOwAFfAMtxZaMS8RfsBh7g8gICMD04o4CIOLbSnDvoIUCLHFoCLfgHq0JlrAsHQlHEFcOKWox1owb2DXrSB+wHohMOKccGFF1LhfEIIcWChJfUCvoBoDvwEQOLI+uabb+Tpp59WgEV/0IYQSwAWLjf6zDEGsNzNMXZ25CiAgzJnzpz6XDH/WfFdBQxg+e7YWMsMYNk94IMKGMDywUHxkyYZwHI/UAaw3GtoNbhTIKIBFs4eYApggzC8BwEsXFpAg3r16inkAVwBtYAqABLC93BwAT0IIcRhAAhxHFi4ezjv119/VeAEXAGIAVQeBrCoh4Ueji8ACKAGgMMCEBcQLif6AFSiLpw5XAPYRY4mQvkAKw9yYOF6AojRT9pKv3A0AZ5IFk/IHe87SdaBcNTPseTJIuyNvgB4qAuAhdON0DfyUAF4gF3ktsL1FZIDC3CDS4r3cUDRb8AcmnI8II2wORwbhFECj5inyDfF68A8XseBhWuJcQCA4fIoVaqUgiCuAQQivI8+oiXa4OLCmUYduJ2AcEAvrvHHH3+oA4sxBsYxbhUrVlQXHKGPOLAATAAn2k6CecAkY+25sySgCr1wcuEAY5zYwZB6CeeknwBVnG/0nfbgrENDjqXdhLrizCJvFmNrAMvdHGNnmwKmwIMVMIBld4jfKWAOLL8bsoBqsAGsgBrOR9oZA1ju5TaA5V5Dq8GdAhENsPjDHMcNUCX4TljAGcCCA02AHezmRyJtQgCBIyTYJpyQROmAJNw01IWbh/A8YMpPP/2koAe4BCwB6nBdwsjWrVsXlAMLuASUIj8T5+AAI1wN+ELOLULlAG6E2uEawkUE3AAqAdWAHoTYAUDI68TrtAknEaFwOMJwBgHCCF/DHQUwAcoBnXBtpU2bVre1B8DgdMJZxLWqVaumYIz+8j/5mQBDOJdwaXE9krgDZgArQDtCCnFv4ZCi/+S8wuGEgw2XESAH5xvtJLE85/Ae8AhoRtvoK9chXxf3AlAQkAUIom/khnJcYvy9QPuAioR1OuCKdpDcHcjEmFSuXFkTqnM8ydmBQ+TPAlQRzuckgie8k50A0YP8WGvXrtWxwUXFNagfzQnvRFegFtciTBC9gGpoSlJ2pzD29B34heOPcFKuAVTjnqI++oBOAFLgmJPHjPMaNmyo1wbgMT7ce9xDEVHIPcYYEK4ITLRiCpgCUVMBA1hRc9z9utcGsPx6+Py+8Qaw/H4II60DBrDcS28Ay72GVoM7BSIaYLlrnZ0d3goAqAiXBBQByQif84dCmCJAEYcZea1wo/l7MYDl7yNo7TcFwkcBA1jho6PV8ggVMID1CMW2S92jgAEsuynCqoABrLAq9995BrDca2g1uFPAAJY7/fztbHblK1GihOaXIgyQnQ/9oRAuiFMNpxhOvUAoBrACYRR9tw8862xgQWiu5cDy3XGiZQawfHt8rHUhKGAAy26LyFTAAFZkqu/f1zaA5X78DGC519BqcKeAASx3+tnZpkBYFTCAFVbl7DxvFLBdCL1RyTeOMYDlG+NgrQiFAgawQiGWHRruChjACndJo0yFBrDcD7UBLPcaWg3uFDCA5U4/O9sUCKsCBrDCqpyd540CbGJBbr48efLck3/Qm/PtmEengAGsR6e1XSmcFDCAFU5CWjVhUsAAVphks5NExACW+9vAAJZ7Da0GdwoYwHKnn51tCoRVAQNYYVXOzvNGAQNY3qjkG8cYwPKNcbBWhEIBA1ihEMsODXcFDGCFu6RRpkIDWO6H2gCWew2tBncKGMByp5+dbQqEVQEDWGFVzs7zRgEDWN6o5BvHGMDyjXGwVoRCAQNYoRDLDg13BQxghbukUaZCA1juh9oAlnsNrQZ3ChjAcqefnW0KhFUBA1hhVc7O80aB5MmTy/vvvy+9evWSq1evenOKHRNJChjAiiTh7bJhV8AAVti1szPdK2AAy72GUbUGA1juR94AlnsNrQZ3ChjAcqefnW0KhFUBA1hhVc7O80YBoAj3GDuN3r5925tT7JhIUsAAViQJb5cNuwIGsMKunZ3pXgEDWO41jKo1GMByP/IGsNxraDW4U8AAljv97GxTIKwKGMAKq3J2nikQWAoYwAqs8YwSvTGAFSWG2Wc7aQDLZ4fG5xtmAMv9EBnAcq+h1eBOAQNY7vSzs02BsCpgACusytl5pkBgKWAAK7DGM0r0xgBWlBhmn+2kASyfHRqfb5gBLPdDZADLvYZWgzsFDGC508/ONgXCqoABrLAqZ+eZAoGlgAGswBrPKNEbA1hRYph9tpMGsHx2aHy+YQaw3A+RASz3GloN7hQwgOVOPzvbFAirAgawwqqcneeNAgkSJJD69evLmDFj5MaNG96cYsdEkgIGsCJJeLts2BUwgBV27exM9woYwHKvYVStwQCW+5E3gOVeQ6vBnQIGsNzpZ2ebAmFVwABWWJWz87xRIEOGDDJlyhQpWbKkXLp0yZtT7JhIUsAAViQJb5cNuwIGsMKunZ3pXgEDWO41jKo1GMByP/IGsNxraDW4U8AAljv97GxTIKwKGMAKq3J2njcKZMqUSRYsWCB58uSRixcvenOKHRNJChjAiiTh7bJhV8AAVti1szPdK2AAy72GUbUGA1juR94AlnsNrQZ3ChjAcqefnW0KhFUBA1hhVc7O80YBA1jeqOQbxxjA8o1xsFaEQgEDWKEQyw4NdwUMYIW7pFGmQgNY7ofaAJZ7Da0GdwqEJ8A6ePCgLF682F2D7GxTIIookDBhQhk3bpzUqFFDjh8/HkV6bd18VAoQQjhjxgwpWrSohRA+KtHDeB0DWGEUzk6LPAUMYEWe9nZlEQNYdheEVQEDWGFV7r/zDGC519BqcKdAeAGs1157Td544w25efOmqwZFixZNbt26pV9WTIFAVuCxxx6Tc+fOaY6iEydOBHJXrW+RoECiRImkffv28u2338q1a9cioQV2SW8VMIDlrVJ2nM8oYADLZ4YiSjbEAFaUHPZw6bQBLPcyGsByr6HV4E6B8AJYcePGlfjx47trjIgMGTJERowYIcuWLXNdl1VgCvi6AgDf06dPG7D19YHyw/Y9/vjj+iH1lStX5Pbt237Yg6jTZANYUWesA6anBrACZij9siMGsPxy2Hyi0Qaw3A+DASz3GloN7hQIL4DlrhX/nc2W70OHDpX58+eHV5VWjylgCpgCpoAp4LMKGMDy2aGxht1PAQNYdm9EpgIGsCJTff++tgEs9+NnAMu9hlaDOwUMYLnTz842BUwBU8AUMAXcKGAAy416dm6kKGAAK1Jkt4v+TwEDWHYrhFUBA1hhVe6/8wxgudfQanCngAEsd/rZ2aaAKWAK+KIC5FiLHj26XL9+3RebZ23yUMAAlt0OfqeAASy/G7KAarABrIAazkfaGQNY7uU2gOVeQ6vBnQIGsNzpZ2ebAqaAKeCLCiRJkkS6desmn376qSVx98UBMoDl46NizXugAgaw7AaJTAUMYEWm+v59bQNY7sfPAJZ7Da0GdwoYwHKnn51tCpgCpoAvKpApUyZZsGCB5MmTRy5evOiLTbQ2/U8Bc2DZreB3ChjA8rshC6gGG8AKqOF8pJ0xgOVebgNY7jW0GtwpYADLnX52tilgCpgCvqiAASxfHJWQ22QAy3/Gylr6PwUMYNmtEJkKGMCKTPX9+9oGsNyPnwEs9xpaDe4UMIDlTj872xQwBUwBX1TAAJYvjooBLP8ZFWvpAxUwgGU3SGQqYAArMtX372sbwHI/fgaw3GtoNbhTwACWO/3sbFPAFDAFfFGB9OnTy/jx46VcuXJy+fJlX2yitel/CpgDy24Fv1PAAJbfDVlANdgAVkAN5yPtjAEs93IbwHKvodXgTgEDWO70s7NNAVPAFPBFBeLFiyf8jTF16lS5ceOGLzbR2mQAy+4Bf1XAAJa/jlxgtNsAVmCMY2T0wgCWe9UNYLnX0Gpwp4ABLHf62dmmgClgCviqAjh7bt686avNs3YZwLJ7wF8VMIDlryMXGO02gBUY4xgZvTCA5V51A1juNbQa3ClgAMudfna2KWAKmAKmgCngRgELIXSjnp0bKQoYwIoU2e2i/1PAAJbdCmFVwABWWJX77zwDWO41tBrcKWAAy51+drYpYAqYAqaAKeBGAQNYbtSzcyNFAQNYkSK7XdQAlt0DLhUwgOVSQBHNT1GzZk156aWX5Pbt2+4rtBpMgVAqYAArlILZ4aaAKWAK+IEC0aNHl7Rp08qBAwfk1q1bftDiqNtEA1hRd+z9tucGsPx26AKi4ebACohhjJROGMByL7sBLPcaWg3uFDCA5U4/O9sUMAVMAV9UIEWKFNKnTx/p2LGjXLlyxRebaG36nwIGsOxW8DsFDGD53ZAFVIMNYAXUcD7SzhjAci+3ASz3GloN7hQwgOVOPzvbFDAFTAFfVCBTpkyyYMECyZMnj1y8eNEXm2htimyA1a9/P9kad6vsPrHbBsMUCJUCHUp1kP4v95e1a9eG6jw72BQIDwUcgPX9tu9lz8k94VGl1RFFFIjxRAzp17KfPFf/OVm/fn0U6XX4dtMAVvjqabWFXgEDWKHXzM4wBUwBU8DXFTCA5esj9F/7Is2B1a17NylWtpjcuHkjQtVKly6dpEqVSk6fPi179+2VWzctpjVCBX8Elcd8LKZ88M4HsmvXrkdwNbuEKXC3AjFixFCLcZLUSSJ8/goP7W/Lo80TFC9uPJ1zd+225zP4+D0mj0nS+EmlV49esmePwc+w3N8GsMKimp0TngoYwApPNa0uU8AUMAV8QwEDWL4xDt60ItIAljeNc3tMkiRJpFu3bvLss8/KokWL5O2335Zjx465rdbONwVMAVPAFLiPAtmzZ5d27drJa6+9ZhqZAuGugAGscJfUKgylAgawQimYHW4KmAKmgB8okDp1ahk+fLg0bNhQ/vnnHz9ocdRtYsACLHYSYBGVN29e3bVo/vz5CrHGjBkTdUfbem4KmAKmQAQrYAArggWO4tUbwIriN4APdN8Alg8MgjXBFDAFTIFwViBmzJiSLVs22bZtm9y8eTOca7fqwlOBgARYjz/+uGTOnFk6dOggS5culV69esmnn34qZcuWVYC1devW8NTQ6jIFTAFTwBT4nwJZs2aVVq1aybvvvmuamALhroABrHCX1CoMpQIGsEIpmB1uCpgCpoApYAqEowIBCbCwAHbu3Fm2b98us2bNkl9//VXat28vTZo0kdu3b8ugQYPk6tWr4SijVWUKmAKmgCmAAokTJ5Z8+fLJwoULTRBTINwVCAlgkZcuZcqUEjduXDly5IjuHsTveiumQEQoYAArIlS1Ok0BU8AUMAVMAe8UCDiA9dhjj8nTTz8tLVu2FP7IuHz5snz33XfSo0cPAWy1bt1aRo8eLZs3b5Zbtyyhu3e3iR1lCpgCpoApYApEvgLBAVa0aNGkYsWK0qVLF8mVK5e8/PLLMnPmTLl+/XrkN9ZaEJAKGMAKyGG1TpkCpoApYAr4iQIBB7D45B+AheuKUEGAFn/U7tixQz+R5T1ytHzzzTdy6tQpPxkma6YpYAqYAqaAKWAKBAdYuK8AWCVKlJAqVaroDqE4rw1g2b0SUQoYwIooZa1eU8AUMAUiT4HYsWNL0aJFZdmyZZYDK/KGwasrBxTASvr/7J0HdFRV14ZfICSBJIQQem9K7733jgVBBbHipwioKPJbsLfPDlhRFAuIiohYQJAuvfcivbcQegIkIfCvd+vwBQRMZuYmM5P3rJUFzNx7zrnPuRNmntl7n3z58Pzzz2Px4sUYOXLkZQEwzeCFF17Ar7/+it9++01RWKm6TXSQCIiACIiACGQ8gSvVwGrZsiWeffZZDB48WAIr45cpoGcggRXQy6uLEwERyKQEihYtii+++AI33nijZXCp+S6BgBFYjLRi2iCjrZgyuG/fvstS5wU3aNAAN998Mx5//HEkJCT47upoZiIgAiLghwS4kYZStP1w4fxgyhJYfrBIAT5FCawAX2BdXpoJcOd3fr5iY7YLI2BT1iHkc0z35mc1V+Mub0lJSReNxWP4k7KdPXsW/EnZUo7nepxjpnzfwfchPC7lmL4yN86J0cOa2/9WNTVr6jS3UqVKYdKkSahSpYrV0lTzXQIBI7BKlChh9a0YWbV69eqrfnjii4RvQGJiYjBu3DjfXR3NTAREQAT8jEDBggXRqFEj/W71s3Xzl+lKYPnLSgXuPCWwAndtdWVpJ8DPVNzpPW/evCaaNm3ahC+//NI+Y7larVq1bCMtZsq4JNecOXMwZsyYiwIJOnbsiM6dO5vcYWMUDLNlpk+ffkFihYaGWsBCw4YNL/R/+PBhq2/Mz38ucVasWDH07NkTZcuWvXDc5s2bbW4HDx688FjNmjUtqCHl3LiDPXetTxnkcOncTp06hYkTJ/5jbj169LD3QK6WHnPr0KEDrrvuugvcAnluXHvudu1qW7ZssTU9cODARWvK+y1//vwX7jemBbK8UMo1JTfebyEhIXYcBSg3gnnjjTcU4JL2XwXpekbACCz+4ilcuLDVukp5c/ICWfOKv7RSmn4WdC9QoACWL1+ersA1mAiIgAgEMgH+vu3VqxeeeOKJQL5MXVsGEZDAyiDwGvYCAQks3Qwi8D8ClE2jR4+2jTRSSisxEgEREAGnCASMwLoSoPDwcAwdOtR2Jjp27JhTHNWvCIiACIgAYF8YSGDpVnCKwJUEFgu5P/300/b//ZQpU1TE3akFUL8WwR8ZGYl33nnHJ2gwUmT48OGYMWOGT8xHk8hcBCSwMtd662pFwBcIBLzAypUrl6WycPdBhnGqiYAIiIAIOEdAAss5tuoZuJLAypkzJ/LkyWNfVDHtJGX9FXETAW8SkMDyJk315e8EJLD8fQU1fxHwPwISWP63ZpqxCIiACPgsgdKlS1utizfffNNn56iJ+S+BKwks/70izdzfCEhg+duKab5OEmANLO7+yh3eFSjgJGn1LQIi4CIggaV7QQREQAREwGsEIiIiULx4caxbt85rfaojEXARq2lQaAAAIABJREFUkMDSvZDRBCSwMnoFNL4vEeBuf7Vr18aqVatU+NqXFkZzEYEAJhDwAotpBU899ZRFA2hLzAC+k3VpIiACIiACAU9AAivgl9jnL1ACy+eXSBMUAREQAREIYAIBL7D4zQC3deeWqcnJyQG8lLo0ERABERABEfB/Anxj0rx5c/t/mzsLc2t2V7ucwMqdOze4FfratWu1C5b/L7/PX4EEls8vkSYoAiIgAiIQwAQCXmAF8Nrp0kRABERABEQg4AgEBQWhQ4cOJrHefvtt7N+//4oCi19StW3b1lJYRowYcdGxAQdGF+QTBCSwfGIZNAkREAEREIFMSkACK5MuvC5bBERABJwgwB2JuPtrbGysE92rz0xCgOn/gwYNwq5du/Dll18iMTHRrvzSCKzIyEg88cQTWLx4MX766adMQkeXmZEEJLAykr7G9jUCWbJksUyXQ4cOXRQt62vz1HxEQAQCh4AEVuCspa5EBERABDKcAAu4d+rUCcOGDcvwuWgC/kuAkVXly5cHZcGPP/6IuXPn/kNghYaGonXr1qhSpQo++eQT7YDlv8vtVzOXwPKr5dJkHSbAXQife+4524nw6NGjDo+m7kVABEQACHiBxWiAFi1aYNasWdodQ3e8CIiACDhMoFy5cujVq5dFxaiJgCcE+MHohhtuQOXKlU1QHThwwIQV0wsfe+wxVKxY0bZuHzJkCObPn+/JUDpXBFJNQAIr1ah0YCYgwM9Zo0ePRr9+/VSDMBOsty5RBHyBQMALLKayjBkzBrfffru+nfWFO05zEAERCGgCElgBvbzpfnF58uSxnYRZoP37779H48aNTWANHDgQffv2RVRUlO0ynJCQkO5z04CZk4AEVuZcd1315QlIYOnOEAERSG8CmUJgjRs3Dt27d5fASu+7S+OJgAhkOgISWJluyR29YNZXqV69Onr37m21sFjzql27dhg/fjyuv/56vP766zhy5AjOnz/v6DzUuQi4CEhg6V4Qgf8RkMDS3SACIpDeBCSw0pu4xhMBERCBACbAGlidO3fGRx99FMBXqUtLTwJ8o8IvoapVq4bVq1dbGiFrrbAuFr+gUhOB9CQggZWetDWWrxNgqvfzzz+Pd955RzWwfH2xND8RCBACmUJg/fDDD+jRo4cisALkptVliIAI+C6BkJAQ5M6dGwcPHvTdSWpmfkcgLCzM6l5VqlQJNWvWxNixY02S7tmzx++uRRP2bwISWP69fpq9dwkwSrZo0aLYv3+/diH0Llr1JgIicAUCAS+wuEvRnXfeia+//hqnTp3SjSACIiACIiACIuCHBFi0nfWuKEiffPJJLFiwAMnJyX54JZqyPxOQwPLn1dPcRUAEREAE/J1AwAssfjPAb27j4+NVI8Pf71bNXwREQAQCnAD/U65du7YVJ1e7mAC/kGratCkKFy5sqYMnT570C0SUbEuXLlV6jV+s1r9PUgLr3xl5ekTOnDntta4mAr5OYO/evVizZo2vT1PzE4GAIhDwAiugVksXIwIiIAIiENAE+MFtwoQJth35mTNnAvpaM8vFVa5cGY8++ijmzJmTWS45oK9TAsv55b3mmmuwbtUqbJg1C+fOnnV+QI0gAm4QyB4aisW7d6PXvfe6cbZOEQERcJeABJa75HSeCIiACIjAPwiEh4eDhdzXr18vOm4QoMAaM2YMevXqhUOHDrnRg07xNQL//e9/MWnSJAksX1sYN+cjgeUmuDScRoG1ZPZsvN+1KxJPn07DmTpUBNKPQES+fMjdpQvu79Mn/QbVSCIgAgh4gcUUwhw5cuD06dNKIdQNLwIiIAIOEyhdujS6detmtYrU0k5AAivtzHz9DAksX1+htM1PAittvNw5WgLLHWo6J70JSGClN3GNJwJ/EQh4gcWaGXfccQdGjx6tIu6660VABETAYQLlypWz6KEnnnjC4ZECs3sJrMBbVwmswFpTCSzn11MCy3nGGsFzAhJYnjNUDyLgDoGAF1i5cuWyYq/du3fH4cOH3WGkc0RABERABFJJQAIrlaCucJgElmf8fPFsCSxfXBX35ySB5T671J4pgZVaUjouIwlIYGUkfY2dmQlIYGXm1de1i4AIiICXCUhgeQZUAsszfr54tgSWL66K+3OSwHKfXWrPlMBKLSkdl5EEJLAykr7GzswEJLAy8+rr2kVABETAywQKFiyIJk2aYOzYsV7uOXN0J4EVeOssgeU/a1qxYkXceuutmDlzJhYsWICEhIR/TJ4C6+abb8bDDz+M8uXLo1KlShbpv3HjxgvHlixZ0vqZPXu29ZOa1rBhQ9SoUcP6OnDgQGpOsWO+++47DB8+HDNmzEj1Ob5+YCALrGzZsyMkLAxJCQlI4k6z58+neTmyBQUhJDwcZxMSkOhmH2ke9ConsN5waK5cSD57Fonx8d7s2qf7ksDy6eXR5AKYQKYQWNzRqWfPnjhy5EgAL6UuTQREQAQyngDfyGbNmhXJyckZPxk/nIEElh8u2r9MWQLLf9a0cePGePbZZzFq1Cj8+OOPl62dSoH15JNP4s4770S9evVM2L/xxhtYtGjRhQutXr06XnrpJesntTL/lltuQYcOHfDqq69iy5YtqYYmgZVqVI4eaP/3BQUha7ZsyAKAWupccrJJnZSSqkSNGmjRuzfWT5uGlRMn2vM87vy5c6meX5GKFdH+scfw56xZWDRmDM4mJl72XM6Fsov/H5/jPP5u/PCXNXt2G/s8x3ZDoqUcMDhnTnR79VXs+/NPzPrkk1Rfh78fKIHl7yuo+fsrgYAXWMHBwWjVqpV9M3W5b9L8deE0bxEQAREQgcAjIIEVeGsqgeXemlIIFC1aFJUrVwbfy7GO6YoVK3D27FmLeipWrJh1fPz4caxZswbFixcH656Gh4ebRKcE2rBhgx1TpkwZi5YKCgqy6Ka1a9fizJkzYMozn+NY7GfPnj3gTqo7d+604xgRlTt3butj+/btWL16NVwCq0ePHjh27BgYbcXHOSbnyp2v8+bNa1Fan3/+OcaPH48qVapcNN+VK1fi5MmTdjznTYFA6cXIo1deeUUC65prsGT2bLzftSsST5927wZKx7MoiUrUqoXKbdogOEcOi6yiHNq9ahU2zJx50TXkL1sW1Tp2xK4VK3DswAFU79QJq3//Hfv/vldTM+3oEiVQ+6absHv1amycPRvJSUn/OI33Y43rr0fDO+7A6t9+w7yvv7aIrdCICNS95RZUbd8eC7/9FqsnT0biqVOpGfaKxwSFhKDJ3Xfj8O7dNlZmaRJYmWWldZ2+RiDgBZavAdd8REAEREAEROBKBPxBYPHDvqvxg3dkZCTatm2LEiVKIDExEX/88YcJAn74L1WqFPLkyWNSgVHQs2bNsi+T6tevj/Xr1+PPP/80gVC1alUsXboU2bNnt/PYJ8XB0aNHsX//fpMKISEh2LFjB6ZNm4a4uLiLEHoaQeDkHSmB5R5dpiMPGDDA7gfeA/ny5TMhdPDgQTzyyCN2r+3atQv79u3D77//jueff96E16pVq1C4cGHEx8eD7HkPDRo0yO7F2NhYFCpUCB9//DHWrVtn0VaUYxRWe/fuNXF077334pdffsHcuXPxwAMP4Ny5c2Bq4YkTJyzyql27drbL6u23327yipFTTOGrU6cOWrRoYfd1gQIFULZsWbz++uv49ddf0bt3bxNovIcp3yipKN2GDBli8orXwNcABdozzzwjgeVHAou/D6OLF0fbRx7BiYMHMfOTTxB/9OiFm57RUpEFCyI4LMyioQ5u3Ypc+fIhLjYWxapWRZX27U10bVu2DNsXL0ah8uVR8NprLSLr8I4d2Lp4MfKWKAFKK/YRlD07Dm3fDsqTY/v3m/jKU7QoSterB4okSqot8+fbc3W6dkWD226zMWcNH479GzeiwDXXoN0jjyB3oUJY9P33WDt5MvIUL44ilSrZ/M6cPGnnJyUmgtFiUUWK2LVwvlsWLkRU4cJ2bPbQUCTEx2P70qU4tm8fytSvjzNxcXYteYoVQ8latRAaHm4sNjMd9+RJu7YL48TFYcu8eRYdZo8FByOMv/P5Okxl2q17v1m8d5YElvdYqicRSAsBCay00NKxIiACIiACVyXAN/P84Yc+tbQT8GWBxW/0KZvuuOMObNu2zaJMFi5caB/Iu3XrhokTJ1oUCT+Q8IP7TTfdZB/uJ0+ejN27d1tEyqRJk7Bs2TI8+uij+Oabb6x+T+fOnXHffffZh/mwsDCTChRbrB104403WkQL07A4du3atfHuu+9apAol1um/ozOY7kVR4YstNQKLbPm6ycypt7x+RkjxT0odyqCnnnrKZBMjr1hzilKLApP34BdffIGRI0caM0ZeffLJJxY1RTlEgfTaa69hwoQJdl/cddddeP/997F582a88847JqOY8teyZUtL9WNEFFvNmjVNIFFg/fTTT+DrkdKrWbNmNv7XX39tQvaxxx67SGBNnTrV7nXKKsqsNm3a2NwHDx6M77//3uRbUlKSidwPPvgAS5YssblQkFGGMbqLko1y7emnn5bA8iOBxZpWjKKq1KYN5n/99T/kS8PbbzdJtWftWmxdsABnk5JQv0cPbF+yxNL3qnXujHXTpmHPmjVgX/VuvdUkUFBoKMo2aIDfhwxB7sKF0ahnT+xet86kT8KpU2h8113YumgR/pw5E43vvtuisA5u2WIi6+iePVgwejTKN2uGap06WQTYmsmTsfznn+3fNW+4wVIKN86di7W//w5KtqhixXAuKQkVW7Wy8Q/v2YNKrVph2+LFOHHoEE4fP45969ejSOXKyFeqFE6fOIFKrVvj8M6dlsbYql8/k09Lx41D8969kT0kBPvWrUOpunWxe80ai8wqeM01/xunZUvsXLnSrqHZvfeafFs9aRIObNyIvevX++Kv8n/MSQLLL5ZJkwxAAhJYAbiouiQREAERyCgC/HDHdBlG4ailnYAvCyxGlPDDPYUSo1tOnTqFN998Ey+88IKlQ7F2DyOxevXqha+++sqiYRiVwqiVmJgYe56NUoERKVcSWIyuefHFFy2ShTKCTB5//HGTAJRcrGvJSCymclEC8H6jCPvhhx98UgBdTWBR1jACiLKGEWe8jszaGKHEdWZaHYUSxRGjnHivMd0vIiICmzZtwsCBAy0dj6KTwouCi/KUYpMpg0OHDjWmb7/9tkVrUaazH96jjP6jeKUQozTivcz7lxFelwqsxYsXm6iilA0NDbXoQIpZRlFdKrCWL1+OTp06WS0s3t+MpuK9y9fBb7/9hn79+qFLly42X0aHuQq185opuhj9xTlSqCmFECao/SWFMCg4GPW6d0fhihUx+7PPTCKlbBRYxatXx88vvYTTJ0+iQJkyaNO/v4mo2J070aBnT8wcPhyx27fb3wuVK4cZw4YhS9as6PLii1jz++84eegQqnfubH0w2okRU52ffBI7ly+3f1e/7jpM/+gjHNi0CaXr1kWdbt0wd+RIE00VmjdHzLZtFrk169NP0fz++5EjIsJk2Y4VK7Dyl19MGPM6OGaTe+6xqCuOW++WW7D8l1+wafZsmzslGetdUU4hSxbUvflmi+hi3atGd91lAovCq83DD2PZjz9ix7JlqNWli7GZPGQIju3d+79x7r4bUUWLYsE336B+9+7YuWIFlo0fb1Fd/tIksPxlpTTPQCMQ8AKL32ryGy1+K5eZv9kMtBtX1yMCIuCbBPjBg5tm8EOhWtoJ+LLA4gdwRrIw9YnrzMgq1pf86KOPkD9/fosq4fz5YYgf0KtVq2Y/jDBhrSBGuvDDP6NbUgos9su0LQoHRmDxwz6jUSipeA7FAcVZVFSURa9QYFES9O/f39KymJpIScEP/kzB8rV2JYFFycLUtNatW1tkDnkyoi2zNt4b0dHRdo9QWNWtWxf/93//Z1FP3BWQKYN8nD+8J3jc9ddfb3VOP/vsMxOnjPSjKKXs5P0wZcoUi9JjwfUvv/wS8+bNM7x883vdddeBO//xHuM9fanAohgtUqSISVr+nfc+53I5gcXXAaMQed8zEqxRo0Y2PufFaK977rnHIsb4XvTll1+26EJGGbJPvj4Y0UgpxihDijkVcfcfgUURVOO661ChRQvMGzXKBM6lAospcmOfesoeLlC27GUF1pFdu6y4O6OuWNuKhdlz5s6NDTNmmFiq0q4dxj79NM6cOGHphBRYjJQ6dfw4rmnUCFOGDEHM9u2Wbth+wAAsHjsWuQoUwDUNG5qMqtqhA7YtWmTpeox6KtekiQmsrQsXolzTphYdRXlUuEIFnDp2DD+//LLJtGsaNzbhxQixjXPm4NomTUxIsc4XryUhLg5T338fje680wQWI806PPYYjuzejeMHDpjwYhrh+hkzLGXSNU6hChUsqmveV19ZTa7N8+djzaRJf+2q6CdNAstPFkrTDDgCAS+w+Gaabw74xpjfvqmJgAiIgAg4R4BFkflBkr931dJOwJcFFtOyKJcopfhBnBKB0S59+vSxC2XqE0UVG59jJBVTsi4VWEwHpHxi1AxTwHhcx44dTVKlRmDxPEoMigtG5PCeGzZsmNXX8sV2qcBi1BWjiRo0aGDXTWacP5mq/Y8Ai5sz1ZQyihGdFFFcb6YL1qpVy3gxWovSi6KIkVlMMWQ6KWtT8XGmETLVlHKI0U/z58+3LzM3btxoKX285yhKWTeLdagY7cV+mApISctIKkopyjSOSTnFaCzW5mIaI+u+MTWWcqx58+a49tprL5zLWll878noKoo4ykm+6ebjrNnF1EJGFDKKkNfFe8FVr2vr1q2pvhW0C2GqUTlyIOUSRU7rfv2wf9MmzBs58kIUEWV+w549TRpdSWA1uuMOzP/mG+xdswY1brjBakdNefddxO7YYfO1Av+dOl1WYDHC6dC2bSaA5o8ahd1r16JiixYo16wZZo8YAUoiCrE5n3+O2l27WkTWgc2bsfSHH9DsP/8xgXXq6FGbO8dkPSumAlJ8TX7nHcQfPowz8fGWcsg5UDJRdq349VesnjjRornylS5t0V8ugbVp7lyrscUdFldxl0UWmD9/3sRXpyeewJShQ/83Tv78Nm8JLEduTXUqAgFLIOAFFt/o8M1H9+7dbQcbNREQAREQAecISGB5xtaXBRbFC1NEWYCd/59SNrH4NYtjs5YPG2UMH2OkCmsCsQB3SoFFscWIlr59+6Jx48aWxsXUOUYgPffcc6kSWEzJ4gd+pjByRzp+wGPKmaselmcr4P2zLxVYFCOsp0SxQhnHmmC+Onfv00h9j7zfGEHfpEkTi+xjlB3FEyOaKFGZ/sfHuAMg7yPWuOK/WXydqYLcSIBs2XiP8r5NeQ6lFQUro+AYrU/RxHMqVKhgxeE5PqUVz2GUH/ukWKKoYmosowQpItk3z6PY4uN838m1pWRlZBfTExllxyhF9kHxxv44fr169UyUsfF+PnTokKU38hpT2ySwUkvKueMYhVWxZUtL5eOOfoxk4p+MOmK0EmtMXU5gsQYUa1lF5M2LzfPmWfQWU+5yRkVZMfXkxESsnDDBIq4uF4HFSCpKIsqlEjVrWq0rFmdnxBUlE8+hwJrw3/+aeGrSq5fJLKbrterb1wTW3nXrTDhxzhyTY7OAPHdPLF61qu2mGBYVhcO7dtn1MCUyJGdOq4vFFEBGa1kK4d8RWKwDxmgvRoUxwooCi9Fb3KGw9YMPXjQOr08Cy7n7Uj2LQKASkMAK1JXVdYmACIhABhDghzHWcuGOYGppJ+DLAutKV8OUKtbHomxg44dv1iJiBAw/4DMditEuTI+iFKAE4LHcWZBRMYw6oXhgJAzflLB2Fo+h1El5DuUXBSnrGjFaxl8aBRbTAyk5KO0YecVUR6a38Tq14YHnK+lKL2VaHqMCnYy4Z+017pLJYvC+0CSwfGEVYLvycTdCpv2xsUj6kT17kCVbNoSGhV2ojcWUOu7SR/FDwRNZqJDtSshUQNbBCs+b14q2U6pSJB3asQPc9zU8OhoxW7eaUMqeI4elCvL84wcPWoofo6u4kx+fZ1QW+2O/OSIjrd/QiAirbcU0P4ouzoHpiDyOffE4jsedBBkxxT+5e2LWbNlwLjnZzuNOhJRpFFqMPKOkY1/xR46gw8CBJqlmfvwxQsLCbD68VjaedzwmBnmKFLloHI7HNENGfHEe8bGxfvX7UCmEvvHa0ywyHwEJrMy35rpiERABEXCMgIq4e4bWHwWWZ1cc+GczjY1Cj+ltTG379ttvsXTpUovQYfSYmucEGPXESD9K0NGjR1s0k1NNAsspsv/r15+KuDtPw7dHCA0PN6nV5qGHsGHWLCzKRBtRSGD59r2p2QUugYAXWExLYFg56yi4anME7nLqykRABERABPyZgASWP6/e5efOSJ02bdpY2hgL0PtT9FjgrYbnV8S15Ov0559/9rwzL/TA9F1G+c2ZM8cLvflGFxJYvrEOqZkF63sx7ZFRWwvHjEHMJbswpqYPfz1GAstfV07z9ncCAS+weIHcpYj1MpjCoCYCIiACIiACvkpAAstXV8b9ebGQNwvO8ws1V/0u93vTmRlNgDsXst4Vdx70hXb8+HFLR42JifGF6XhlDhJYXsGYLp0wLZxpkmznk5MzVVSpBFa63GIaRAT+QSDgBZbWXAREQAREQAT8hYAElr+sVOrn+frrr1tRcNYKY4oti3ez0HhsbKwVoVfzLwK+lkLoX/RSN1sKrLUrV/61i11ycupO0lEikI4EuAPk7tWrkbtLF9z/90686Ti8hhKBTE1AAitTL78uXgREQAS8S4DfxrL4rD50uMfVmwKL/8FTmnBNUjZX0XCuExt3RuMxwcHBFw7j+iUmJlpBXT7Hftifq/GcK8kXFlvnD59nH67mepzR0K7dA119sxYU+0x5bMr5uPricSz8zudc18U58lw+x8gY13WxL1edKR6fcv58jsfzeZ7PufF51zW7t3qXP8u1C+H8+fNth7uBAwfa2IMHDwaLjis63Ju0ne9LAst5xhRYS+fMwbCePa1QuJoI+BoBFrZnwX4JLF9bGc0nMxCQwMoMq6xrFAEREIF0IsBC1dz2fuzYsek0YmAN402BVblyZfTs2RPFixdHtWrVcPjwYWzcuBF79+41IdWxY0ccOHAAr776KkqVKoWHH37Y0u0pVyh83nvvPaxYsQJVq1YF6+xwbkxXyp07txUhHzVqlO2md2m7++678fTTT9vzTJ9jQe2wsDA8+OCDuO222/DJJ5/Yc9wprkqVKnj55Zexc+dOPPvss/ZYgQIF7NiaNWva/Ch4ON748eNt7O7du5sIYr+cK+c8YcIE29nwsccesz7i4+Pt35MmTcKsWbPQrl07KydQsWJF2xmR/e3fvx8ff/yxXRMLgHMuL7zwgkVIeVPAugQWaxTxTRejsLgbIV8n27dvt/lt3rzZZNq/terVq1sxeBaFJzO19CcggeU8c6UQOs9YI3hOQCmEnjNUDyLgDoGAF1i8QL7R5Zt2fcvpzi2ic0RABEQg9QTKlSuHXr16mRBQSzsBbwos1+ilS5c2GbVgwQKTVWxlypQBi4svW7bMIoF69OiBLl26mDiivGHa2+7du00AMWKIu7tRRvGxunXr2vrOmzfPNkm5VLzcd999GDRoENatW4cXX3wRS5YsMenywQcfmCSiwBoxYoSdd/vtt+OGG26wqCrOY+bMmWjWrBleeuklO44i1NV//vz5rd9KlSrhkUcesf5drX79+nYOx/rwww9x8OBBqzv10EMP4YcffsBXX31lh3JHQIosirTTp09bFBfnRHkWFRWFiRMn4vPPPzep5a2WUmCl7JNr0L59e/DD+sqVKzF9+nTje7nGqDJeDyVjsWLFbD2/+OKLTFVvxlvr4Wk/ElieEvz38yWw/p2Rjsh4AhJYGb8GmkHmJBDwAotFU9999137Vla7EGbOm1xXLQIikH4EJLA8Y52RAqtr164mhphO99Zbb1mUEus09e3b13byZQFyNv6/ygira6+91o6/VLrwAz7P4bm//vqriRZGHPXr188ivyZPnmwCKzIy0iKe+AUTI8C4Sx8lFD+8UqBRQvFPRikxhbBBgwa22xp3f6OkSpme2Lt3b9xyyy245557bD6MzGIbNmyYpRVSwjEC7VKBxflQCvG+5XmUSpRZ3oxuupLA4vw4Nwo1yilGhH3zzTdXFFiMvqK8o3yj2JPA8uy15u7ZEljukkv9eSaw5szBR927I/H06dSfqCNFIJ0IsGB9WJ48SiFMJ94aRgRSEgh4gZUrVy6MGzfOUg745lVNBERABETAOQISWJ6xzSiBxVRDyiRXYXGm0VG8tG7d2mQUP7QvWrTILo7ShTKKkVIUWNu2bbvoonnsnXfeadFQOXLksC+RKJCYRshIosWLF1uUE9P5nnrqKQwdOtQEFuUTx1q/fj1KlChh5xUuXNj6cYknRn7xcaYTpmwUbJRkjP5LGT1FIcZxOE+mO14qsKKjo02mMfJr9erVJuaGDx+OH3/80WsF1q8msFzXQCnIN2T/FvlFwcZINgksz15nnpwtgeUJvdSdS4G1Yd06xGzdinN/y+jUnamjRCB9CKydPBmrJ0+WwEof3BpFBC4iIIGlG0IEREAERMBrBJiu1q1bN7z55pte6zMzdZRRAosphPxhyh93zGMNKUZE8bHnnnvOBNQvv/xiS0HZ8uSTT5oY6t+//2UjsCjExowZgw4dOmDatGn254wZM6yuFSO7GEXVp08fqwNFccTrZs0upiSOHDnS5BFrYfGD7P3332/zYT8UZ0wJZHphyrIArNF166234t5777V0R1ehekZqcb6MwqacSymweD7nyWtbs2aN1dRirTDWqnrllVfs+r3RUiOwUjuOBFZqSTl3nASWc2xdPfN1v2zePHzVpw+SUlEbzvkZaQQRuJjAmfh4BAUHS2DpxhCBDCAggZUB0DWkCIiACAQqAcoCFg1nFI3kC9n6AAAgAElEQVRa2gmkl8AqW7bshRpYrIWVsgYWU/ZcjWlrQ4YMwfLlyy2tkBKI4ooCizvosW5VXFzcRRfKD/hMc2NxdkolpsgxApqRTqx5RYHFKCxKJUY6saA7608xSor3Dus7sdA8BRKjvViXq06dOiZFGaXFWliMxNq6dauNy3TBpk2b2nhTpkzBp59+auNRRjHCa+rUqSa82FIKLPbNCC2ez8grCqybbrrJpBav+Y8//kj7Al7mDAksr2D0mU4ksJxfCtXAcp6xRvCcgGpgec5QPYiAOwQCXmDxwwDf6LL4LHcmUhMBERABERABXyWQHgKLaXOMVGIEFNPqWPOJQstVxD2lwKLkYWoei6Ez/Y9SiQKJKYaUQimPdTF1CSzWpWrYsKFJJEZWsYg8o50osFhni8Xgn3nmGdtRj0XcGZ3FIvPsm2NQLDEFkXNgEXZGYPGDLaO+WB6Ac2HBeUZM8Tme//jjj+PQoUM4ceKEpSWy3hbP3bdv3z8ElqsYPaO0KLkYkZU3b15L0Vu7dq0JMW80CSxvUPSdPiSwnF8LCSznGWsEzwlIYHnOUD2IgDsEAl5g8Q030xBiYmK8ui22O7B1jgiIgAiIgAhcjYATAosSiAXXWV+J6XUUQhRWlEQUQJs2bbLd+PLly2d/5+58KRvlEs/nToI8jul9PO7AgQPInTu31bbi42x8joXR8+TJYxFafK5kyZImuhISEqy2FeUSj+E82A8fZ+NjTCNkcXYWeOe/2bgBCyP6OC++aWGUFvvh35kqyOLnrMPFa2HEGM/lfNgv58BoLFdRd143GVNQUeRxRz9GcnFOrmNYKJ3XweLy3mjeFFi8boo17pb4/fffaxdCbyxQGvuQwEojMDcOTy+Bxd8TQaGhyB4SgoT4eATnyIEs2bLh9PHjOH/unBszT/sp2UNDERIWhjNxcTj79+/CtPYSxN+n4eF2DVdLucyWPTvqdOuG5MRELBk3Lq3DZMjxTNOr1rGjjb126lS7Rm+0bEFBCM2Vy3glnT590e9SrgnvhTMnTyL57NkrDieB5Y2VUB8ikHYCAS+w0o5EZ4iACIiACIhAxhBwQmA5dSUUW6xPxWLuwcHBNgylFlMNLy3s7tQc/KFfbwosMme6JdMdWRdMLf0JSGA5zzy9BBZFRdlGjVCucWMsGjMGFVu1Qq78+THp7bdNXnjSKIvYV2hExIVu4mJjcTI29qJur2nUCA1uuw3zRo3CbtYDjIxE/NGjaar9VapWLTS66y4s/fFH/Dlr1mWnnSVrVpSoXh31b7sNayZNwoZZs2x+2XPkwImDB5Fw6hTzscHjchcqZPWdThw6hIRLUsQ9YXLpuVmzZQMl0OkTJ5DI8S/TKBnLNWuGmtdfjz8++wz7NmzwirjPW6IEWj34IDbPm4e1U6ZcGJ/Xf23jxqjavr2NF3PJJiUppyiB5c27QX2JQOoJSGClnpWOFAEREAER+BcCFBmMymHUq1raCfiTwEr71WXOM7wpsDInQd+6agks59cj3QRWjhyo2LIlKrVujT9GjEChcuWQM3duLPz22ysKldRcPSOiytSrh5o33mjRXYlnzuD82bNYN2MG1v7++0VdFKtaFZXbtLEd7c4lJ6PRHXdg3siR2J+GCNBC5cubcPnzjz+wc8WKy06RsqhF794Ii47G74MHm6Bq278/ilaujBmffIINM2fi3NmzyFWgAG587jmERUVh+kcfYdPcuam55LQfkyULoooUQZO77sKqiROxc+XKK/aRv2xZtOzdG9uXLMHS8eORnJSU9vEuOSOyYEHU6drVpOG2xYuR9Hf0GwUW74faN92E34cMueo6SGB5vAzqQATcIiCB5RY2nSQCIiACInA5Akzv6ty5Mz766CMBcoOABJYb0Hz8FAksH1+gNE5PAiuNwNw4/GoCK7p4cRSrUgWb5s/HqaNHL+qdUoZRVIUrVrQ04hMxMVgzebJFGZWuW9fS7MLz5DGhRGly/ODB/wmszz5DeN68yJUvH1ZOnAiOQ5ERkjOnRQitnzEDuQsWRImaNU3+nDx0COumT8fxAwdQqU0bhObMaXKIkVvH9u9Hve7dTSYtHjMGp/+O5qLMYrRUSEQEGAHEfmO3b0f+MmVwePdumyMjsvasXYsNM2Zg4x9/oGLr1nY9OHcO25cuxdZFixBdogSKVqpkKXC8ptgdO5AzKgq7Vq7EgY0bUbZhQ5SqXduiqTjP1ZMmWbp1h4EDEbNlC+Z//bWlyLV+6CEU5iYbO3di0jvvIO7IEbvmZv/5j6Xqzf78cxzcsgVV2rY1LhRs25YuxY6lS4EsWVC/e3eER0f/lcr9559YP306KJu4BqxzyP7WTZsGyrPyLVogIjoaiadPW5QYmTS+804Ur14dBzZtsutldFrZ+vUREh5ukurP2bOxc/lyG6PZffeZBJz12We4pmFDBDMVfOpUS/fk+papWxcUh1sXLkRifDzKNGxoEWab5swxmVigbFlLDz24ebONlTUoCBVatDDulIXkyeN4jJWfKVsWkwcPlsBy4/WrU0TAaQIBL7AYDdCqVSvbvttVZ8NpqOpfBERABDIrgXLlyqFXr162eYZa2glQYI0dO9b4sUi5mv8SYE2to0eP4rnnnsOkSZOs2Lya/xOQwHJ+DS8nsIKyZzfxU7JWLVRp1w7zR41C7M6dVjuKkUNs2YKDUb5pU+TIlctkBo9jWh0lU/sBA7B3/XrsXrXKRBFrH80fPRqFK1QwaUNZw9Sxgtdea6ljNa6/3vrctWqVSRJKliIVK5pc4WubUofROyt++QXtBgwwwbNx9mwbo0SNGjbG1Pfew5516yw1j43RXU179UJRCri5c7F37Vqba4OePbHy11+Ru0gRE1irJkywcTlW3Ztvxp41a0xUMdKK8+Q5jKbiMVsWLABTIWvddJPNhUKs8d13m6gin+qdO2PjnDkmv9o/8oiJuBW//mr9UWAx0oopg4zK2rV6tfWbp1gxq8u14JtvcHjXLpSsWdM4M0KNgmrel1/an5wrryP+yBGThawbRnFHschUv1PHjiHu8GGbG8fjPErWqGF9L/vpJ5Rt0ABl6te36K8t8+ebVCtwzTUmvio0b25RURNff91kGdMsuTaUStU7dUKOyEiLVDt1/DiYrlm1QwdbE0aNHdqxAx0ee8yi6JgCWK1TJ5vnuaQkXNO4MVb99puxb9mnzwXp1/Q//zGRx3nzPqD8+vW//5XAcv7lrhFEIM0EAl5gcaciFjrlttgs5KomAiIgAiLgHAEJLM/YUmD9/vvvIEd+q63mvwRYNH/AgAFo1KiRBJb/LuM/Zi6B5fxiXiqwGBFTrFo1tH3kEYtcorBhbSbKIaZ5MQLJ1RjllCUoyGQII474HKN4WvfrhzlffmkShVE+je+6CzOHDzdRkVJgUdKs+f13Ez/TPvgA+/7884KAYuQVi39TlFESMaKIqYeMWGLU1cxhw+z3drN770WhChUw+Z137HFXcwksCpzJQ4bYNZSuUwet+vUzWUTpxoLlU4YOteiw5vfdZ7KH0oqRYx3+7/9sbkf37EHDO+4wwcKIIqYhUkaxllPOXLlMLlHksLYVhRKvafP8+ZYyt2z8eEtXdAksFnRnKhwF14HNm23ujGKiKFz8/fcmyHjdjGgrUrkyWtx/P1ZNmmTjUAZR9jHS7HxyMmrccAPKNWmC34cOxaHt2+2yKevaPPigCStGgrEPXhejoCiomD5JGckUQmPL9Tt3DpXatkX5Zs0wjUJq2zaTVpRdE157zSLouG1IygLrFF/tHn3U0igZCXbj88+bFGSEV2hYGCYNHmxCi8fwepaMHYum995rAotCksXtx7/4IvatW2d/r9K+vcmzq6VyKoXQ+d8FGkEELkcgUwiscePGoXv37hJYeg2IgAiIgMMEJLA8A+yKwHr00UcVgeUZygw/mx9k4+Li8MILL0hgZfhqeG8CEljeY3mlni4XgcWUL6bzUaww2mbul19adBBT0pjaxjQ1RhLVvfVWk1KMsGKqIetObV+8GK369sWcL76wSBxKjZYPPGCChjIqpcBiRNaWhQtNcpmI+buINwUSC6BHFytmY1KYHNm1CzM/+QSM3jmyd68JLDZGVFG+XCkCiwKO4o39XElgMfWv4+OPm4w68OefJmsYacQIKkZ0Nbj9dvzyyis2P5fAWj9tGljbiemEMz76yIrBV+3YEdc2amRpe/w7xVHKCKzTx45ZmiEFIaOoGN3FSLLq112HlRMmWCof62tRNlHA5S1ZErM+/fSv9MZWrf4SROHh1ieZsKYWo7mO7NljLErVqWPCavaIEZb+yGPInsKM0VOVWrWylEamIDIVkxF0fDxP0aKW5jfh9dcRs3Ur6tx8s6Vf/vzSSxYNdmljsfxWffogOCwMe1avRul69UxS8ToYCUZZyXuCEWZktGD0aIuGo8ByReuNe/ZZG4sSkRF4FJASWM6/3jWCCKSVQMALrIiICHz55ZdYtWoVzpw5c4EPQ/kXLlx4YScLfmhozF0nqla13Gc27vAzbdq0i7bSZnHi9u3b2zberrZ3715Mnz7ddl9ytVKlSqFDhw4IDw+/8Ni6deswe/ZsnPw7F57wa9SogSZNmliuuKv5yty4HXnTpk3/MbdFixZdiAxwghv5ct1c7XLcUjs3fvNdrVq1C2vKnZumTp36jzVt166dbcvuavv27bO1v3RN3Z3b3Llz7X5zRVSQG+fG+433ARvnxjG57bur8X673Nx4v3HreFfjNvW831Jy47bzf/zxx0X32+W4XTq3HDlyXHgtpOfcuE7czSzla8GTubVt2xbkknJNU8uNr9MTJ07YqWSQ2rm57rd/45baufF+YxSpq3FNUzs3vk6Tk5PtVK7p5eZGHhs2bLjofrt0brzPeF+mvN/4WuH9lnJu7If3G+/Zjh074uOPP07r/0c6nikmOXNizJgxloZ56NAhMQkAAqqBFQCLmOISJLCcX8+r1cCiEKl5ww2Y+fHHFyQJZ0QpRKHCdLFZw4ebvLl+0CDsXLXKajYxpWzJuHEWBUQBxkghSg1XrauUKYTLf/rJonAYNUThxSgl1pWiiKG8Yepep8cft4ghjnWpwCperZpFVfG4haNHm5Cx/4sjI02aXFFgBQej1o03Ysq771oaXN1u3SySi9fqimhitBALz19OYPHaWCeqQqtWJowYndXm4YetFhajkZrff7/V12LqnasGFqO0WKeKBd0j8ua16CymH1IYsX4U0/xYm4qijnWmuNshi9xT/DC1ktFQjP7KV6qUSTLOjf0z6o3SjfW9GPVEeUVpxB0FGQnGXR85B64Xo8+O7duHdo88gr3r1tm/KQsprBipxogzSkHW/pr01lsmt4JCQ+1auDauxrFrd+1qjzE6j2PU79HDBB9rfCWdOoX2jz1mY7HOGdfTdR1cl2kffmjyrsk991h0GaO9KNau1BSB5fzvAo0gApcjEPACi1tO80M7hRPDX12NUmTjxo0XBFZISAgqVapkH3hdx7Fm1sqVK7Hn728ReC6FVM2aNZEvX74LfbFOCY9jrQtXK1iwIGrVqoXQ0NALj+3atQtr167F6dOn7TGKsjJlyti4rg+8fPxyc6tYsSIoxdJzbqVLl0blypUvmhs/QFOw8D9QNnJzem67d+/GmjVrLuKWEXMrUKAAateufdGaZtTcKGRT1sfh3Hi/UVS4GufG+41izHW/pQc3b8+Nr1OX+LvS/cYxeb2uxtcp5XD+/Pkvep16c24UNnwtpJxbhQoVQMau12liYqL9bvi3ufF3B4/z1ppmxNz4e5KvU0ozSqyDBw/qf103CEhguQHNx0+RwPLxBUrj9CSw0gjMjcOvJrCsZlPhwiZ0mBLmaozAYnQQa10xIouRQ4ysYZ0qSoo2Dz2EswkJJrZYrJ1CZ8OsWVa4m+JjzldfWXFwRggxha988+YmuRi9wzTAfevXo1rnzhb9xALnlBdHdu/GvFGj0OTuu3F0716TW2xMY2R9qFpdupjEYVHxpMREEzysj8Xnp77/vkVgsdg6o4IYhcTaT4wiYi0pSqXty5ahYc+eFlnG4vBn4uNt3pw/xQxT3MiBUU8t+/a1Glg7li1Dgx49TBwlnDpl82S0Gh9v8cADFi3F6C9GNzEqjTJn4XffWYola2xxXkyxq3vLLZauyIgzXgu5UdiF5clj41DGsbg8ZVHOyEgrqE5JxdRLRsmxDhZrcLEPSjhGWp1NTLRUSEZfMfqNfXG9uHaUZZwzRRiFmaUtZs1qaZw8j0XcWaNqyQ8/mATMkTs3pr33nh3raozCYn/kMfGNN+yaeU80uvNOq/XF/lgvbe5XX9n1MBKMkpHzqXfrrchXurSlXbKf4NBQ/Pb221b77EpNAsuNF7dOEQEvEAh4geUFRupCBERABERABNKFgARWumBO10EksNIVt+ODSWA5jhhXE1hXG52CgjvWUX5QAlFYnU1KskLtFEOs/8R6TXyMAoPyhTvYMRKIgoiRUZQ08ceOmWSipKFcoQxj2hqP4+P8CpeP8Yd1rCg8+OXNmb8jtzlHCiKKHfbJxvlw10E+zi+5+Hc+RsnGtD2OT7nCMa3GV3y8RTixbxZz5zkUc65oLtZ14jx5Dq+XOxJSlDEiis/xPJ7DOdpxycmW1sjoNUZCUY5xXD7uugamKLJ/XjNFF+dApjzOxYFzpngjJ9bnYoF1zoE8yZWMeN08j+KJApCNj/FaeT7HoHzkMRRLZErZxsbdBTlvrh2/LCcnFpFvePvtVguMRfjJiOeyb84/ZWOaI8ehQOP47CslQ86dXDlv1vHiMXyM46ZkxrHZP/lJYDn/mtcIIpAWAhJYaaGlY0VABERABETAQQLuCiz+Z876Y4w2dqXBMyqOEb2RkZGoUqUKwvhhA8DZs2exndELiYm49tprL6Ttsl7TsmXLbMdeRvwympD98o08I+oY2ccIYqb5cqxixYrZhwP2s3nzZuzcudNBMv7btQSW/67d5WYugeX8erorsK40M+4ImLIG1qXSw/kr8o0RKMYYWUWBtOLnn31jUv8yC0o11qSimGTkV8qIq4y+AEVgZfQKaPzMSkACK7OuvK5bBERABETA5wj8m8CinKJQcqVxuy6A6cOvvvoqWrVqBaZ6sx+KqFdeecVSOt9//33ExsaauGI9SNY1Yyr8U089ZZKL8orC6s0338SMGTPQv39/3HzzzZaGnJSUZPX12Me8efPQoEED9OnTx1KWWSeQqbqUV3x+01XSLXwOdjpNSAIrnUCn0zASWM6D9rbAYlpahRYtsGnePKsLxSggNRHwlIAElqcEdb4IuEdAAss9bjpLBERABERABLxO4GoCi7UVWTyfhfy3bt160diUSS+99JLVaaS0YlTUhx9+iOXLl2P+/Pkmt95991388MMPdh7rQ/bo0cNE1P9xa/Y1a/Daa69Zjb9BgwbZ42XLlsVzzz2H48eP44MPPsCOHTvsfD5GscX+ueEFN6N44oknrF4kZQ2PV/sfAQmswLobJLCcX09vCyznZ6wRMiMBCazMuOq6Zl8gIIHlC6ugOYiACIiACIjAFXYhZMpenjx5UL58efTu3Rvfffcdli5dakX/XbvrUmC9/PLL4IYOlE1FixYFP2iPGzfOoqJef/11jBo1ChMnTrQUQu6Ge+ONN+Lhhx82cUU5NXDgQHBX3bfeegt9+/Y1MTV48GCLznr66aexePFixMTEWHQWxxo/frytGVMUOa+WLVvac9x4QU0CK1DvAQks51dWAst5xhrBcwISWJ4zVA8i4A4BCSx3qOkcERABERABEXCAwKURWKwxVahQITz44IO2Cyo/2Ll2tB02bJilC3InTFcKYadOnbBt2zarTcU0wREjRlj9K0ot1q9ixBTrWX355ZdW/4oiitKK53NXTUZx8d8DBgxAz5497e9MEfz+++/x3nvvoXPnzjaXJ5980lIN2Vhb67bbbsMtt9xi5zGaS00CK1DvAQks51dWAst5xhrBcwISWJ4zVA8i4A4BCSx3qOkcERABERABEXCAwNVSCCmcGCVFKbVo0aKLRk+ZQkgpRVHlak2bNr1qCiGjs2rUqGGC7Nlnn7U6WY8++qilEFKSMaqK6YFvvPGG1b964YUXrFbWN998Y0MwAqtfv35o0qSJHas6WBffGEohdOCFkoFdSmA5D18Cy3nGGsFzAhJYnjNUDyLgDgEJLHeo6RwREAEREAERcIBARggs1sA6deqU1ciaOnWqSStGWVFgUYZFR0fjxRdfxOjRozFnzhyrc8XC7nyO6YKNGze2iKyFCxdiyJAhiI+Pd4CM/3YpgeW/a3e5mUtgOb+eEljOM9YInhOQwPKMYUhIiJVHiIqKss1m+GVYrly5rJZneM6cyJEzp9XlDA4Ott2PswUFIVvWrECWLH8NfP68RaAnJyfbe5KkxEScSUjA6VOnEMefuDgrl8C6nMeOHcPRo0et9ALf76j5NwEJLP9eP81eBERABEQggAhcTWDxTR0/2LFeFd+IpWx8k8foLKbzDR061NIEXa1evXpW2P3EiRMWmcW6WTNnzrQ3jLfeequJqA0bNuCuu+5CnTp1MHLkSNSsWRMlS5a0elh8w0fJRZHFyCumNN5zzz32RvPw4cPWD6O2GBnG3QjVLiYggRVYd4QElvPrKYHlPGON4DkBCazLM+RuyZRTFE/8YYR4/nz5UKhgQRTKn99++H4iLGdOnD97FueTkpAtORnB3B307FlkSU5GlnPn7AfJySaqcO6c7b6chX9P0c5nyQLTWdmy/SW2uFOz64ePBQUhKWtWnM2WDVmyZ7cfSi6+dzlw6BAOxMRg/4ED9ie/fOMGOPzhLs4UY2q+SUACyzfXRbMSAREQARHIhAQuJ7D4BpBvBlnX6kqNz3FnQf7JbyL5Rs/V+B89v73km0o2PsdC7vyT5/DNGr/F5HH8N9+0sR/+pDyO57v6Zn881tUfH+ex/KEgY39qfxGQwAqsO0ECy/n1lMBynrFG8JyABNb/GLreP2QPCkL+AgVQq2ZN1KlVC7Vr1EDp0qURf/gwYnfswPGdO3Fk924c3bMHcYcP41yK9yv2vuXv9y4X/f2vNxpXXzCXyOJRrr/zPVOKv/M9TdagIOSIjERU0aLIU6wYIosXR3SpUogqVAh79u3DshUrsHTZMixeutRqgPL9Ed/X8H1RyvdVnt896sETAhJYntDTuSIgAiIgAiLgRQKXCixKI9ad6tKli4XX+3pbsmSJ7XzIbzfVJLAC8R6QwHJ+VSWwnGesETwnkJkFFmVQ3rx5UaRIERQrWhTFixRBqcKFUapgQeQKDcXxAwdw6sABxMXEIO7QISSePo3zycn25daFPzPoiy77gi5bNmRlVFbWrPZnUHAwwqKjEVGgAHIWLIjchQvjzLlz2HHwILbt24dde/di9549JrUY4a7oLM9fP570IIHlCT2dKwIiIAIiIAJeJHC1FEIvDqOu0pGAIrDSEXY6DCWB5TxkCSznGWsEzwlkNoHFL9RYMqBSpUqoUrkyShQqhKKRkYgOCcHpw4ctsurY7t04GQCCh5IrPDoaUcWLI3exYshVoACOnT2LPSdOYHdMDNatW4c1a9ciNjZW0Vmev5TS3IMEVpqR6QQREAEREAERcIaABJYzXDOyVwmsjKTv/bElsLzP9NIeJbCcZ6wRPCeQGQQWpRVLBpQvVw5tWrdGrWrVkOX4cWQ7cgTH9+1D3MGDOBkbi8QAL4weFBJiQis8f37kLlIEWaKjkSVvXqzbtAlTpk/HihUrLN1QkVmev65S04MEVmoo6RgREAEREAERSAcCEljpADmdh5DASmfgDg8ngeUwYMA2q1gyezbe79rVUo/URMAXCQSywGKNS74faVC/Pm7t1g2lCxXCoZUrsW/FCqtnRWGVfPasLy6L43NiymFwjhwIjYxEoSpVULBOHRxJSMB3P/yA2XPm2CY7rAuq5hwBCSzn2KpnERABERABEUgTAQmsNOHyi4MlsPximVI9SQmsVKNy+0AJLLfR6cR0JBCIAoubxpQoUQL16tRBo+rVkT8kBMc2bcLR7dtx+vhxJJ05g/MZVLsqHZc2dUNlyYLsISEICQ9HVMmSiK5QAcezZMGi9euxYOFCbNm6FacCPDItdaC8f5QElveZqkcREAEREAERcIuAJwKLNRsKFy6M+vXrI1euXDY+d89Zvny51WtgCw8PR/PmzbFhwwZs374dpUqVQt26dW2ba57PXXYYAr9jxw6wIHvJkiXteddz27Ztw8KFCy1UXi11BCSwUsfJX46SwHJ+pSSwnGesETwnEEgCi6mC3CimZYsWaNO4MYqHheHAsmXYtXIlkhVNlKqbhe+TClWogFKNG2N/UhL+WL4cU6dOxYEDB5RamCqCqT9IAiv1rHSkCIiACIiACDhKwF2BxTefLKzav39/hIaG4o8//rDdfgoWLGjCafr06QgLC8ONN96Ixx9/HD///DOGDh1qBVlr1aqFqlWr4rbbbsOUKVOwYMECUFSxn969e1soPN+EFSpUCI0aNbJzR40ahdNK7UnVvSCBlSpMfnOQBJbzSyWB5TxjjeA5gUASWE2aNEHv//wH2WNjcWzNGhzYuBFnz5zxHFIm7IE7HOYvWxZ5q1TBuSJF8O24cfj999/1xZ8X7wUJLC/CVFciIAIiIAIi4AmBqwmsokWL4tZbb8Vvv/1mEVQpGyOuXn31VURFRWHw4MFYtWqVRVMx4ooRVfHx8ZYW8Nprr9ljx48ft7+vX7/eumnYsCGGDBmC9957D2PGjDGx9corr4BijH/u2bMHERERuO+++9ChQwc88cQTWLp0qSeXmmnOlcAKrKWWwHJ+PSWwnGesETwn4O8CyxV11blDB7SpVw8h+/dj+9KlVuNKzXMCIRERKF69OoKvuQZz163D2PHjL+xa6HnvmbsHCazMvf66ehEQAREQAR8icDmBxUgophfeQb8AAB69SURBVPpVqFABd9xxh0VALVu2DDt37sTJkyctva9y5coYNmwYfvjhB7z//vvIkycPihQpYgLq0KFD2Lt3L2644QYTT59++ilq166NuXPnmqxihNWlAovRXJRZ/NaQAoaNbxiYfvjWW2/h7bffxjfffOND5Hx3KhJYvrs27sxMAssdamk7RwIrbbx0dMYQ8GeBxfcGfI9w1223oU6JEtgxYwaO7tyZaQuzO3UHseB7eL58KN2qFfaeP4+PRozAli1brLyDmvsEJLDcZ6czRUAEREAERMCrBC4VWFZToVAh9O3b11L9ypUrZ7WrWNPqk08+uRCJVb16dXzwwQcYMWIEvvzyS7Rq1Qp33nmniSpKKEqnhx9+GM2aNbPUwTZt2oC7DPXr188k2KUCiymFPG7s2LEmxNj4hrdevXr2+IcffoiRI0d69doDtTMJrMBaWQks59dTAst5xhrBcwL+LLAY0d2vd280KlECC0ePxsmYGM+BqIcrEsiRKxeq33AD9gYHY+iwYRfqkgqZewQksNzjprNEQAREQAREwOsELheBRYlFeUR5NWDAAHz++edYvHixpQYyTZDP85vU4cOHY82aNRYxRSnFgu7PP/+87YLD2lZ9+vTB5s2bsWnTJju+cePGePnllzF79mzUqVPnohTC4sWLWwQWvyl85JFH7DopvK6//no89dRT1i9TGdX+nYAE1r8z8qcjJLCcXy0JLOcZawTPCfirwOJ7hicHDECTUqWw9uefEXf4sL2XUHOWQI6ICFS97jr8eeYMnnzxRUVheYBbAssDeDpVBERABERABLxJ4Go1sEqXLo0HHngA3377LVasWHHRsCEhIeAH686dO2P06NGYNWsW8ufPb8Lr2LFjVneBQmvQoEE4fPgwoqOjLQ3wyJEjJrGYnpiyBhbfHLC/Tp06WZoh+2MkGIu6cwfCF198Efv27fPmpQdsXxJYgbW0EljOr6cElvOMNYLnBPxRYPGLKNaxvKNVK+yZPh1H9+zxHMTVesiSBdlDQhAaEWFftrElnz2L08ePIyg4GFmyZkXiqVNpEmjsLyg0FGdOnsT5c+ecnb+Xew+LikKpdu0wddMmfD16NM6oUL5bhCWw3MKmk0RABERABETA+wQuJ7CCg4NtR0D+h803n6ydwB0GL208t1evXrYTIXcc5JtFRmlxB0LWxGKkFVMJ2bJnz24yqlu3brYrIY+laGFa4o8//mhjcCz299xzz1kEGMf86aef8Mwzz5j44i6EquPw7/eABNa/M/KnIySwnF8tCSznGWsEzwn4o8DiF1tffP45Dv76K3YsXeq4AAoKCUHFVq3Q8oEHkD00FOeSkxG7fTsmvPEGStaogfC8eTF/1CgkJSSkakEovCq0aGE/v731lokwf2sFrrkG7V9+GW07dLAdn9XSTkACK+3MdIYIiIAIiIAIOELgUoFFcdSgQQN06dIFkZGRVx2TEoqRWDly5LjwTSdPYMQU+2GxdkonV6MUoxxjiiEbx05ISLCflMek7I/P8fhdu3ZZZNbGjRsd4RBInUpgBdJqwiIT+Vp85513AuvCfOhqJLB8aDE0lSsS8EeB1apFC/Tr2hVbf/0VJ9Kh7lWuAgXQ6cknsX/9eiweO/aCMMtbogQa3H67vTdZPXkyYnfsMMGVLXt2hIaHW1rj8YMHUbh8eXuckVYx27ZZ9FaD225D8WrVsOCbb7B33TqcOnYMhcqXt/OSzpzBvg0bEH/0KLIFBaFYtWrIGRmJRH7hlpho/TLyiz8Ht2wxoca5ZM+RAzFbt1o0mNPN6mF164Yxixfjq1GjnB4uIPuXwArIZdVFiYAIiIAI+COBq6UQ+uP1aM6wyLZJkyZhzpw5whEABCSwnF9ECSznGWsEzwn4o8D6zz33oG2RIvhz+nSTPU63iLx50X7AABNIMz/+GCdjYy1tsFyzZmjaq5cJpC3z5+PI7t2o1KYNQnLmNAG1e80aHNu3D9U7d7bj85YqhcM7d2Lz3Lmoe8stiC5RAmunTsWOZcsQXbw4rm3cGEf37kVUkSLYvnixSbEiFSuizs032+PBYWEmw5aNH2+XXLpuXUx6+22bV4vevY3FvJEj00XqUdIVrlgRJ669FgMHDXJ6CQKyfwmsgFxWXZQIiIAIiIA/EpDA8sdVu/qcJbACa00lsJxfTwks5xlrBM8J+KPA6v/QQ6ibLRs2zp6dprpT7tKirClRo4ZJJ/59/4YNmPPFF8iZOzea3X+/1bGi2IouVgwt+/ZFzJYtmD96tEVVBefIgZDwcJxPTkaZ+vVRrXNnzB4xAqVq1ULRKlUw7tlnLQWx48CB2LZkCZb//DMqNG+OKu3bY+5XX6HuzTdj/8aNNh5lVsf/+z8s/O47S2Fs9eCDWPjttzi2fz9a9+uHJWPHYuPcuTh39qy7l5r687JkQWSBAoi8/nrc16dP6s/TkRcISGDpZhABERABERABHyEggeUjC+HFaUhgeRGmD3QlgeX8IkhgOc9YI3hOwB8F1oN9+qBheDg2zpxp0U/p0bJkywbuwMdIqYa3325F3eeOHImqHTteJLCa3Xcfti5ciNWTJllNrCKVKqH5f/6DXAULIjg0FAnx8ZgydCiKV69+QWDlL10a1z3zDIJDQnD65ElLDWRUFWVW7a5dsWD0aKz45RdLI+z66qtYN3UqtixYgHYDBiAuNhYnDh5EqTp18PvQoTiUTvWoGFHGCLLszZqhb//+6bEEATeGBFbALakuSAREQAREwF8JSGD568pded4SWIG1phJYzq+nBJbzjDWC5wT8UWB169IF3evVw6ZJk3D6xAnPIfxLD8E5cyJrtmwmqvhng549Ub1TJ0z78EOUb97cak5N++ADi8BKKbByREaiVd++VrNqw4wZVsuKx/8xfDiK16hhUV3jX3jBdjdkZNWeNWtMVLHOFetkUZKx9tbetWstGit/mTLo/NRTFmm1csIEVG7bFtWvu86kGI9h1FdyUpLjPDgA621d26wZlick4M3Bg9NlzEAbRAIr0FZU1yMCIiACIuC3BDwRWCziXoKFURs0sILs58+fx9GjR7FgwQLExMSgWbNmKF26tLFhMffFixfbDjgs5F61alV7jseyQDvPrVevnj03f/58VKlSBdWqVbOdCdm4C+GSJUsQERGBokWLYtmyZTZW8eLFUbduXeTKlcuO27dvH+bNm4cT6fBG2VcXXQLLV1fGvXlJYLnHLS1nSWClhZaOzSgC/iiwKlWqhNcGDcLOn36youU4f95RfIUrVECp2rUtOoqNOw+eOn4cy376CVU7dLDUvrVTpthj/Pe2RYssAoupg83uvRcUYAc3b7aaUeQ965NPkKdYMUtJ5Hk7ly9H0apVUbRSJWxftswEFqOqWKC9TL16qNS2LXatWIHwPHlwbZMmJrOW//QTIgsWRPvHHkN4dDRmfPyx1c3i+570aBy7Sf/+eOK//8Ws2bPTY8iAG0MCK+CWVBckAiIgAiLgrwTcFVj8z7x+/fp44IEHcOzYMSxatMjejPHvmzZtQtu2bXHddddh5syZJpUomfLmzYu3334bu3fvxoABA3D//ffjvffew2uvvWY7Eb755pvInTs3HnroITz66KPo1KkTxo0bh9jYWOt31apV9li7du3wwgsv2DnPPfecSa5ffvkF0dHRaNy4MVavXm3jpNwB0V/Xx515S2C5Q813z5HAcn5tJLCcZ6wRPCfgjwKLuwo/9eSTKJc1K/6cOBFnU+w67DmRf/YQFh2NopUrIzQszJ5k1Nfu1atNaEUVLmy7B/LLNxZxZ6F1pvWx6DqyZLHdARk5xZ0KeTznemj7duunWNWqFtFFCcfdCotVqYKwPHmsL+6uyELwlFmsl8XHc0ZFoWr79lg6bpzJM7YOAwciLCoKE19//YJgc4LBpX1e06oVslSpgof697f3UmppJyCBlXZmOkMEREAEREAEHCFwNYFVrFgx3Hrrrfjtt9+wfv36i8aPjIzEG2+8gfDwcLz66qvYsGHDhecptvjY+PHj8cUXX+DUqVMWKUVRtWfPHnz88cfo1auXCTBKrw8++AATJkyw51MKrBo1auCJJ57Ajh07rG+KKn6Yp8CioGLkF4XVO++8YzvuhYaG4sYbb7Rj2Nfs2bORlE4h+o4sjpudSmC5Cc5HT5PAcn5hJLCcZ6wRPCfgjwKLgqdQoUJ4YeBA5Ni9G1vnzUu31DnPiae+B9aZ4o6GjOSiAGP0Va0uXfDHZ59h+9KlVkerxnXXYeOcORaRlR6Nwo3jhlStihfee88i4M+dO5ceQwfcGBJYAbekuiAREAEREAF/JXA5gUURVKpUKVSsWBF33HEHfv75Z0vZo0g6efKkfeNYuXJlDBs2DD/88INFUSWnKM7avXt3PPzww/azdOlSQxMSEmLRUkwTZPRUmzZtEBYWhjx58pgEe/bZZ3HvvfdeJLBatGhhYzCCi98a8s/bb7/dBNann36KHj162OOUVXyOjWmHgwcPxrRp0/Duu++aPMtsTQIrsFZcAsv59ZTAcp6xRvCcgD8KLNdVt2jWDI/dfz+OLFpk6XNOR2J5TjttPWQPDcW1jRujQsuWVtg9KHt2SzHcMHOmFW0v37SppRYu/eknnD5+PG2du3E0d2BktFnZTp3w6bhxGDN2bLqlLLoxXZ8/RQLL55dIExQBERABEcgsBC4VWK5vS5kaWKtWLZQvXx7bt2/H2rVrTRq5Iq2qV69ukVOff/45Pvvss4tw9ezZ0yKsHnnkEaxZs8aeY20rpg22b9/eBBblFKXW3LlzLQ1x4cKFKFy4sEVZuVII77nnHmzZssWk2YoVK/DNN99cSCEcMWKECSxKtaHczefQIRunXLlyGDJkiPXHyKz4+PjMspQXrlMCK7CWXALL+fWUwHKesUbwnIA/Cyy+B2jZogUevuceHF60CDsWL7aC6mreJ0B5VbRaNRRr3hwjJ07Ez7/8gri4OO8PlIl6lMDKRIutSxUBERABEfBtApeLwKLEYgg8ZRClEyUVC7Azyoopf3y+SJEiGD58uAkqCpPjKb5R7NixI1566SW88sor+OnvUHnKqrfeegv58+e347t27WoCixFWTCW87777rBA8UxX79etnNbBq1qyJQYMGmaTiuJwTo7QYgUV5dv3111tBd6YZUnSxNWrUyNIXR44cacLrzJkzvr0ADsxOAssBqBnYpQSW8/AlsJxnrBE8J+DPAotXz//zq1apgju6dUMhADtmzcLJmBhFBnl+a/zVQ5YsVmOrZJMmiIuMxJgJEzBvwYJMGYnuLaSufiSwvE1U/YmACIiACIiAmwSuVgOLaYSMjvruu+8sAipl4xtRyiQWaqcoYrF2SiYKo6ioKEsJpHBieuGBAwdMUt11113W14wZM9C7d297M8soKR73+OOP47bbbsP06dOtXwos1rh6/fXXreg7a1kxmsqVQkg5VrBgQTtv8uTJGDVqlKUjsg/W26L44u6GmbHegwSWmy8GHz1NAsv5hZHAcp6xRvCcgL8LLBLg//clS5ZEl86d0b5+fWybPRuxGzYgIS4O51Wfyb2bJEsWhISFIXfJkijVrBmW7diBcb/8gjVr12bK90DuQbz6WRJYTlBVnyIgAiIgAiLgBoGrCSxGWjGlj5FXlxNBPJdpfkwVZD0rSiaKLMoj7hz4/vvv44YbbrBzDx8+jJdfftnqafFY7kBIgfXhhx/asYy2osxiJNWDDz6IPn36oH///laYnWJs48aNdj5TGlk/i2mIjP7q0KEDnnnmGZQoUcIiw5iS+OSTT2Irt+vOpE0CK7AWXgLL+fWUwHKesUbwnEAgCCwXBf7/X7ZsWTw7aBAKBAVhxbff4sS+fUg+exY4f95zWJmkh2xBQQiJiEC1W25B1mLF8NbgwVigqCuvr74ElteRqkMREAEREAERcI/A5WpgUQaxSDvl0b81vgnlNtmUR2yUWCycTmnFvvk8G/99+vRpJCYm2rF8nH8yYouCim8OeDyPY6QVx+aPq19KNJ7LtMEyZcpY1NfOnTuRPXt2G5/npxyf/a5cudKisDJbk8AKrBWXwHJ+PSWwnGesETwnEEgCizT4/zbLCjRr0gQtGjVCdFISTmzdisM7diDu0CGcS7E5jOf0AqgHpgrmyYPoEiUQWaYMEqKjMXvRIkybOdMi1s9SAqp5lYAElldxqjMREAEREAERcJ/ApQKL4f01atRA69atERER4X7HGXwmZdmECROwatWqDJ5J+g8vgZX+zJ0cUQLLSbp/9S2B5TxjjeA5gUATWC4i/KKKm7g0bdoU9WvWRNEcOXD+8GEc/PNPHN6+HWcTE1UnK0sWE35RxYohf/nyyFm4MPafPYtla9di+owZ9oVeyt2gPb/b1ENKAhJYuh9EQAREQAREwEcIXC2F0EemqGmkkYAEVhqB+fjhEljOL5AElvOMNYLnBAJVYKUUWfny5cM1ZcuiZrVqqF+lCopHR2PvmjXYv2aNFXxPTkqyWlmM3A7kRqmXJWtWZA0KssLsBStVQvGaNRF7+jQWrV+PJcuXY+OmTTh48KAirtLhRpDASgfIGkIEREAEREAEUkNAAis1lPzrGAks/1qvf5utBNa/EfL8eQkszxmqB+cJBLrASkmQZQYiIyNRpnRptG3VCm1btsT5uDjErFplQuv4/v1WL+scfwIk1TBrtmwmrExa5cmDIpUrI3+1aggrWBCz58/Hb1Om4M+NG3H06FEryaCWfgQksNKPtUYSAREQAREQgasSkMAKvBtEAiuw1lQCy/n1lMBynrFG8JxAZhJYLlrcSIYbv7CkQdnSpVGlQgWUK1MG4SEhyBYfbz9JJ04g/uhRJJw4gdMnTiAhPt7Eli83Rldx58AcuXIhOCIC4VFRCI6MxHluiBMWhgQAW7Zvx5o//7RIq2PHj1t9UNYZDfToM19cNwksX1wVzUkEREAERCBTEpDACrxll8AKrDWVwHJ+PSWwnGesETwnkBkF1uWoBQcHo3jx4qhUqRIqVayIYkWLIntyMkKTkuwHCQk4ffy4yazEEydw5uRJJMTFIenMmYt3VE6RhmgJie6mJTLd79KJ/r2xje3mHBKC0PBwhEZEmKyitMqZOzcQGorE4GCc5m7P2bNjf0wM1q1fj/Xr19tOyoqy8vw1460eJLC8RVL9iIAIiIAIiICHBCSwPATog6dLYPngongwJQksD+Cl8lQJrFSC0mEZSkAC6/L4uWMxa2fZT968iM6bF/nz5EGBqCj7yR8VhTwREQjKlg1xR4/i5N/RWsnx8Sa3Ek+dsqgtCq6khAQrGs9aW4ziSllv60JdqmzZkC17dgTxJyQE2UNDLZoqOGdOE1VB4eHInisXwnPnRkRUFLJky4YjJ07g0LFjOHj0qP3EHDmC2MOHEXvoEA7FxiImJsZ2cFZ0VYa+xK44uASWb66LZiUCIiACIpAJCUhgBd6iS2AF1ppKYDm/nhJYzjPWCJ4TkMBKHUPupsz3NuHh4ZZ+GM5UvRw5EBYejsiICETmyoXI8HDk5vM8LmdO5AwNRY6QEDC6K5hiipKKNamyZgXFFRvl0rlz55DMn7NnkcifpCScOXMGp86cQdzp04g/dQrH4+JwLC4OJ06exPETJxAXF2fRVHHx8ZYGyH/zT+0amLr19IWjJLB8YRU0BxEQAREQAREA7E3emDFj0KtXLxw6dEhMAoCABFYALGKKS5DAcn49JbCcZ6wRPCcggeUZQ4ooigjW1eKfLkFFSXXh5+/d/0xZ8e9/yyvXyK4IKf5pP+fO4ZxLbCUn/yW4kpMv+uFjav5NQALLv9dPsxcBERABEQggAhJYAbSYf1+KBFZgrakElvPrKYHlPGON4DkBCSzPGaoHEXCHgASWO9R0jgiIgAiIgAg4QEACywGoGdylBFYGL4CXh5fA8jLQy3QngeU8Y43gOQEJLM8ZqgcRcIeABJY71HSOCIiACIiACDhAQALLAagZ3KUEVgYvgJeHl8DyMlAJLOeBagRHCEhgOYJVnYrAvxKQwPpXRDpABERABERABNKHgARW+nBOz1EksNKTtvNjSWA5z1gRWM4z1gieE5DA8pyhehABdwhIYLlDTeeIgAiIgAiIgAMEJLAcgJrBXUpgZfACeHl4CSwvA71MdxJYzjPWCJ4TkMDynKF6EAF3CEhguUNN54iACIiACIiAAwQksByAmsFdSmBl8AJ4eXgJLC8DlcByHqhGcISABJYjWNWpCPwrAQmsf0WkA0RABERABEQgfQhIYKUP5/QcRQIrPWk7P5YElvOMGYG1dO5cDOvRA4mnTzs/oEYQATcIhOfNi4iOHXFfnz5unK1TREAE3CUggeUuOZ0nAiIgAiIgAl4mIIHlZaA+0J0Elg8sghenIIHlRZhX6Kp06dJYuGAB4mJjcf78eecH1Agi4AaBrNmyYeK0aXjwoYfcOFuniIAIuEtAAstdcjpPBERABERABLxMQALLy0B9oDsJLB9YBC9OQQLLizCv0FVQUBAKFy7s/EAaQQQ8JBAfH4/Dhw972ItOFwERSAsBCay00NKxIiACIiACIuAgAQksB+FmUNcSWBkE3qFhJbAcAqtuRUAEREAERCAVBCSwUgFJh4iACIiACIhAehCQwEoPyuk7hgRW+vJ2ejQJLKcJq38REAEREAERuDIBCSzdHSIgAiIgAiLgIwQksHxkIbw4DQksL8L0ga4ksHxgETQFERABERCBTEtAAivTLr0uXAREQAREwNcISGD52op4Ph8JLM8Z+lIPEli+tBqaiwiIgAiIQGYjIIGV2VZc1ysCIiACIuCzBCSwfHZp3J6YBJbb6HzyRAksn1wWTUoEREAERCCTEJDAyiQLrcsUAREQARHwfQISWL6/RmmdoQRWWon59vESWL69PpqdCIiACIhAYBOQwArs9dXViYAIiIAI+BEBCSw/WqxUTlUCK5Wg/OQwCSw/WShNUwREQAREICAJSGAF5LLqokRABERABPyRgASWP67a1ecsgRVYayqBFVjrqasRAREQARHwLwISWP61XpqtCIiACIhAABOQwAq8xZXACqw1lcAKrPXU1YiACIiACPgXAQks/1ovzVYEREAERCCACUhgBd7iSmAF1ppKYAXWeupqREAEREAE/IuABJZ/rZdmKwIiIAIiEMAEJLACb3ElsAJrTSWwAms9dTUiIAIiIAL+RUACy7/WS7MVAREQAREIYAISWIG3uBJYgbWmEliBtZ66GhEQAREQAf8iIIHlX+ul2YqACIiACAQwAQmswFtcCazAWlMJrMBaT12NCIiACIiAfxGQwPKv9dJsRUAEREAEApiABFbgLa4EVmCtqQRWYK2nrkYEREAERMC/CEhg+dd6abYiIAIiIAIBTEACK/AWVwIrsNZUAiuw1lNXIwIiIAIi4F8EJLD8a700WxEQAREQgQAmQIE1duxYPPvsszhy5EgAX2nmubSBAwdizJgxmDNnTua56AC+0nvvvRelSpXCZ599FsBXqUsTAREQAREQAd8kQIH15ptvom/fvjh48KBHk8wC4LxHPehkERABERABEcjEBEJDQzFkyBAUKFAA586dy8QkAufSQ0JCTEiuXLkycC4qE19Jx44d0adPHyQkJGRiCrp0ERABERABEchYAvfddx+OHj3q0SQksDzCp5NFQAREQAREQAREQAREQAREQAREQAREQAScJiCB5TRh9S8CIiACIiACIiACIiACIiACIiACIiACIuARAQksj/DpZBEQAREQAREQAREQAREQAREQAREQAREQAacJSGA5TVj9i4AIiIAIiIAIiIAIiIAIiIAIiIAIiIAIeERAAssjfDpZBERABERABERABERABERABERABERABETAaQISWE4T/v927JgGAAAAYZh/14hY+CoAjp7zT4AAAQIECBAgQIAAAQIECBAgkAQErMRnTIAAAQIECBAgQIAAAQIECBAg8BYQsN7C/gkQIECAAAECBAgQIECAAAECBJKAgJX4jAkQIECAAAECBAgQIECAAAECBN4CAtZb2D8BAgQIECBAgAABAgQIECBAgEASELASnzEBAgQIECBAgAABAgQIECBAgMBbQMB6C/snQIAAAQIECBAgQIAAAQIECBBIAgJW4jMmQIAAAQIECBAgQIAAAQIECBB4CwhYb2H/BAgQIECAAAECBAgQIECAAAECSUDASnzGBAgQIECAAAECBAgQIECAAAECbwEB6y3snwABAgQIECBAgAABAgQIECBAIAkIWInPmAABAgQIECBAgAABAgQIECBA4C0gYL2F/RMgQIAAAQIECBAgQIAAAQIECCQBASvxGRMgQIAAAQIECBAgQIAAAQIECLwFBKy3sH8CBAgQIECAAAECBAgQIECAAIEkIGAlPmMCBAgQIECAAAECBAgQIECAAIG3gID1FvZPgAABAgQIECBAgAABAgQIECCQBASsxGdMgAABAgQIECBAgAABAgQIECDwFhCw3sL+CRAgQIAAAQIECBAgQIAAAQIEksAAgGy+0/kThR0AAAAASUVORK5CYII=;" vertex="1" parent="1">
          <mxGeometry x="920" y="40" width="1200" height="531" as="geometry" />
        </mxCell>
      </root>
    </mxGraphModel>
  </diagram>
</mxfile>
